<?xml version="1.0" encoding="utf-8" ?>
<svg baseProfile="full" height="300mm" version="1.1" viewBox="0,0,200,300" width="200mm" xmlns="http://www.w3.org/2000/svg" xmlns:ev="http://www.w3.org/2001/xml-events" xmlns:xlink="http://www.w3.org/1999/xlink"><defs /><rect fill="#222222" height="300" width="200" x="0" y="0" /><text fill="#FFFFFF" style="font-size:12px; font-family:Arial; font-weight:bold;" x="10" y="20">Over 3km Runs</text><text fill="#FFFFFF" style="font-size:4px; font-family:Arial" x="10" y="280">ATHLETE</text><text fill="#FFFFFF" style="font-size:9px; font-family:Arial" x="10" y="290">pi-dal</text><text fill="#FFFFFF" style="font-size:4px; font-family:Arial" x="120" y="280">STATISTICS</text><text fill="#FFFFFF" style="font-size:3px; font-family:Arial" x="120" y="285">Number: 4</text><text fill="#FFFFFF" style="font-size:3px; font-family:Arial" x="120" y="290">Weekly: 1.0</text><text fill="#FFFFFF" style="font-size:3px; font-family:Arial" x="141" y="285">Total: 38.9 km</text><text fill="#FFFFFF" style="font-size:3px; font-family:Arial" x="141" y="290">Avg: 9.7 km</text><text fill="#FFFFFF" style="font-size:3px; font-family:Arial" x="167" y="285">Min: 8.3 km</text><text fill="#FFFFFF" style="font-size:3px; font-family:Arial" x="167" y="290">Max: 12.0 km</text><polyline fill="none" points="15.231527093681507,61.43405514044571 15.386699507478625,61.458239571686136 15.275862068985589,61.506608428724576 14.965517241507769,61.38568627234781 14.5,61.82100581983104 14.588669950840995,62.13540289978846 14.5,62.13540289978846 14.588669950840995,62.473984022508375 14.766009852290154,62.473984022508375 14.943349753855728,62.377246595715405 15.054187192232348,62.44979966853862 15.940886699710973,62.35306223438238 16.206896551768295,62.401430955156684 17.714285714318976,62.25632477074396 19.50985221681185,62.23214040021412 19.953201970551163,62.28050913938205 20.81773399026133,62.23214040021412 21.283251231652685,62.25632477074396 23.3004926108988,62.15958727765246 23.766009852290154,62.18377165365382 25.140394088695757,62.03866536982241 25.362068965565413,62.13540289978846 25.317733990144916,62.30469350627391 25.40640394098591,62.788380456273444 25.362068965565413,63.0785922727664 25.428571428521536,63.876673401275184 25.339901477913372,64.33617374754976 25.51724137936253,65.81140720969415 25.539408867130987,66.6094814731332 25.49507389171049,67.1415298684733 25.450738916289993,68.52001474794815 25.472906403942034,69.705023284856 25.384236453217454,70.33380153009784 25.49507389171049,70.67237391596427 25.450738916289993,70.86584368874901 25.561576354666613,71.01094594105962 25.650246305507608,72.0024762248795 25.650246305507608,72.34104683264741 25.49507389171049,72.4619648194639 25.58374384243507,73.01818696589908 25.561576354666613,73.52604111889377 25.62807881773915,73.71950915409252 25.67241379315965,75.8960164336313 25.827586206956767,76.69406536745373 25.738916256232187,76.98426448280225 25.783251231652685,77.15354717770242 25.716748768580146,77.22609687651857 25.783251231652685,77.34701300432789 25.805418719304726,78.72545360960066 25.716748768580146,78.99146777493297 25.67241379315965,79.76532589891576 25.805418719304726,79.86205803186749 25.716748768580146,80.51499915937893 25.871921182377264,81.21630480198655 25.805418719304726,82.61891144423862 25.871921182377264,85.69011471566046 25.716748768580146,86.41559146996588 25.960591133101843,86.80251172845601 25.849753694725223,86.87505922443233 25.783251231652685,87.09270161311724 25.827586206956767,87.52798594342312 25.761083743884228,88.3743704346125 25.650246305507608,88.93056473013712 25.51724137936253,89.09984106165939 25.894088670029305,89.72858093233663 25.916256157681346,90.18804389733123 25.761083743884228,90.52659513076651 25.67241379315965,92.31607423131936 25.605911330203526,92.60625908194925 25.472906403942034,92.77553345591878 24.918719211942516,92.92062570460257 24.785714285913855,93.01735383368214 24.541871921275742,93.06571788713336 24.47536945808679,93.18662798867445 24.386699507478625,93.76699583561276 24.320197044406086,93.83954174196697 24.320197044406086,94.22645296290284 24.142857142840512,94.6617275235476 24.18719211826101,94.6617275235476 24.23152709356509,94.73427322570933 24.253694581333548,95.4597293366096 24.5197044336237,95.48391117842402 24.63054187200032,95.55645669292426 25.118226601043716,95.53227485661046 25.140394088695757,95.8466385853535 25.317733990144916,95.91918401708244 25.738916256232187,95.89500220835907 26.11576354689896,95.94336582400138 26.337438423768617,95.8466385853535 27.113300492754206,95.8466385853535 27.578817734029144,95.91918401708244 29.418719211942516,95.89500220835907 29.662561576464213,95.94336582400138 30.238916256232187,95.8466385853535 30.837438423768617,95.89500220835907 30.970443349913694,95.96754762905766 31.458128078840673,95.87082039777306 32.477832512464374,95.8466385853535 35.22660098527558,95.91918401708244 35.89162561588455,96.08845662666135 36.33497536950745,96.08845662666135 37.0,96.20936557839741 37.88669950736221,96.45118334380095 38.95073891628999,96.64463742365479 39.17241379315965,96.74136441940209 39.34975369460881,96.69300092523918 40.25862068973947,96.86227312279516 40.39162561588455,96.98318178008776 40.812807881855406,97.05572695244337 40.85714285715949,97.10409039148362 40.923645320232026,97.05572695244337 41.477832512464374,97.10409039148362 42.07635467988439,97.32172577601159 43.1182266009273,97.46681594956317 43.51724137936253,97.66026941133896 44.75862068985589,98.31317397553357 45.09113300498575,98.57917174691102 46.022167487768456,98.99025877387612 46.221674876869656,99.18371130849118 47.24137931049336,99.71570517169312 47.83990147791337,100.15097221572069 48.77093596069608,100.58623866373091 50.21182266017422,101.45676977184485 51.120689655304886,101.84367172131897 51.785714285681024,101.94039713515667 53.35960591142066,102.27893585170386 55.0443349754205,102.49656769342255 55.15517241379712,102.5932929085393 56.4630541872466,102.76256196424947 57.06157635478303,102.93183092982508 58.03694581286982,102.98019347479567 58.50246305426117,102.90764965454582 59.2561576354783,102.90764965454582 59.610837438493036,102.81092453500605 59.83251231536269,102.83510581767769 60.475369458203204,102.71419938610052 60.65270935965236,102.73838067604811 61.495073891594075,102.47238638499402 62.514778325217776,102.25475452677347 64.26600985229015,101.72276491273078 64.70935960602947,101.55349530337844 65.26354679802898,101.45676977184485 65.39655172417406,101.38422560389154 65.59605911339168,101.40840699503315 66.08374384243507,101.0940487664775 66.37192118226085,101.0215045157529 67.10344827594236,100.46533137682127 69.12068965518847,99.32880063221091 69.85221674886998,98.84516929564415 70.29556650249287,98.38571884436533 71.95812807884067,96.28191092729685 72.04679802968167,95.96754762905766 72.60098522168119,94.95191023277584 72.88916256150696,94.05717936169822 73.13300492626149,93.62190397322411 73.66502463060897,92.26771006369381 73.66502463060897,92.0500712186913 73.88669950736221,91.61479308156413 74.01970443350729,91.1069678348722 73.97536945808679,90.93769257233362 74.15270935965236,90.33313732725219 74.28571428568102,89.05147640468203 74.21921182260849,88.18091132107656 74.13054187200032,87.91490484768292 74.26354679802898,87.76981031376636 74.35221674875356,87.43125614378368 74.21921182260849,85.5933843566454 74.26354679802898,83.99732918202062 74.19704433507286,83.6104055083415 74.26354679802898,83.24766413640464 74.13054187200032,80.95029249900836 74.1748768473044,80.73264590377221 74.10837438423187,80.29735226594494 74.13054187200032,79.28166479230276 74.04187192115933,78.77381983806845 74.08620689657982,76.62151554712909 74.01970443350729,76.01693306755624 73.50985221681185,75.53326625563204 73.35467980301473,74.10644487116951 73.44334975373931,73.57440813872381 73.88669950736221,73.59859164591762 74.08620689657982,73.57440813872381 74.15270935965236,73.40512353702798 74.24137931037694,70.69655764399795 74.46305418713018,69.705023284856 74.48522167489864,69.05205994387507 74.37438423652202,68.59256641802494 74.6625615763478,68.37491135805612 74.95073891628999,67.33500179130351 75.23891625611577,66.56111339307972 75.3940886700293,66.36764099894208 75.74876847292762,65.47282964366605 75.72660098527558,65.32772486211616 75.54926108371001,65.13425171692506 75.28325123153627,63.92504189006286 75.34975369460881,63.634830846771365 75.21674876846373,63.51390950049972 75.32758620695677,63.68319937240449 73.44334975373931,64.0217788455484 75.17241379315965,63.94922613169183 75.34975369460881,63.828304905066034 75.97044334968086,63.0785922727664 75.85960591130424,62.44979966853862 75.99261083744932,62.25632477074396 75.97044334968086,62.03866536982241 75.85960591130424,61.82100581983104 75.61576354689896,61.60334612065344 76.41379310353659,61.11965736639104 76.8128078818554,60.75689031742513 77.30049261078238,60.418307364569046 77.63300492614508,60.369938341900706 78.14285714284051,59.98298589506885 79.56157635478303,59.160710380470846 79.8940886700293,58.870494984817924 82.50985221681185,57.29849031736376 82.64285714284051,57.15338180199615 82.79802955663763,57.08082751947222 82.84236453205813,57.12919704295928 82.95320197043475,56.83897979135509 83.41871921194252,56.54876227452769 83.97290640394203,55.871587037603604 84.99261083744932,54.88000640750397 85.19211822655052,54.56560214672936 85.8128078818554,54.08190267640748 87.45320197055116,53.13868659068248 88.33990147791337,52.75172533499426 88.47290640405845,52.58242963743396 89.44827586202882,52.02617171002203 89.93596059118863,51.90524594471208 91.15517241379712,51.300616427644854 91.73152709356509,50.8652824627643 91.79802955663763,50.647615256515564 92.61822660104372,50.13972452862072 92.77339901484083,49.97042743882048 93.06157635466661,49.801130258798366 93.28325123153627,49.75275961935404 94.28078817739151,48.97882838654914 94.54679802956525,48.64023287920281 95.03448275860865,48.398378724377835 95.0123152709566,48.13233894133009 95.41133004927542,47.866298935434315 95.5,47.697000633896096 95.45566502469592,47.62444419134408 94.96798029565252,47.09236310591223 94.72413793113083,47.01980652517523 93.92610837437678,47.89048439977341 93.59359605924692,48.05978259816766 92.59605911327526,48.93045762190013 91.84236453205813,49.43835028351168 91.55418719211593,49.77694494003663 90.86699507397134,50.26065096608363 90.73399014782626,50.50250370291178 90.5123152709566,50.62343000218971 90.29064039408695,50.84109722499852 89.13793103443459,51.300616427644854 88.16256157646421,51.61502392019611 87.56403940892778,51.90524594471208 85.96798029553611,52.14709742926061 85.32512315281201,52.14709742926061 84.28325123153627,51.95361625638907 83.79556650249287,51.711764624516945 82.77586206898559,51.300616427644854 82.15517241391353,50.84109722499852 81.35714285715949,50.381577357504284 80.51477832521778,50.21228039660491 80.0935960591305,50.23646568224649 79.33990147779696,50.526688966405345 79.49507389171049,50.381577357504284 78.63054187200032,50.4541331702203 78.51970443350729,50.550874228123575 77.23399014794268,50.8652824627643 76.92364532023203,50.91365293279523 76.83497536950745,50.8652824627643 76.16995073889848,50.98620862403186 75.10591133008711,51.25224601660739 74.7068965517683,51.421542423137 74.19704433507286,51.54246837258688 71.40394088672474,51.977801409433596 71.04926108382642,52.098727147094905 70.8940886700293,52.219652838713955 69.7635467981454,52.26802310248604 67.79064039408695,52.24383797147311 67.48029556660913,52.122912289138185 66.99261083756573,52.122912289138185 66.57142857136205,52.219652838713955 64.42118226597086,52.14709742926061 64.04433497530408,52.050356857595034 63.86699507397134,52.17128256763681 63.77832512324676,52.098727147094905 63.51231527107302,52.17128256763681 62.04926108382642,52.17128256763681 61.406403940869495,52.074542003218085 60.89655172417406,52.098727147094905 60.78571428579744,51.977801409433596 60.45320197043475,51.90524594471208 60.14285714284051,52.364763607940404 59.78817734005861,52.43731896771351 59.45566502469592,52.388948729640106 59.05665024626069,52.074542003218085 58.96798029553611,52.050356857595034 58.72413793113083,52.14709742926061 57.97044334968086,52.17128256763681 57.793103448231705,52.29220823163632 57.637931034551,52.195467704121256 57.504926108405925,52.24383797147311 55.95320197043475,52.26802310248604 55.487684729043394,52.388948729640106 53.04926108371001,52.58242963743396 52.78325123153627,52.75172533499426 52.71674876846373,52.92102094236179 51.9187192118261,52.75172533499426 51.74137931037694,52.80009551774128 51.54187192115933,52.70335514488397 51.298029556754045,52.679170047078514 50.34482758620288,52.727540240826784 49.812807881855406,52.82428060634993 49.70197044336237,52.775910427299095 49.169950739014894,52.82428060634993 48.4384236454498,52.775910427299095 47.95073891628999,52.87265077800839 47.684729064116254,52.775910427299095 46.44334975373931,52.969391099293716 45.93349753704388,52.969391099293716 45.62315270944964,52.848465693125036 45.13546798040625,52.92102094236179 44.91379310353659,53.13868659068248 41.83251231536269,53.283796939998865 41.23399014782626,53.428907223045826 39.34975369460881,53.428907223045826 38.83990147791337,53.7674976256676 38.396551724290475,53.7674976256676 37.864532019826584,53.549832408258226 37.0,53.59820246946765 36.35714285715949,53.574017439823365 36.13546798040625,53.64657252331381 35.78078817750793,53.549832408258226 34.67241379315965,53.67075754748657 34.1625615763478,53.622387497278396 32.65517241379712,53.67075754748657 32.1009852217976,53.81586765375687 31.52463054191321,53.81586765375687 30.416256157681346,53.93679269164568 30.30541871918831,53.84005266500753 29.640394088812172,53.74331260888721 29.352216748869978,53.81586765375687 28.399014778318815,53.79168264064356 27.933497537043877,53.88842268200824 27.756157635478303,53.81586765375687 27.401477832579985,54.009347692277515 27.179802955826744,54.468862311623525 27.179802955826744,55.14604053887888 27.02463054191321,55.41207444755128 26.780788177391514,55.629738388815895 26.603448275942355,56.210174836509395 26.559113300521858,57.225936067989096 26.669950739014894,57.58870714914519 26.692118226666935,58.435171394230565 26.758620689623058,58.701202548254514 26.692118226666935,59.281633383769076 26.847290640464053,59.74114037642721 26.647783251246437,60.249015752837295 26.625615763594396,60.87781271309359 26.935960591305047,61.72426819411339 26.647783251246437,62.30469350627391 26.692118226666935,62.44979966853862 26.98029556660913,62.93348639761098 26.758620689623058,63.41717239029822 26.802955665043555,63.562278044526465 26.736453202087432,63.634830846771365 26.714285714318976,64.40872637310531 26.5812807881739,64.65056833846029 26.426108374493197,64.65056833846029 26.3817733990727,64.57801576814381 26.16009852231946,64.62638415020774 25.67241379315965,64.55383157436154 25.69458128081169,63.94922613169183 25.450738916289993,63.2236980816233 25.49507389171049,63.030223655106965 25.384236453217454,62.64327444857918 25.472906403942034,62.30469350627391 25.317733990144916,62.08703413847252 24.918719211942516,62.15958727765246 24.320197044406086,62.15958727765246 23.876847290666774,62.32887787124491 23.233990147826262,62.377246595715405 22.635467980406247,62.28050913938205 22.103448275942355,62.23214040021412 21.81527093600016,62.35306223438238 21.283251231652685,62.30469350627391 20.97290640405845,62.377246595715405 20.30788177344948,62.32887787124491 19.642857142956927,62.377246595715405 19.266009852290154,62.35306223438238 18.97783251234796,62.377246595715405 18.91133004927542,62.473984022508375 18.77832512324676,62.44979966853862 18.11330049263779,62.57072141987737 17.736453201971017,62.59490576462122 17.049261083826423,62.473984022508375 16.62807881773915,62.49816837461549 16.339901477913372,62.377246595715405 15.076354679884389,62.57072141987737 14.544334975536913,62.32887787124491 14.566502463072538,62.15958727765246 14.633004926145077,62.18377165365382 14.721674876986071,61.869374621572206 15.00985221681185,61.72426819411339 15.49753694573883,61.62753053905908 15.541871921275742,61.67589937031153 15.541871921275742,61.28894851417863 15.475369458203204,61.458239571686136 15.519704433507286,61.38568627234781 15.408866995130666,61.33731739697396" stroke="#4dd2ff" stroke-linecap="round" stroke-linejoin="round" stroke-width="0.5"><title>2022-04-04 12.0km</title></polyline><polyline fill="none" points="107.96441110759042,77.00277722385363 107.96441110759042,77.03098335996037 107.88684966496658,77.03098335996037 107.757580593694,76.72071574474103 107.65416533674579,76.94636494520819 107.44733482296579,76.60789109303732 107.39562719431706,76.66430342313834 107.18879668042064,76.60789109303732 107.13708905200474,76.66430342313834 107.007819980965,76.63609725915012 106.80098946695216,76.8053342110361 106.671720395796,76.77712805772899 106.51659751031548,76.9745710855641 106.51659751031548,77.53869344253326 106.41318225348368,77.56689953786554 106.43903606757522,77.67972389762872 107.007819980965,77.79254822302028 107.214650494745,77.905372513982 108.14538780716248,77.67972389762872 108.35221832117531,77.8207542989694 108.55904883495532,77.8207542989694 111.37711458664853,77.53869344253326 112.15272901381832,77.5104873451055 113.39371209708042,77.59510563104413 114.06591126718558,77.45407514381805 115.77226300677285,77.5104873451055 116.08250877750106,77.39766293385765 116.4961698052939,77.45407514381805 118.0215448451927,77.42586903987103 118.22837535908911,77.56689953786554 119.00398978614248,77.28483848823817 119.13325885729864,77.53869344253326 119.13325885729864,78.92078958731145 119.23667411424685,79.14643744786736 119.28838174277917,79.06181951629696 119.2108203000389,79.14643744786736 119.159112671623,79.3438792132074 119.31423555710353,80.35929234424839 119.5986275136238,80.3310864615778 119.54691988509148,80.2464688004402 120.40009575488511,80.35929234424839 120.71034152572975,80.4439099796 121.30497925309464,80.72596862443606 121.66693265235517,80.66955691261683 121.84790935204364,80.81058617599774 122.10644749447238,80.69776276953053 122.05473986594006,80.66955691261683 122.10644749447238,80.64135105349123 122.49425470805727,80.5849393288081 122.75279285025317,80.7541744770424 122.95962336426601,80.7541744770424 123.14060006383806,80.55673346325057 123.42499202047475,80.41570410324493 123.52840727742296,80.55673346325057 124.01962974783964,80.61314519227017 124.48499840404838,80.41570410324493 125.05378231732175,80.47211585371406 125.20890520268586,80.41570410324493 125.41573571658228,80.55673346325057 125.90695818699896,80.52852759559755 125.95866581541486,80.5849393288081 126.06208107247949,80.5849393288081 126.08793488668744,80.69776276953053 126.47574210027233,80.5849393288081 127.12208745616954,80.64135105349123 127.5098946695216,80.52852759559755 127.71672518365085,80.55673346325057 127.8459942546906,80.47211585371406 129.0352697095368,80.27467468960094 129.21624640922528,80.35929234424839 129.75917650817428,80.30288057663711 129.96600702195428,80.3874982248526 130.5606447494356,80.30288057663711 131.02601340576075,80.3310864615778 131.07772103417665,80.27467468960094 131.77577401848976,80.30288057663711 132.06016597512644,80.2464688004402 132.52553463133518,80.27467468960094 132.80992658797186,80.35929234424839 133.97334822861012,80.21826290909667 134.28359399933834,80.04902751615737 134.4645706990268,80.13364522231859 135.0075007979758,80.07723342030658 135.26603894028813,80.10543932238943 135.4470156399766,80.02082160973805 135.52457708271686,80.04902751615737 135.65384615387302,79.93620387781993 135.98994573880918,80.07723342030658 136.32604532397818,80.13364522231859 136.89482923713513,80.04902751615737 137.38605170755181,80.07723342030658 137.82556654966902,79.93620387781993 138.34264283429366,79.93620387781993 138.44605809124187,79.87979204580188 139.37679540377576,79.9079979628732 139.7904564315686,79.99261570125236 140.10070220241323,79.87979204580188 140.35924034472555,79.85158612660598 141.0314395148307,79.99261570125236 141.16070858598687,80.07723342030658 142.37583785515744,79.93620387781993 143.66852856683545,79.9079979628732 143.79779763810802,79.9644097906421 144.41828917968087,79.9644097906421 145.47829556337092,79.79517428163672 146.33147143316455,79.85158612660598 147.02952441747766,79.79517428163672 147.57245451642666,79.85158612660598 147.46903925947845,79.8233802052273 149.20124481327366,79.71055649817572 149.58905202685855,79.5131149282679 149.89929779758677,79.5131149282679 150.1578359400155,79.23105536017101 150.5456431536004,79.20284939158591 150.72661985317245,79.20284939158591 151.26954995212145,79.45670303187217 151.42467283748556,79.45670303187217 151.60564953717403,79.4002911268326 151.91589530790225,79.45670303187217 152.04516437917482,79.4002911268326 152.56224066391587,79.3438792132074 153.28614746255334,79.45670303187217 153.5188317906577,79.37208517108229 154.13932333223056,79.4002911268326 155.12176827329677,79.28746729099657 155.71640600066166,79.14643744786736 155.84567507181782,79.20284939158591 156.0783593999222,79.20284939158591 156.31104372814298,79.31567325314973 156.77641238435172,79.4002911268326 157.3193424831843,79.37208517108229 157.50031918287277,79.3438792132074 157.57788062561303,79.23105536017101 157.810564953601,79.23105536017101 157.99154165340587,79.28746729099657 159.02569422277156,79.31567325314973 159.10325566551182,79.37208517108229 158.81886370887514,79.5131149282679 158.71544845192693,79.73876242816914 158.81886370887514,79.87979204580188 159.0515480369795,79.85158612660598 159.3876476221485,80.02082160973805 159.80130864982493,80.64135105349123 159.95643153518904,81.57214327066322 159.9305777209811,81.74137796807918 160.08570060646161,83.49013198149623 160.18911586340982,84.02603881742107 160.08570060646161,84.70297266013222 160.21496967761777,85.01323359139496 160.34423874877393,85.04143911777646 160.37009256298188,84.95682253237464 161.37839131825604,84.27988915331662 161.6110756463604,84.13886121037649 161.68863708910067,84.16706680328934 161.92132141720504,83.77218830754282 162.25742100225762,83.80039392830804 163.3949888285715,83.01063573450665 164.66182572604157,82.27728733306867 167.32476859237067,80.55673346325057 167.84184487711173,80.3310864615778 167.94526013405994,80.16185112003586 168.33306734764483,80.07723342030658 168.5657516757492,79.8233802052273 169.08282796037383,79.62593869536067 170.60820300038904,78.72334759656223 173.4004149377579,77.56689953786554 173.94334503659047,77.22842625252088 175.08091286302079,76.72071574474103 175.36530481965747,76.41044786968268 175.62384296196979,76.24121073746937 175.727258218918,76.01556110751699 175.727258218918,76.10017973484355 175.83067347598262,76.07197352792718 176.14091924671084,75.90273624105612 176.16677306091879,75.81811756864772 176.3736035746988,75.84632379494724 176.9165336737642,75.507848937792 177.12336418766063,75.4514364314964 177.25263325870037,75.28219886127044 176.99409511650447,74.77448568656109 177.20092563028447,74.2103591208579 177.01994893071242,73.50519970580353 177.12336418766063,73.42058048592298 178.0541015000781,73.1949291380588 178.3384934568312,72.99748409600579 178.4936163421953,72.7718324905436 178.75215448450763,72.63080016733147 179.01069262693636,72.57438722302322 179.26923076924868,72.32052886727615 179.83801468240563,71.50253964887816 180.19996808166616,70.51530887672561 180.40679859556258,70.23324245860567 180.613629109459,69.81014242878882 180.6653367378749,69.81014242878882 180.7170443664072,69.92296915061888 180.92387488030363,69.95117582572857 181.33753590809647,70.26144911002484 181.44095116504468,70.26144911002484 181.8029045643052,70.12041583124665 182.00973507820163,69.92296915061888 182.19071177777369,69.89476247344282 182.2941270347219,69.78193574291072 182.42339610587806,69.81014242878882 182.7336418767227,69.6691089781234 183.12144909030758,69.30242175512831 183.30242578987963,69.24600830403506 183.69023300346453,69.27421503068763 184.18145547399763,69.10497463861248 184.3624321735697,68.90752741682809 184.59511650179047,68.20235790865263 184.82780082977843,68.11773747744155 184.93121608684305,68.20235790865263 185.0087775294669,68.20235790865263 185.16390041494742,67.97670338250464 185.31902330031153,67.94849655710277 185.4482923715841,67.86387606788776 185.42243855725974,67.5536007755727 185.5,67.4971870581503 185.5,67.3561527269776 185.37073092884384,67.24332522336044 185.26731567177922,66.96125631409814 185.29316948598716,66.65098026575288 185.21560804336332,66.45353173607145 184.9053622726351,65.80477154045366 184.69853175873868,65.55090854593436 184.23316310252994,65.21242428268306 183.9229173315689,65.07138908165507 183.19901053304784,64.95856088219443 182.91461857652757,64.98676793530467 181.93217363546137,65.26883834801265 181.8029045643052,65.29704537751968 181.8029045643052,65.24063131641014 181.44095116504468,65.40987347386545 181.13070539420005,65.43808049254585 177.8472709862981,66.22787614475237 177.71800191514194,66.31249700763146 177.71800191514194,66.25608310117968 175.26188956270926,66.87663559941575 174.40871369291563,66.9894632146461 174.22773699322715,67.24332522336044 173.21943823806942,67.3561527269776 173.03846153849736,67.46898019625223 172.98675390996505,67.61001448440948 172.98675390996505,67.5253939179238 172.88333865313325,67.4971870581503 172.44382381113246,67.61001448440948 172.23699329723604,67.5253939179238 171.69406319817062,67.5536007755727 171.64235556975473,67.5253939179238 170.97015639964957,67.5536007755727 170.71161825722083,67.41256646587863 169.44478135975078,67.46898019625223 169.3672199168941,67.4971870581503 169.39307373121846,67.58180763109704 169.23795084573794,67.4971870581503 168.25550590490457,67.4971870581503 167.76428343448788,67.44077333211317 167.60916054889094,67.46898019625223 164.79109479731414,67.41256646587863 164.24816469836514,67.46898019625223 163.3432812000392,67.3561527269776 161.5076603894122,67.5253939179238 160.78375359077472,67.46898019625223 160.55106926267035,67.29973897952004 160.24082349182572,67.18691145873163 160.08570060646161,67.21511834210833 159.90472390677314,67.3561527269776 159.9305777209811,67.29973897952004 159.72374720708467,67.24332522336044 159.20667092246003,67.29973897952004 158.896425151499,67.61001448440948 158.68959463760257,67.72284187638434 157.810564953601,67.63822133562644 157.34519629750866,67.66642818468972 157.08665815507993,67.77925555943511 156.00079795729835,67.77925555943511 155.92323651455808,67.80746239767177 155.76811362907756,68.089530662779 155.5354293009732,68.17415110036382 155.35445260140114,68.20235790865263 155.17347590171266,68.06132384593366 155.07006064464804,67.80746239767177 154.81152250233572,67.86387606788776 153.98420044675004,67.83566923390026 153.4154165337095,67.97670338250464 152.8724864347605,67.92028972954722 152.51053303538356,67.97670338250464 151.55394190864172,68.03311702693463 151.1402808809653,67.97670338250464 150.93345036706887,67.66642818468972 150.93345036706887,67.75104871895746 150.57149696780834,67.69463503157021 150.23539738263935,67.77925555943511 150.1061283115996,67.83566923390026 149.95100542611908,68.03311702693463 148.4773380146362,68.20235790865263 148.06367698684335,68.17415110036382 147.41733163094614,68.28697832050966 146.12464091926813,68.31518512012553 145.40073412074707,68.42801229731413 144.39243536547292,68.39980550625478 143.5909671240952,68.54083944007289 142.97047558252234,68.71008008983335 141.88461538450792,68.65366654848913 141.34168528567534,68.68187332028174 141.28997765714303,68.59725299858837 141.28997765714303,68.65366654848913 140.95387807209045,68.82290714670671 140.56607085862197,68.79470038574073 140.2299712735694,68.71008008983335 140.25582508777734,68.68187332028174 140.10070220241323,68.76649362262106 139.76460261724424,68.7382868572895 139.01484200451523,68.82290714670671 138.57532716239803,68.79470038574073 138.31678902020212,68.85111390554812 137.82556654966902,68.82290714670671 137.0240983082913,68.90752741682809 136.1450686242897,68.85111390554812 135.67969996808097,69.07676789912512 135.21433131187223,68.85111390554812 135.0592084263917,68.87932066235226 135.13676986913197,68.87932066235226 135.0592084263917,68.79470038574073 134.3094478136627,68.85111390554812 134.07676348555833,68.96394091955153 133.97334822861012,69.07676789912512 133.99920204270165,68.99214766765363 133.94749441428576,69.02035441357293 133.76651771459728,68.99214766765363 133.58554101502523,69.13318137594615 132.31870411743876,69.16138811121345 131.59479731880128,69.27421503068763 131.31040536228102,69.24600830403506 130.25039897870738,69.33062847753172 129.88844557933044,69.30242175512831 129.94015320774633,69.2178015751997 129.7333226938499,69.33062847753172 129.7333226938499,69.2178015751997 129.29380785184912,69.24600830403506 129.37136929458939,69.24600830403506 129.16453878069296,69.30242175512831 127.76843281206675,69.38704191576107 127.38062559848186,69.30242175512831 126.11378870089538,69.4434553454048 125.95866581541486,69.38704191576107 125.44158953079022,69.38704191576107 125.26061283110175,69.47166205701069 124.82109798921738,69.47166205701069 124.66597510373686,69.55628217893536 124.27816789015196,69.52807547379052 123.29572294931859,69.58448888192652 123.03718480688985,69.52807547379052 122.9079157357337,69.58448888192652 122.2615703799529,69.55628217893536 121.79620172362775,69.6691089781234 121.14985636773054,69.69731567258714 120.99473348236643,69.75372905493714 120.86546441121027,69.92296915061888 120.73619533982128,70.14862249125144 120.65863389719743,70.57172213451122 120.65863389719743,71.41791997148539 120.76204915414564,72.20770287557389 120.68448771140538,72.63080016733147 120.78790296835359,73.39237407490145 120.73619533982128,73.6180253024504 120.8396105968859,74.60524780699052 120.68448771140538,75.33861139323562 120.71034152572975,76.29762312347884 120.76204915414564,76.38224168636953 120.91717203962617,76.32582931328216 120.96887966804206,76.35403550093179 120.96887966804206,76.29762312347884 120.73619533982128,77.25663237142726 120.8913182253018,76.83354036213132 120.8396105968859,77.45407514381805 120.78790296835359,77.53869344253326 120.81375678256154,77.73613606463186 120.73619533982128,77.73613606463186 120.86546441121027,78.94899557734607 120.78790296835359,79.14643744786736 120.8396105968859,80.2464688004402 120.78790296835359,80.30288057663711 120.68448771140538,80.27467468960094 120.3483881263528,80.35929234424839 119.6503351420397,80.30288057663711 119.6503351420397,80.13364522231859 119.46935844235122,80.19005701562855 118.82301308645401,80.61314519227017 118.5644749441417,80.61314519227017 118.51276731560938,80.55673346325057 118.33179061603732,80.5849393288081 118.33179061603732,80.64135105349123 117.9181295883609,80.61314519227017 117.530322374776,80.69776276953053 117.45276093203574,80.78238032758236 117.45276093203574,80.72596862443606 117.09080753277522,80.81058617599774 116.67714650498237,80.66955691261683 116.39275454834569,80.86699786628014 116.16007022035774,80.92340954803512 116.03080114896875,80.83879202223034 115.12591765087564,80.83879202223034 115.02250239392743,80.78238032758236 114.42786466644611,80.86699786628014 114.37615703803021,80.81058617599774 114.24688796687406,80.89520370817627 113.78151931066532,80.92340954803512 113.21273539739195,81.12085036645294 112.7473667410668,81.00802705454407 112.66980529844295,80.89520370817627 112.43712097033858,81.00802705454407 112.43712097033858,81.09264454169897 111.68736035749316,81.03623288570088 111.17028407275211,81.09264454169897 110.70491541642696,81.00802705454407 110.5756463452708,81.09264454169897 110.39466964581516,81.06443871476222 109.61905521864537,81.14905618908233 109.20539419096895,81.12085036645294 108.7917331631761,81.23367364399019 108.53319502074737,81.20546782788006 108.42977976368275,81.26187945803395 107.91270347917452,81.29008526995312 107.47318863717373,81.26187945803395 107.36977338010911,81.31829107963131 106.98196616664063,81.29008526995312 106.38732843915932,81.37470269270125 106.20635173958726,81.31829107963131 106.128790296847,81.20546782788006 106.15464411117136,81.37470269270125 106.36147462495137,81.20546782788006 106.43903606757522,81.26187945803395 106.30976699641906,81.31829107963131 106.25805936800316,81.26187945803395 106.20635173958726,81.43111429712735 105.76683689758647,81.79778951659682 106.0770826684311,81.65676062900457 106.20635173958726,81.45932009615353 106.23220555379521,81.65676062900457 106.20635173958726,81.40290849597659 106.10293648263905,81.31829107963131 106.10293648263905,81.40290849597659 106.18049792537931,81.31829107963131 106.18049792537931,81.76958374335663 106.02537503989879,81.51573168762843 106.0770826684311,81.93881835057982 106.18049792537931,82.07984713083715 106.46488988189958,81.62855484499596 105.92195978295058,81.43111429712735 105.0946377273649,81.31829107963131 104.9395148421172,81.09264454169897 104.65512288536411,80.86699786628014 104.62926907115616,80.72596862443606 104.5,80.61314519227017 104.52585381432436,79.45670303187217 104.62926907115616,79.09002549562138 104.65512288536411,78.2720512226224 104.96536865620874,77.87716644449392 105.22390679863747,77.79254822302028 106.0770826684311,77.65151781094028 106.23220555379521,77.73613606463186 106.38732843915932,77.67972389762872 106.43903606757522,77.45407514381805 106.36147462495137,77.36945682566147 106.36147462495137,77.2002201314317 106.49074369622394,77.00277722385363 106.90440472390037,76.8053342110361 107.24050430906937,76.8053342110361 107.60245770809706,76.69250958500197 107.68001915095374,76.7489219023264 107.62831152242143,76.69250958500197 107.60245770809706,76.7489219023264 107.62831152242143,76.69250958500197 107.31806575169321,76.52327258163132" stroke="#4dd2ff" stroke-linecap="round" stroke-linejoin="round" stroke-width="0.5"><title>2022-03-05 8.3km</title></polyline><polyline fill="none" points="23.731174721149728,193.91227400492062 23.106578960316256,194.16780864767497 22.677169374655932,194.21039774341625 22.05257361382246,194.5936994596559 22.091610848903656,195.1899460515997 21.77931296848692,195.53065810460248 21.77931296848692,195.82878098075162 22.091610848903656,196.297259465151 22.95043001975864,196.12690369805205 23.731174721149728,195.82878098075162 24.472882186993957,195.87136995009496 25.136515183141455,195.53065810460248 25.487850298406556,195.74360303234425 26.073408824391663,195.53065810460248 26.893190760631114,196.04172579495935 26.698004585225135,195.87136995009496 26.580892879981548,195.91395891614957 26.85415352554992,195.44548011079314 27.20548864081502,195.78619200820685 27.830084401881322,195.70101405328023 29.820983389625326,195.95654787903186 30.562690855702385,195.6158360853733 31.14824938145466,195.74360303234425 31.694770672125742,196.1694926446653 32.00706855277531,196.12690369805205 32.124180257786065,196.21208158801892 32.24129196302965,195.70101405328023 32.124180257786065,195.48806910926942 31.928994082612917,195.6158360853733 31.88995684776455,195.82878098075162 32.00706855277531,196.08431474817917 32.0851430229377,195.95654787903186 32.24129196302965,196.33984839878394 32.70973878353834,195.87136995009496 33.29529730952345,195.6158360853733 34.03700477536768,195.74360303234425 34.154116480611265,196.04172579495935 34.19315371569246,195.78619200820685 34.46641436126083,195.91395891614957 35.09101012186147,195.70101405328023 35.83271758793853,195.6584250710148 36.53538781916723,195.74360303234425 37.003834639675915,195.53065810460248 37.745542105752975,195.70101405328023 39.34606874291785,195.48806910926942 39.580292153405026,195.6584250710148 40.1658506791573,195.31771309577744 40.82948367507197,195.40289110905724 41.063707085326314,195.0621789782308 41.37600496574305,195.23253506960464 41.57119114114903,196.08431474817917 41.1808187905699,196.51020410112687 41.063707085326314,197.19162639140268 40.90755814523436,197.27680411943584 40.90755814523436,198.29893584316596 40.55622302973643,198.29893584316596 40.47814855934121,198.68223475807463 40.90755814523436,199.15071085313684 40.868520910153165,200.04507321782876 41.1808187905699,201.15237702202285 41.21985602541827,201.02461131033488 41.84445178648457,201.91897067951504 41.80541455140337,202.81332861908595 41.53215390606783,203.6225083801255 41.21985602541827,204.13356867889524 40.82948367507197,204.43168697092915 41.063707085326314,204.51686359656742 41.21985602541827,205.2834526442748 41.21985602541827,205.79451142580365 40.94659538008273,206.26298156558187 41.063707085326314,207.79615382576594 41.21985602541827,208.90344228979666 40.98563261539675,209.92555277328938 41.141781555255875,210.47919517217088 41.063707085326314,211.7994171436003 41.37600496574305,212.48082081318717 41.415042200824246,213.5455123858701 41.063707085326314,213.9288008560252 41.1808187905699,214.52502684335923 41.29793049558066,214.31208906372194 41.063707085326314,215.41936463327147 41.53215390606783,216.22852616375894 41.49311667098664,216.9525118044694 41.76637731632218,216.86733707188978 41.49311667098664,217.8042584179202 41.49311667098664,219.76327070849948 41.688302846159786,220.6150130435417 41.45407943613827,221.55192811478628 41.688302846159786,222.61660242785 41.64926561131142,224.1923166939232 41.53215390606783,224.61818465279066 41.84445178648457,225.42733288183808 41.84445178648457,225.85319990091375 41.57119114114903,226.23647994096973 41.72734008124098,226.5345864573901 41.883489021565765,228.4083952094952 41.49311667098664,229.08977865465567 41.53215390606783,230.40995671899873 41.883489021565765,232.24116629737546 41.72734008124098,234.37047222620458 41.96156349172816,235.86098155600484 41.883489021565765,236.24425474216696 42.00060072657652,236.28684063546825 41.84445178648457,236.84045695431996 41.688302846159786,236.9256286470627 41.76637731632218,237.43665853131097 41.45407943613827,238.2457882273011 41.57119114114903,238.79940260841977 41.37600496574305,239.73628723644651 41.688302846159786,240.07697216697852 41.37600496574305,241.78039370878832 41.37600496574305,242.75985874779872 41.02466985024512,243.31346866383683 41.64926561131142,243.65415141699486 41.84445178648457,244.12258986389497 41.80541455140337,245.9963397309184 41.96156349172816,246.20926545522525 41.84445178648457,246.89062722885865 41.92252625664696,247.57198817303288 41.84445178648457,248.04042334100814 42.00060072657652,248.67919793823967 41.92252625664696,248.93470757312025 41.336967730894685,249.6160660290334 40.94659538008273,249.743820647127 40.400074089411646,249.6160660290334 40.126813444076106,249.8289903763507 40.2048879142385,249.87157523608766 39.775478328578174,249.8289903763507 39.307031507836655,250.1696691637335 39.307031507836655,252.00081409304403 38.72147298208438,252.8525073680794 38.87762192217633,253.23576891902485 38.760510217165574,253.87453758736956 39.111845332663506,254.34296748100314 39.34606874291785,254.34296748100314 39.97066450375132,254.04487577595864 40.595260264584795,254.1300448506663 40.75140920490958,254.34296748100314 40.55622302973643,254.76881249863072 40.673334734747186,254.89656594075495 41.72734008124098,254.8539814632386 42.03963796189055,254.68364352098433 42.50808478239924,254.8539814632386 43.40594118856825,254.8539814632386 43.991499714553356,254.81139698257903 44.69416994554922,254.68364352098433 46.64603169821203,254.8539814632386 47.19255298888311,254.76881249863072 47.387739164056256,254.98173488589237 48.051372160203755,255.19465719224536 48.63693068595603,254.8539814632386 49.2615264467895,254.89656594075495 49.72997326753102,254.8539814632386 50.12034561811015,254.68364352098433 50.04227114771493,254.81139698257903 51.25242543453351,254.81139698257903 51.916058430681005,254.93915041498258 53.9850318885874,254.8539814632386 55.35133511549793,254.98173488589237 55.81978193600662,255.1094882794714 56.28822875674814,254.93915041498258 57.30319686816074,255.02431935374625 57.57645751349628,254.93915041498258 57.57645751349628,255.1094882794714 57.45934580848552,254.98173488589237 58.162016039248556,255.06690381813678 59.0208352105692,254.98173488589237 60.07484055683017,255.36499497905606 61.44114378397353,255.57791713954066 62.26092572021298,255.83342362529947 62.92455871612765,255.70567039697198 62.92455871612765,255.83342362529947 64.21278747287579,256.13151437797933 64.64219705830328,256.08892999446834 65.03256940911524,256.34443624690175 65.34486728953198,256.34443624690175 65.30583005445078,256.5147736838553 65.54005346470512,256.4296049718105 65.73523963987827,256.72769540699665 66.20368646061979,256.5573580349155 66.59405881119892,256.72769540699665 66.71117051644251,256.5999423828034 66.98443116154522,256.5999423828034 67.84325033286586,256.8128640736395 68.38977162353694,257.068369995628 70.26355890627019,257.28129150831955 72.215420658933,257.70713429059833 72.9180908901617,258.00522404542426 73.65979835600592,258.72915564637515 74.63572923233733,259.0698290169239 74.9089898779057,259.4530863110849 75.45551116857678,259.5382545630564 75.80684628407471,259.921511536435 76.54855374991894,260.04926380264806 76.78277716040611,260.30476824744255 77.48544739140198,260.4751044792356 78.77367614815012,261.1990328860702 80.76457513589412,262.604303003347 81.46724536688998,262.77463853545487 82.52125071361661,263.2856448206003 82.9116230639629,263.7114830353821 84.23888905579224,264.2224884654861 85.80037845810875,265.11674684571335 87.67416574060917,265.5 87.9864636210259,264.9889957359992 88.22068703128025,264.9464120263292 88.18164979643188,264.39282350518624 87.08860721485689,264.137320926151 86.89342103968374,264.2224884654861 87.01053274492733,264.26507223024964 86.85438380460255,264.2224884654861 86.93245827476494,264.2224884654861 86.58112315903418,264.00956959303585 86.34689974877983,263.4133963190543 86.54208592395298,261.75262456556084 86.46401145402342,261.4971207814815 86.58112315903418,260.7306087297329 86.73727209935896,260.21960011220654 86.58112315903418,258.8994923575956 86.89342103968374,258.2181452017394 87.01053274492733,255.7908392191748 86.26882527885027,255.70567039697198 85.683266753098,254.7262280113937 85.13674546219409,254.51330552692525 84.82444758154452,254.64105902737356 83.26295817946084,254.51330552692525 82.6383624188602,254.59847453047405 81.77954324730672,254.98173488589237 80.99879854614846,254.59847453047405 80.49131449079141,254.42813651039614 79.9447931998875,254.5558900303149 79.55442084930837,254.47072102027596 77.83678250689991,254.34296748100314 77.71967080165632,254.42813651039614 77.25122398114763,254.30038296131534 75.8458835191559,254.59847453047405 75.02610158291645,254.30038296131534 74.9089898779057,254.51330552692525 73.8549845314119,254.59847453047405 73.54268665099517,254.7262280113937 73.65979835600592,254.76881249863072 73.62076112092473,254.8539814632386 73.07423983048648,254.81139698257903 72.8400164199993,254.68364352098433 72.25445789424703,254.5558900303149 71.04430360742845,254.59847453047405 70.8100801971741,254.51330552692525 70.53681955160573,254.64105902737356 69.87318655569106,254.59847453047405 69.48281420534477,254.42813651039614 68.50688332878053,254.51330552692525 68.03843650827184,254.385551997344 67.84325033286586,254.04487577595864 67.96036203810945,253.6616147789464 67.76517586270347,253.23576891902485 67.1015428667888,253.02284586749738 66.78924498637207,252.42666089255363 66.47694710595533,249.19021709123626 66.67213328136131,248.16817831870867 66.59405881119892,247.61457320451154 66.28176093078218,246.9757973922824 66.1646492255386,245.7408287547296 66.35983540094458,244.6336131769349 66.20368646061979,242.54693171125837 66.47694710595533,241.95073557790602 66.5159843408037,241.14161123815575 66.32079816563055,240.80092695579515 66.08657475560904,239.60853033419698 66.1646492255386,237.9902737128432 66.04753752029501,237.73475908173714 66.20368646061979,236.24425474216696 66.35983540094458,236.03132522662054 66.59405881119892,235.9887393138779 66.63309604628012,235.86098155600484 66.55502157611772,235.4351221525576 66.35983540094458,235.3499502330087 66.28176093078218,235.05184841237497 66.08657475560904,234.9666764344729 66.00850028544664,234.20012804999715 66.04753752029501,231.60237293882528 66.32079816563055,230.75064732672763 65.93042581528425,230.28219768757117 66.1256119904574,228.87684641720261 66.08657475560904,228.28063572116662 66.24272369570099,227.9399436096137 66.67213328136131,227.42890505347168 66.39887263579294,226.5345864573901 66.39887263579294,225.34215943922754 66.1646492255386,224.70335820570472 66.24272369570099,222.8295370474516 66.08657475560904,222.36108077748213 66.32079816563055,221.33899300915073 66.00850028544664,220.70018720583175 66.1646492255386,219.67809640383348 65.96946305013262,219.42257341157529 66.08657475560904,218.78376542055048 65.96946305013262,217.8042584179202 65.73523963987827,217.37838527327403 65.65716516971588,215.88782671454828 65.54005346470512,208.81826633194578 65.61812793486752,208.17944623433868 65.46197899454273,207.11474445092608 65.46197899454273,204.81498168435064 65.57909069978632,204.30392200802453 65.46197899454273,202.3022671144281 65.57909069978632,202.00414768775227 65.61812793486752,201.40790835794178 65.54005346470512,201.1097884546034 65.69620240502991,200.7690797992982 65.42294175946154,200.51354817167157 65.30583005445078,200.59872539385105 65.46197899454273,200.55613678431837 65.38390452461317,199.4062431032362 65.18871834897436,199.4062431032362 65.22775558428839,199.5340091844555 65.0716066439636,199.4062431032362 64.21278747287579,199.5340091844555 63.90048959245905,199.27847699279664 63.15878212638199,199.49142049389775 63.314931066473946,199.36365440298687 62.37803742522374,199.44883180019679 61.90959060471505,199.619186555763 61.36306931381114,199.3210656994488 61.0898086684756,199.4062431032362 61.206920373486355,199.3210656994488 60.465212907409295,199.44883180019679 60.27002673223615,199.57659787178272 60.30906396755017,199.66177523657097 59.918691616971046,199.44883180019679 59.098909680731595,199.66177523657097 57.77164368890226,199.5340091844555 56.63956387224607,199.66177523657097 56.327265991829336,199.74695258846623 56.249191521666944,199.57659787178272 55.74170746584423,199.8747185919492 54.33636700408533,200.04507321782876 54.024069123668596,199.9598959113937 53.86792018334381,199.7895412595244 53.59465953800827,199.8747185919492 51.40857437485829,199.8747185919492 50.432643498526886,199.74695258846623 50.354569028597325,199.57659787178272 50.432643498526886,199.23588828273932 50.66686690878123,199.3210656994488 50.823015849106014,199.1932995695097 50.549755203770474,198.29893584316596 50.549755203770474,197.40457068695105 50.78397861402482,197.27680411943584 50.78397861402482,196.5527930185781 50.66686690878123,195.74360303234425 50.23745732312091,195.40289110905724 50.432643498526886,195.1899460515997 49.92515944270417,194.97700091311708 49.066340271616355,194.33816501134424 48.519818980712444,194.5085213231796 48.09040939528495,195.10476800598553 47.504850869299844,195.23253506960464 47.387739164056256,195.14735703042243 47.34870192920789,194.849233791203 46.88025510846637,195.0621789782308 46.64603169821203,195.0621789782308 46.2556593476329,194.7640556935803 45.86528699705377,194.72146664001048 44.186685889726505,194.9344118757581 44.03053694963455,194.80664474403602 43.75727630406618,194.80664474403602 43.28882948355749,194.04004134086426 43.48401565873064,193.57156096634571 43.40594118856825,193.61415010748897 43.28882948355749,193.44379352335818 43.2107550133951,193.52897182191373 43.171717778313905,193.82709576474736 42.78134542796761,193.78450663969852 43.01556883798912,193.95486312019057 42.93749436782673,194.04004134086426 42.898457132978365,193.61415010748897 42.898457132978365,193.78450663969852 42.78134542796761,193.61415010748897 42.5471220172476,193.52897182191373 42.78134542796761,193.6993283801421 42.93749436782673,193.3160260511504 42.93749436782673,193.44379352335818 43.13268054323271,193.40120436920552 43.01556883798912,193.40120436920552 43.09364330815151,193.78450663969852 43.05460607307032,193.86968488647835 43.01556883798912,193.57156096634571 42.97653160314076,194.21039774341625 43.09364330815151,194.08263044647174 43.01556883798912,193.82709576474736 45.04550506081432,192.33647446185932 45.51395188155584,193.14566937627387 46.64603169821203,193.6567392454599 43.171717778313905,194.33816501134424 42.31289860722609,194.04004134086426 42.46904754731804,193.82709576474736 42.39097307715565,193.61415010748897 43.09364330815151,193.78450663969852 43.2107550133951,193.61415010748897 42.93749436782673,192.9753126494761 43.13268054323271,192.5068313833035 43.13268054323271,191.39951046727947 43.40594118856825,190.20700856810436 43.32786671863869,189.14227258152096 43.09364330815151,187.56645960226888 43.13268054323271,185.56474482247722 43.2107550133951,185.22402669981238 42.93749436782673,184.54258983186446 42.703270957572386,184.7129491266969 42.625196487642825,184.5 41.336967730894685,184.62776948569808 41.21985602541827,184.92589817216503 40.94659538008273,185.05366756062722 40.94659538008273,186.07582161738537 40.71237197006121,186.24618044521776 40.868520910153165,186.6294876182219 40.75140920490958,186.71466695444542 41.1808187905699,189.2700410069374 41.10274432040751,189.2274515349418 40.82948367507197,189.95147211611038 40.673334734747186,189.90888269612333 40.517185794655234,190.12182976372424 39.81451556342654,190.29218735950417 38.13591445609927,190.33477675032918 37.58939316566102,190.0792403566884 36.65249952417798,190.0792403566884 36.69153675925918,190.24959796539042 36.4963505838532,190.24959796539042 36.4963505838532,190.37736613789457 36.262127173831686,190.59031302723452 35.87175482325256,190.12182976372424 35.83271758793853,190.16441916755866 35.05197288701311,190.12182976372424 34.85678671160713,189.86629327290575 34.895823946688324,190.0792403566884 34.85678671160713,189.95147211611038 34.54448883142322,189.90888269612333 34.27122818585485,190.24959796539042 33.880855835508555,190.0792403566884 33.685669660102576,190.12182976372424 33.685669660102576,189.99406153295422 33.17818560427986,190.41995552231674 32.28032919811085,190.67549176019384 31.577658966882154,190.54772365579265 30.914025971200317,190.71808112188592 30.32846744521521,190.54772365579265 29.938095094636083,190.63290239530033 29.274462098721415,190.46254490333376 29.469648274127394,190.20700856810436 29.23542486364022,190.20700856810436 29.196387628791854,190.12182976372424 28.806015278212726,190.50513428123668 27.908158871810883,190.59031302723452 27.67393546155654,190.50513428123668 27.47874928638339,190.84584918740438 26.85415352554992,190.54772365579265 26.3857067048084,190.59031302723452 26.307632234878838,190.41995552231674 26.073408824391663,190.46254490333376 25.91725988406688,190.63290239530033 25.09747794806026,190.67549176019384 24.941329007735476,190.931027881481 24.82421730249189,191.78281410926138 24.90229177265428,192.37906369715347 25.019403477897868,192.33647446185932 24.70710559748113,192.71977746198536 23.653100250754505,192.2512959818123 23.61406301590614,192.5068313833035 23.848286426393315,193.1882585498097 23.496951310662553,193.1882585498097 23.80924919131212,193.78450663969852 23.731174721149728,194.38075409419253" stroke="#4dd2ff" stroke-linecap="round" stroke-linejoin="round" stroke-width="0.5"><title>2022-02-26 8.4km</title></polyline><polyline fill="none" points="173.71544217597693,184.99186607418233 174.51309334754478,184.95403023954714 174.7211762618972,185.1053735605674 175.72691034781747,184.84052271852852 176.2471176336985,184.84052271852852 176.87136637652293,185.02970190584892 177.53029560518917,184.76485102350125 178.0505028909538,184.99186607418233 178.84815406252164,184.87835856180754 179.54176377691329,184.57567173536518 179.95792960561812,184.7270151715784 182.28152214898728,184.5 182.9751318632625,184.53783586915233 183.21789526334032,184.65134345929255 183.39129769196734,184.95403023954714 182.9404513775371,186.4674613759853 183.21789526334032,187.90521668700967 183.14853429188952,188.6619283381442 183.21789526334032,188.81327053011046 183.0098123489879,189.15379029358155 182.8364099203609,189.04028373165056 183.0791733204387,189.00244820531225 183.39129769196734,189.98617095552618 183.21789526334032,191.4617514302954 183.28725623467471,191.65092809739872 183.11385380616412,192.40763404598692 183.39129769196734,194.3372290006082 183.21789526334032,194.29939387744525 183.0444928347133,194.4507343528967 183.18321477761492,195.2074360391125 183.0444928347133,195.62362147553358 183.14853429188952,196.41815634106752 182.9751318632625,197.25052483804757 183.0791733204387,198.04505710309604 183.28725623467471,198.2342312648252 183.21789526334032,199.18010099304956 183.49533914902713,200.50431558914715 183.46065866341814,200.69348881478072 183.14853429188952,201.1475042629172 183.25257574906573,200.95833120986936 183.28725623467471,202.05553391505964 183.46065866341814,202.69872058177134 183.28725623467471,202.92572744196514 183.32193672051653,204.32560078895767 183.14853429188952,205.5741331508907 183.25257574906573,207.16316980382544 183.14853429188952,207.69284755951958 183.39129769196734,211.0979053703195 183.25257574906573,211.70324653954594 183.49533914902713,211.66541273810435 183.28725623467471,212.686924367561 183.42597817769274,213.48143196158344 183.21789526334032,213.93543573096395 183.39129769196734,215.52444565901533 183.49533914902713,215.67577967297984 183.77278303483035,215.63794617386884 183.91150497773197,215.86494712575222 183.77278303483035,216.31894871857367 183.56470012059435,216.58378278961754 183.91150497773197,217.87011769943638 183.73810254910495,219.6482810653979 183.39129769196734,219.9887797079282 183.25257574906573,220.7076094095537 183.39129769196734,223.01542405918008 183.53001963475253,223.01542405918008 183.56470012059435,222.90192522853613 183.59938060620334,222.97759111857158 183.66874157765415,223.84774802596075 183.84214400628116,224.37740800660686 183.80746352055576,225.13406414308702 183.42597817769274,226.836536240211 183.77278303483035,227.55535604216857 183.56470012059435,228.38767240935704 183.98086594918277,228.69033256117837 183.59938060620334,229.25781984915375 183.84214400628116,231.37643333539017 183.63406109192874,232.32224001316354 183.0791733204387,232.8897231563169 182.4896050633397,232.77622657944448 182.35088312032167,232.54923334819614 181.83067583444063,233.1167162322963 181.69195389165543,233.04105188511312 181.58791243459564,233.15454840150778 181.48387097741943,233.72203059485764 181.31046854879241,233.91119118200731 181.65727340593003,234.70566486252937 181.48387097741943,235.15964925289154 180.75558077718597,235.50013727371697 178.84815406252164,235.68929718452273 178.74411260546185,235.5758012466249 178.0505028909538,235.5758012466249 177.28753220522776,235.72712915806915 177.04476880514994,235.50013727371697 175.86563229071908,235.12181723618414 173.54203974746633,234.5921687001537 173.47267877613194,234.66783281127573 172.53630566154607,234.21384797187056 172.18950080452487,234.28951214053086 171.11440574703738,234.02468749979744 170.76760088989977,233.72203059485764 170.62887894711457,233.79769483828568 170.59419846138917,233.64636633984628 170.76760088989977,233.94902329088654 170.69823991833255,234.06251959997462 170.14335214684252,234.02468749979744 169.38038146111649,233.4950377952191 168.58273028943222,233.07888406017446 168.33996688947082,232.81405877470388 167.54231571801938,233.15454840150778 167.33423280366696,234.28951214053086 166.98742794652935,234.70566486252937 166.2244572605705,235.08398521668278 165.77361094625667,235.0461531941255 165.70424997480586,235.4623052829411 165.53084754617885,235.68929718452273 165.32276463182643,235.61363322881516 164.9759597745724,235.7649611287634 164.9759597745724,236.21894455197616 164.94127928896341,236.44593610821175 164.42107200308237,237.1269101552898 164.24766957457177,237.0890782882343 163.93554520304315,237.27823759469902 163.83150374586694,237.1269101552898 163.2072550029261,236.86208702559816 162.92981111712288,236.97558266978012 162.23620140273124,237.65655599159072 161.36918925971258,237.88354689165135 161.3345087741036,238.0727058958728 160.77962100249715,238.64018247681088 160.57153808837757,238.60235072489013 160.43281614547595,238.37536015291698 160.29409420245793,238.64018247681088 159.9819698309293,238.5645189701172 159.77388691657688,238.67801422585035 159.32304060237948,239.0941632752656 159.28836011653766,239.3589852163568 159.01091623085085,239.54814365931088 158.97623574500903,239.81296535863657 158.76815283077303,239.92646032944322 158.42134797363542,239.92646032944322 158.07454311626498,239.6616386906244 157.72773825924378,239.58597533934517 156.5832822304219,240.1156185566506 155.95903348748107,239.81296535863657 155.50818717305083,239.88862867539865 156.75668465916533,240.87225074571325 156.75668465916533,241.28839795902604 157.10348951630294,241.7423763400584 156.93008708767593,242.30984873347916 157.17285048775375,242.61250041198218 157.41561388771515,243.52045434212778 158.4560284592444,245.22286349334172 158.49070894508623,246.09298147566733 158.66411137359682,246.2821373574261 158.56006991665345,246.66044890499325 157.83177971642,246.8496045708016 157.6583772879094,246.2821373574261 157.17285048775375,246.35779968992574 156.86072611634154,247.0387601647817 154.50245308724698,249.08163599512773 154.6064945445396,249.0059740768629 154.9186189159518,249.27079074003268 155.02266037312802,249.8382545435452 155.16138231591322,250.25439425450168 154.7798969730502,250.51921025296906 154.29437017301098,250.67053361728904 154.08628725865856,250.93534939427627 153.1845946299145,251.38931896944996 152.76842880120967,251.8811188749969 152.31758248701226,252.10810328266234 151.79737520113122,252.82688655721722 150.75696062948555,253.58349940821063 150.51419722952414,253.96180540206842 149.8552680008579,254.15095829119673 149.33506071509328,254.90756912800134 148.88421440066304,254.83190809606458 149.02293634356465,254.94539963957504 148.64145100058522,255.1345521545445 148.64145100058522,254.86973861345905 148.64145100058522,254.98323014832567 148.74549245776143,254.90756912800134 148.364007114782,255.2102131403808 148.2599656577222,255.4750265002658 147.70507788623217,255.51285696870764 147.94784128619358,255.4750265002658 147.73975837184116,255.77767016741564 147.01146817172412,256.2694657338143 146.9421072002733,256.193804909155 146.24849748588167,256.9125822792412 145.1040414571762,257.78267981135286 143.2312952282373,258.9175873482891 142.71108794258907,259.10673835274065 142.22556114243343,259.52287030921434 140.87302219937555,259.97683204655186 138.82687354180962,260.9982444408233 138.3066662561614,260.73343402147293 134.38777136977296,262.32229442268726 131.8214154264424,263.0032330410613 129.49782288318966,263.5328513220302 127.72911811154336,264.1759584765241 123.6021403108025,264.8190647995507 123.08193302503787,265.008213559835 123.01257205370348,264.59208619219135 122.80448913935106,264.4407670631481 121.07046485331375,264.7812350387976 119.30176008155104,264.7812350387976 118.6775113386102,264.8947243122675 118.36538696708158,264.7812350387976 117.81049919559155,265.0838730438263 117.39433336700313,265.5 117.0822089954745,265.348681147123 116.9434870526893,265.0460433032131 116.59668219543528,264.8947243122675 115.00137985229958,264.8190647995507 114.51585305226035,264.8947243122675 115.1401017953176,264.93255406437675 114.30777013802435,264.93255406437675 110.97844350885134,264.6677457394544 110.80504108022433,264.5542564142961 110.94376302300952,264.0624690390541 106.36593890807126,262.32229442268726 106.01913405081723,261.98182476399234 106.01913405081723,261.71701486827806 109.03633630846161,255.096721657319 109.34846067999024,254.79407757584704 109.27909970853943,253.88614422632963 109.41782165144105,253.16736248260713 109.31378019438125,253.2808544059808 109.31378019438125,253.4321769301023 109.62590456567705,252.59990247749374 110.21547282312531,252.1459340073052 110.18079233728349,252.03244182499475 110.25015330861788,251.42714974860428 110.2848337944597,251.5406420690415 110.07675088010728,251.46498052499373 110.35419476579409,251.31365740235196 110.18079233728349,251.2758266144665 109.90334845159668,251.5028112985019 108.689531451324,251.69196512267808 108.44676805124618,251.61630360168056 108.86293387995102,251.46498052499373 109.03633630846161,251.23799582375796 108.48144853697158,251.08667263196548 109.41782165144105,251.20016503010993 109.45250213705003,251.08667263196548 109.07101679418702,251.16233423360973 109.10569727991242,251.01101101888344 108.96697533712722,250.97318020806415 108.96697533712722,250.82185693568317 109.00165582285263,250.97318020806415 108.58548999414779,251.42714974860428 107.78783882269636,251.20016503010993 107.82251930842176,251.04884182685055 108.23868513689376,251.04884182685055 108.03060222277418,251.20016503010993 108.20400465128478,251.46498052499373 108.48144853697158,251.57847283681622 108.44676805124618,251.6541343635763 108.23868513689376,251.57847283681622 108.5161290228134,251.31365740235196 108.62017047998961,251.01101101888344 109.14037776563782,251.04884182685055 109.24441922269762,251.6541343635763 109.24441922269762,251.16233423360973 109.48718262289185,251.6541343635763 109.34846067999024,251.69196512267808 109.86866796575487,251.46498052499373 109.76462650857866,251.57847283681622 112.053538566106,242.49900605416042 113.02459216630086,242.8773204794852 112.71246779477224,242.80165761738317 112.64310682332143,242.4611745957227 112.71246779477224,242.04502836379106 113.05927265202627,241.7423763400584 112.85118973767385,240.83441916367155 113.44075799488928,240.3426083342929 113.30203605198767,240.1156185566506 113.44075799488928,239.88862867539865 113.54479945206549,238.2240330473869 113.33671653782949,238.33752838085638 113.92628479504492,237.99704230276984 114.20372868073173,237.65655599159072 114.16904819512274,237.35390129705775 113.68352139508352,236.97558266978012 113.75288236641791,237.0890782882343 113.75288236641791,236.25677648521378 114.34245062374976,234.70566486252937 114.61989450943656,234.40300837196992 114.86265790939797,233.64636633984628 114.82797742378898,233.4193735056033 115.34818470967002,232.473568914691 115.48690665245522,231.8304207653564 115.76435053814203,231.2629364131426 115.86839199543465,231.3386010309914 116.11115539539605,230.8846131520404 116.21519685257226,230.12796576620894 116.7354041384533,229.25781984915375 116.8047651097877,228.38767240935704 116.9781675382983,228.04717951850034 116.83944559562951,227.85801670054207 116.87412608112209,227.66885381063912 117.39433336700313,226.68520562312915 117.70645773853175,225.58805727219442 118.05326259578578,224.9449002169422 118.36538696708158,224.68007059939555 118.60815036727581,224.07474522959092 118.64283085300121,223.24242164287716 118.92027473880444,222.9397581749945 118.81623328162823,222.78842637201888 118.92027473880444,222.5992615534342 118.78155279578641,222.41009666293394 118.92027473880444,222.33443068654742 119.37112105300184,221.42643807208515 119.64856493868865,220.4806106686592 119.54452348174527,220.17794551962288 119.64856493868865,219.45911505213007 119.54452348174527,219.49694826058112 119.71792591025587,218.24845086308778 119.47516251017805,217.71878435340477 119.61388445296325,216.99995033055893 119.50984299590345,216.09194797390956 119.64856493868865,215.86494712575222 119.30176008155104,215.4487786347745 119.40580153884366,215.03260979539482 119.26707959582563,214.5029398597253 119.47516251017805,214.20027107166243 119.47516251017805,213.40576462636818 119.26707959582563,212.91392666683532 119.19771862449124,212.11941816587932 119.50984299590345,211.66541273810435 119.30176008155104,211.06007152280654 119.40580153884366,210.9087361038546 119.33644056727644,210.56823124259245 119.09367716731504,210.56823124259245 119.05899668147322,210.00072262241156 119.05899668147322,209.47104732578737 119.37112105300184,209.31971142301336 119.23239911021665,209.0548734824697 119.26707959582563,208.56303121845121 118.98963571013883,208.14685661508702 118.92027473880444,208.2981928748195 118.6775113386102,207.6550134527497 118.8509137671208,206.82266237726435 118.64283085300121,205.87680719071068 118.64283085300121,205.23362463590456 118.92027473880444,204.77961291972315 119.33644056727644,204.47693821191206 120.1687722245697,204.24993206004729 122.73512816790026,204.24993206004729 124.85063779680058,203.90942263801116 126.16849625401665,203.53107856216957 126.44594013981987,203.64458181519876 127.24359131150413,203.41757528329617 127.41699374001473,203.49324413875001 128.31868636864237,203.22840309422463 130.1567521119723,203.30407197849127 130.2261130833067,203.0392308330629 130.85036182636395,203.0392308330629 131.19716668350156,203.15273419840378 131.78673494060058,202.92572744196514 133.00055194087327,203.11489974617143 134.14500796981156,203.0392308330629 134.59585428412538,203.19056864778395 135.150742055499,202.77438954665558 135.67094934138004,202.887892972416 136.43392002710607,202.58521711279172 136.8500858558109,202.66088609502185 137.23157119867392,202.4717136179388 138.13326382741798,202.58521711279172 138.6187906274572,202.4717136179388 138.514749170281,202.58521711279172 138.65347111329902,202.69872058177134 139.06963694200385,202.5473826174566 140.0406905420823,202.77438954665558 140.73430025647394,202.8500585000147 140.63025879929774,202.77438954665558 140.76898074231576,202.66088609502185 141.4625904567074,202.396044606925 141.635992885218,202.24470655046753 142.32960259960964,202.62305160530377 143.2659757140791,202.43387911393074 143.64746105694212,202.16903750496567 143.95958542835433,202.4717136179388 144.75723659992218,202.4717136179388 145.41616582870483,202.32037558447337 146.31785845721606,202.24470655046753 147.9825217720354,202.2825410689402 148.2599656577222,202.396044606925 148.4333680862328,202.32037558447337 149.12697780074086,202.35821009712527 149.4391021722695,202.20687202911358 150.30611431517173,202.16903750496567 151.38120937242638,202.20687202911358 152.00545811548363,202.35821009712527 152.66438734403346,202.16903750496567 154.57181405869778,202.24470655046753 155.75095057324506,202.16903750496567 156.93008708767593,202.05553391505964 157.41561388771515,202.16903750496567 157.76241874485277,202.13120297779096 158.1785845735576,202.0176993792702 159.21899914520327,201.97986484065768 159.8085674024187,202.2825410689402 160.71026003116276,202.0933684478514 160.91834294551518,202.32037558447337 161.09174537402578,202.35821009712527 162.34024285990745,202.13120297779096 162.58300625998527,202.396044606925 162.75640868861228,202.92572744196514 162.92981111712288,203.00139637221582 163.62342083163094,202.81222402481944 163.79682326014154,202.96356190851657 164.10894763167016,202.4717136179388 164.5597939461004,202.20687202911358 165.42680608900264,202.13120297779096 165.66956948919687,202.24470655046753 166.0510548320599,202.20687202911358 166.4325401749229,202.2825410689402 166.81402551778592,202.13120297779096 168.16656446096022,202.24470655046753 168.27060591802,201.52585015288787 168.72145223245025,201.4123464161239 170.10867166123353,200.69348881478072 170.66355943272356,200.88266196852783 170.97568380425218,200.8069927157194 171.3571691471152,200.9961658262473 171.5999325470766,200.92049659069744 172.18950080452487,201.03400043977308 172.43226420436986,200.8069927157194 172.6750276045641,200.95833120986936 173.26459586177953,200.8069927157194 173.57672023330815,200.92049659069744 173.95820557617117,200.84482734359335 174.16628849052358,200.65565417546895 174.582454319112,200.69348881478072 174.7905372332316,200.8069927157194 174.582454319112,200.84482734359335 174.7211762618972,200.84482734359335 174.4784128619358,201.18533886483056 174.4784128619358,200.88266196852783 174.6518152904464,200.88266196852783 174.51309334754478,200.88266196852783 174.582454319112,200.8069927157194 174.582454319112,201.10966965803527 175.79627131926827,198.9909271914221 175.17202257632744,198.83958809828619 174.85989820491523,198.309900909313 174.5477738333866,198.12072677645483 174.30501043319236,198.12072677645483 174.09692751907278,197.59103882141062 173.71544217597693,197.25052483804757 173.2299153759377,197.28835973664536 172.8484300330747,197.59103882141062 171.66929351864383,197.32619463230367 171.1490862328792,197.43969930210733 170.94100331841037,197.25052483804757 170.66355943272356,195.81279655871913 170.87164234707598,194.07238307778607 170.76760088989977,193.35351486163563 170.90632283268496,192.63464560586726 170.87164234707598,191.87794000288704 170.94100331841037,191.8022693792591 171.1837667186046,191.9536106150481 170.97568380425218,191.19690397527302 170.66355943272356,190.93205637921346" stroke="#4dd2ff" stroke-linecap="round" stroke-linejoin="round" stroke-width="0.5"><title>2022-02-19 10.1km</title></polyline></svg>