<?xml version="1.0" encoding="utf-8" ?>
<svg baseProfile="full" height="300mm" version="1.1" viewBox="0,0,200,300" width="200mm" xmlns="http://www.w3.org/2000/svg" xmlns:ev="http://www.w3.org/2001/xml-events" xmlns:xlink="http://www.w3.org/1999/xlink"><defs /><rect fill="#222222" height="300" width="200" x="0" y="0" /><text fill="#FFFFFF" style="font-size:12px; font-family:Arial; font-weight:bold;" x="10" y="20">Over 3km Runs</text><text fill="#FFFFFF" style="font-size:4px; font-family:Arial" x="10" y="280">ATHLETE</text><text fill="#FFFFFF" style="font-size:9px; font-family:Arial" x="10" y="290">pi-dal</text><text fill="#FFFFFF" style="font-size:4px; font-family:Arial" x="120" y="280">STATISTICS</text><text fill="#FFFFFF" style="font-size:3px; font-family:Arial" x="120" y="285">Number: 3</text><text fill="#FFFFFF" style="font-size:3px; font-family:Arial" x="120" y="290">Weekly: 1.0</text><text fill="#FFFFFF" style="font-size:3px; font-family:Arial" x="141" y="285">Total: 26.9 km</text><text fill="#FFFFFF" style="font-size:3px; font-family:Arial" x="141" y="290">Avg: 9.0 km</text><text fill="#FFFFFF" style="font-size:3px; font-family:Arial" x="167" y="285">Min: 8.3 km</text><text fill="#FFFFFF" style="font-size:3px; font-family:Arial" x="167" y="290">Max: 10.1 km</text><polyline fill="none" points="17.964411107590422,77.00277722385363 17.964411107590422,77.03098335996037 17.886849664966576,77.03098335996037 17.757580593694,76.72071574474103 17.65416533674579,76.94636494520819 17.447334822965786,76.60789109303732 17.395627194317058,76.66430342313834 17.188796680420637,76.60789109303732 17.13708905200474,76.66430342313834 17.007819980964996,76.63609725915012 16.80098946695216,76.8053342110361 16.671720395796,76.77712805772899 16.516597510315478,76.9745710855641 16.516597510315478,77.53869344253326 16.413182253483683,77.56689953786554 16.439036067575216,77.67972389762872 17.007819980964996,77.79254822302028 17.214650494745,77.905372513982 18.14538780716248,77.67972389762872 18.352218321175314,77.8207542989694 18.55904883495532,77.8207542989694 21.37711458664853,77.53869344253326 22.152729013818316,77.5104873451055 23.393712097080424,77.59510563104413 24.065911267185584,77.45407514381805 25.772263006772846,77.5104873451055 26.08250877750106,77.39766293385765 26.496169805293903,77.45407514381805 28.021544845192693,77.42586903987103 28.228375359089114,77.56689953786554 29.003989786142483,77.28483848823817 29.133258857298642,77.53869344253326 29.133258857298642,78.92078958731145 29.236674114246853,79.14643744786736 29.288381742779166,79.06181951629696 29.210820300038904,79.14643744786736 29.159112671623006,79.3438792132074 29.31423555710353,80.35929234424839 29.598627513623796,80.3310864615778 29.546919885091484,80.2464688004402 30.400095754885115,80.35929234424839 30.710341525729746,80.4439099796 31.304979253094643,80.72596862443606 31.66693265235517,80.66955691261683 31.847909352043644,80.81058617599774 32.10644749447238,80.69776276953053 32.054739865940064,80.66955691261683 32.10644749447238,80.64135105349123 32.49425470805727,80.5849393288081 32.75279285025317,80.7541744770424 32.95962336426601,80.7541744770424 33.140600063838065,80.55673346325057 33.42499202047475,80.41570410324493 33.52840727742296,80.55673346325057 34.019629747839645,80.61314519227017 34.48499840404838,80.41570410324493 35.05378231732175,80.47211585371406 35.208905202685855,80.41570410324493 35.415735716582276,80.55673346325057 35.90695818699896,80.52852759559755 35.95866581541486,80.5849393288081 36.06208107247949,80.5849393288081 36.087934886687435,80.69776276953053 36.47574210027233,80.5849393288081 37.12208745616954,80.64135105349123 37.5098946695216,80.52852759559755 37.71672518365085,80.55673346325057 37.845994254690595,80.47211585371406 39.035269709536806,80.27467468960094 39.21624640922528,80.35929234424839 39.75917650817428,80.30288057663711 39.96600702195428,80.3874982248526 40.560644749435596,80.30288057663711 41.02601340576075,80.3310864615778 41.07772103417665,80.27467468960094 41.775774018489756,80.30288057663711 42.06016597512644,80.2464688004402 42.52553463133518,80.27467468960094 42.80992658797186,80.35929234424839 43.97334822861012,80.21826290909667 44.283593999338336,80.04902751615737 44.46457069902681,80.13364522231859 45.00750079797581,80.07723342030658 45.26603894028813,80.10543932238943 45.4470156399766,80.02082160973805 45.52457708271686,80.04902751615737 45.65384615387302,79.93620387781993 45.98994573880918,80.07723342030658 46.32604532397818,80.13364522231859 46.89482923713513,80.04902751615737 47.386051707551815,80.07723342030658 47.82556654966902,79.93620387781993 48.342642834293656,79.93620387781993 48.446058091241866,79.87979204580188 49.37679540377576,79.9079979628732 49.7904564315686,79.99261570125236 50.10070220241323,79.87979204580188 50.35924034472555,79.85158612660598 51.03143951483071,79.99261570125236 51.16070858598687,80.07723342030658 52.37583785515744,79.93620387781993 53.66852856683545,79.9079979628732 53.79779763810802,79.9644097906421 54.41828917968087,79.9644097906421 55.47829556337092,79.79517428163672 56.33147143316455,79.85158612660598 57.02952441747766,79.79517428163672 57.57245451642666,79.85158612660598 57.46903925947845,79.8233802052273 59.20124481327366,79.71055649817572 59.58905202685855,79.5131149282679 59.89929779758677,79.5131149282679 60.1578359400155,79.23105536017101 60.545643153600395,79.20284939158591 60.72661985317245,79.20284939158591 61.26954995212145,79.45670303187217 61.42467283748556,79.45670303187217 61.60564953717403,79.4002911268326 61.91589530790225,79.45670303187217 62.04516437917482,79.4002911268326 62.56224066391587,79.3438792132074 63.286147462553345,79.45670303187217 63.518831790657714,79.37208517108229 64.13932333223056,79.4002911268326 65.12176827329677,79.28746729099657 65.71640600066166,79.14643744786736 65.84567507181782,79.20284939158591 66.07835939992219,79.20284939158591 66.31104372814298,79.31567325314973 66.77641238435172,79.4002911268326 67.3193424831843,79.37208517108229 67.50031918287277,79.3438792132074 67.57788062561303,79.23105536017101 67.81056495360099,79.23105536017101 67.99154165340587,79.28746729099657 69.02569422277156,79.31567325314973 69.10325566551182,79.37208517108229 68.81886370887514,79.5131149282679 68.71544845192693,79.73876242816914 68.81886370887514,79.87979204580188 69.05154803697951,79.85158612660598 69.3876476221485,80.02082160973805 69.80130864982493,80.64135105349123 69.95643153518904,81.57214327066322 69.93057772098109,81.74137796807918 70.08570060646161,83.49013198149623 70.18911586340982,84.02603881742107 70.08570060646161,84.70297266013222 70.21496967761777,85.01323359139496 70.34423874877393,85.04143911777646 70.37009256298188,84.95682253237464 71.37839131825604,84.27988915331662 71.6110756463604,84.13886121037649 71.68863708910067,84.16706680328934 71.92132141720504,83.77218830754282 72.25742100225762,83.80039392830804 73.39498882857151,83.01063573450665 74.66182572604157,82.27728733306867 77.32476859237067,80.55673346325057 77.84184487711173,80.3310864615778 77.94526013405994,80.16185112003586 78.33306734764483,80.07723342030658 78.5657516757492,79.8233802052273 79.08282796037383,79.62593869536067 80.60820300038904,78.72334759656223 83.40041493775789,77.56689953786554 83.94334503659047,77.22842625252088 85.08091286302079,76.72071574474103 85.36530481965747,76.41044786968268 85.62384296196979,76.24121073746937 85.727258218918,76.01556110751699 85.727258218918,76.10017973484355 85.83067347598262,76.07197352792718 86.14091924671084,75.90273624105612 86.16677306091879,75.81811756864772 86.37360357469879,75.84632379494724 86.9165336737642,75.507848937792 87.12336418766063,75.4514364314964 87.25263325870037,75.28219886127044 86.99409511650447,74.77448568656109 87.20092563028447,74.2103591208579 87.01994893071242,73.50519970580353 87.12336418766063,73.42058048592298 88.0541015000781,73.1949291380588 88.3384934568312,72.99748409600579 88.49361634219531,72.7718324905436 88.75215448450763,72.63080016733147 89.01069262693636,72.57438722302322 89.26923076924868,72.32052886727615 89.83801468240563,71.50253964887816 90.19996808166616,70.51530887672561 90.40679859556258,70.23324245860567 90.613629109459,69.81014242878882 90.6653367378749,69.81014242878882 90.71704436640721,69.92296915061888 90.92387488030363,69.95117582572857 91.33753590809647,70.26144911002484 91.44095116504468,70.26144911002484 91.80290456430521,70.12041583124665 92.00973507820163,69.92296915061888 92.19071177777369,69.89476247344282 92.2941270347219,69.78193574291072 92.42339610587806,69.81014242878882 92.73364187672269,69.6691089781234 93.12144909030758,69.30242175512831 93.30242578987963,69.24600830403506 93.69023300346453,69.27421503068763 94.18145547399763,69.10497463861248 94.36243217356969,68.90752741682809 94.59511650179047,68.20235790865263 94.82780082977843,68.11773747744155 94.93121608684305,68.20235790865263 95.0087775294669,68.20235790865263 95.16390041494742,67.97670338250464 95.31902330031153,67.94849655710277 95.4482923715841,67.86387606788776 95.42243855725974,67.5536007755727 95.5,67.4971870581503 95.5,67.3561527269776 95.37073092884384,67.24332522336044 95.26731567177922,66.96125631409814 95.29316948598716,66.65098026575288 95.21560804336332,66.45353173607145 94.9053622726351,65.80477154045366 94.69853175873868,65.55090854593436 94.23316310252994,65.21242428268306 93.9229173315689,65.07138908165507 93.19901053304784,64.95856088219443 92.91461857652757,64.98676793530467 91.93217363546137,65.26883834801265 91.80290456430521,65.29704537751968 91.80290456430521,65.24063131641014 91.44095116504468,65.40987347386545 91.13070539420005,65.43808049254585 87.8472709862981,66.22787614475237 87.71800191514194,66.31249700763146 87.71800191514194,66.25608310117968 85.26188956270926,66.87663559941575 84.40871369291563,66.9894632146461 84.22773699322715,67.24332522336044 83.21943823806942,67.3561527269776 83.03846153849736,67.46898019625223 82.98675390996505,67.61001448440948 82.98675390996505,67.5253939179238 82.88333865313325,67.4971870581503 82.44382381113246,67.61001448440948 82.23699329723604,67.5253939179238 81.69406319817062,67.5536007755727 81.64235556975473,67.5253939179238 80.97015639964957,67.5536007755727 80.71161825722083,67.41256646587863 79.44478135975078,67.46898019625223 79.3672199168941,67.4971870581503 79.39307373121846,67.58180763109704 79.23795084573794,67.4971870581503 78.25550590490457,67.4971870581503 77.76428343448788,67.44077333211317 77.60916054889094,67.46898019625223 74.79109479731414,67.41256646587863 74.24816469836514,67.46898019625223 73.3432812000392,67.3561527269776 71.5076603894122,67.5253939179238 70.78375359077472,67.46898019625223 70.55106926267035,67.29973897952004 70.24082349182572,67.18691145873163 70.08570060646161,67.21511834210833 69.90472390677314,67.3561527269776 69.93057772098109,67.29973897952004 69.72374720708467,67.24332522336044 69.20667092246003,67.29973897952004 68.89642515149899,67.61001448440948 68.68959463760257,67.72284187638434 67.81056495360099,67.63822133562644 67.34519629750866,67.66642818468972 67.08665815507993,67.77925555943511 66.00079795729835,67.77925555943511 65.92323651455808,67.80746239767177 65.76811362907756,68.089530662779 65.53542930097319,68.17415110036382 65.35445260140114,68.20235790865263 65.17347590171266,68.06132384593366 65.07006064464804,67.80746239767177 64.81152250233572,67.86387606788776 63.98420044675004,67.83566923390026 63.415416533709504,67.97670338250464 62.8724864347605,67.92028972954722 62.51053303538356,67.97670338250464 61.55394190864172,68.03311702693463 61.14028088096529,67.97670338250464 60.93345036706887,67.66642818468972 60.93345036706887,67.75104871895746 60.57149696780834,67.69463503157021 60.23539738263935,67.77925555943511 60.106128311599605,67.83566923390026 59.95100542611908,68.03311702693463 58.47733801463619,68.20235790865263 58.06367698684335,68.17415110036382 57.41733163094614,68.28697832050966 56.12464091926813,68.31518512012553 55.400734120747074,68.42801229731413 54.39243536547292,68.39980550625478 53.59096712409519,68.54083944007289 52.97047558252234,68.71008008983335 51.884615384507924,68.65366654848913 51.34168528567534,68.68187332028174 51.28997765714303,68.59725299858837 51.28997765714303,68.65366654848913 50.95387807209045,68.82290714670671 50.56607085862197,68.79470038574073 50.22997127356939,68.71008008983335 50.25582508777734,68.68187332028174 50.10070220241323,68.76649362262106 49.764602617244236,68.7382868572895 49.01484200451523,68.82290714670671 48.575327162398025,68.79470038574073 48.31678902020212,68.85111390554812 47.82556654966902,68.82290714670671 47.024098308291286,68.90752741682809 46.145068624289706,68.85111390554812 45.67969996808097,69.07676789912512 45.21433131187223,68.85111390554812 45.059208426391706,68.87932066235226 45.13676986913197,68.87932066235226 45.059208426391706,68.79470038574073 44.3094478136627,68.85111390554812 44.07676348555833,68.96394091955153 43.97334822861012,69.07676789912512 43.999202042701654,68.99214766765363 43.94749441428576,69.02035441357293 43.766517714597285,68.99214766765363 43.58554101502523,69.13318137594615 42.318704117438756,69.16138811121345 41.594797318801284,69.27421503068763 41.31040536228102,69.24600830403506 40.25039897870738,69.33062847753172 39.88844557933044,69.30242175512831 39.940153207746334,69.2178015751997 39.733322693849914,69.33062847753172 39.733322693849914,69.2178015751997 39.293807851849124,69.24600830403506 39.371369294589385,69.24600830403506 39.164538780692965,69.30242175512831 37.76843281206675,69.38704191576107 37.380625598481856,69.30242175512831 36.113788700895384,69.4434553454048 35.95866581541486,69.38704191576107 35.441589530790225,69.38704191576107 35.26061283110175,69.47166205701069 34.82109798921738,69.47166205701069 34.665975103736855,69.55628217893536 34.27816789015196,69.52807547379052 33.29572294931859,69.58448888192652 33.037184806889854,69.52807547379052 32.907915735733695,69.58448888192652 32.2615703799529,69.55628217893536 31.796201723627746,69.6691089781234 31.149856367730536,69.69731567258714 30.994733482366428,69.75372905493714 30.86546441121027,69.92296915061888 30.73619533982128,70.14862249125144 30.658633897197433,70.57172213451122 30.658633897197433,71.41791997148539 30.762049154145643,72.20770287557389 30.68448771140538,72.63080016733147 30.787902968353592,73.39237407490145 30.73619533982128,73.6180253024504 30.839610596885905,74.60524780699052 30.68448771140538,75.33861139323562 30.710341525729746,76.29762312347884 30.762049154145643,76.38224168636953 30.917172039626166,76.32582931328216 30.968879668042064,76.35403550093179 30.968879668042064,76.29762312347884 30.73619533982128,77.25663237142726 30.891318225301802,76.83354036213132 30.839610596885905,77.45407514381805 30.787902968353592,77.53869344253326 30.81375678256154,77.73613606463186 30.73619533982128,77.73613606463186 30.86546441121027,78.94899557734607 30.787902968353592,79.14643744786736 30.839610596885905,80.2464688004402 30.787902968353592,80.30288057663711 30.68448771140538,80.27467468960094 30.348388126352802,80.35929234424839 29.650335142039694,80.30288057663711 29.650335142039694,80.13364522231859 29.469358442351222,80.19005701562855 28.82301308645401,80.61314519227017 28.564474944141693,80.61314519227017 28.51276731560938,80.55673346325057 28.331790616037324,80.5849393288081 28.331790616037324,80.64135105349123 27.918129588360898,80.61314519227017 27.530322374776006,80.69776276953053 27.452760932035744,80.78238032758236 27.452760932035744,80.72596862443606 27.090807532775216,80.81058617599774 26.677146504982375,80.66955691261683 26.392754548345692,80.86699786628014 26.16007022035774,80.92340954803512 26.03080114896875,80.83879202223034 25.125917650875635,80.83879202223034 25.022502393927425,80.78238032758236 24.427864666446112,80.86699786628014 24.376157038030215,80.81058617599774 24.246887966874056,80.89520370817627 23.781519310665317,80.92340954803512 23.212735397391953,81.12085036645294 22.7473667410668,81.00802705454407 22.669805298442952,80.89520370817627 22.437120970338583,81.00802705454407 22.437120970338583,81.09264454169897 21.687360357493162,81.03623288570088 21.17028407275211,81.09264454169897 20.704915416426957,81.00802705454407 20.575646345270798,81.09264454169897 20.394669645815156,81.06443871476222 19.61905521864537,81.14905618908233 19.205394190968946,81.12085036645294 18.791733163176104,81.23367364399019 18.53319502074737,81.20546782788006 18.429779763682745,81.26187945803395 17.912703479174525,81.29008526995312 17.473188637173735,81.26187945803395 17.36977338010911,81.31829107963131 16.981966166640632,81.29008526995312 16.38732843915932,81.37470269270125 16.206351739587262,81.31829107963131 16.128790296847,81.20546782788006 16.154644111171365,81.37470269270125 16.36147462495137,81.20546782788006 16.439036067575216,81.26187945803395 16.309766996419057,81.31829107963131 16.25805936800316,81.26187945803395 16.206351739587262,81.43111429712735 15.766836897586472,81.79778951659682 16.077082668431103,81.65676062900457 16.206351739587262,81.45932009615353 16.23220555379521,81.65676062900457 16.206351739587262,81.40290849597659 16.102936482639052,81.31829107963131 16.102936482639052,81.40290849597659 16.180497925379314,81.31829107963131 16.180497925379314,81.76958374335663 16.02537503989879,81.51573168762843 16.077082668431103,81.93881835057982 16.180497925379314,82.07984713083715 16.46488988189958,81.62855484499596 15.92195978295058,81.43111429712735 15.094637727364898,81.31829107963131 14.939514842117205,81.09264454169897 14.655122885364108,80.86699786628014 14.629269071156159,80.72596862443606 14.5,80.61314519227017 14.525853814324364,79.45670303187217 14.629269071156159,79.09002549562138 14.655122885364108,78.2720512226224 14.965368656208739,77.87716644449392 15.223906798637472,77.79254822302028 16.077082668431103,77.65151781094028 16.23220555379521,77.73613606463186 16.38732843915932,77.67972389762872 16.439036067575216,77.45407514381805 16.36147462495137,77.36945682566147 16.36147462495137,77.2002201314317 16.490743696223944,77.00277722385363 16.90440472390037,76.8053342110361 17.240504309069365,76.8053342110361 17.602457708097063,76.69250958500197 17.68001915095374,76.7489219023264 17.628311522421427,76.69250958500197 17.602457708097063,76.7489219023264 17.628311522421427,76.69250958500197 17.31806575169321,76.52327258163132" stroke="#4dd2ff" stroke-linecap="round" stroke-linejoin="round" stroke-width="0.5"><title>2022-03-05 8.3km</title></polyline><polyline fill="none" points="113.73117472114973,43.91227400492062 113.10657896031626,44.167808647674974 112.67716937465593,44.21039774341625 112.05257361382246,44.59369945965591 112.09161084890366,45.18994605159969 111.77931296848692,45.53065810460248 111.77931296848692,45.82878098075162 112.09161084890366,46.297259465151 112.95043001975864,46.12690369805205 113.73117472114973,45.82878098075162 114.47288218699396,45.87136995009496 115.13651518314146,45.53065810460248 115.48785029840656,45.743603032344254 116.07340882439166,45.53065810460248 116.89319076063111,46.04172579495935 116.69800458522514,45.87136995009496 116.58089287998155,45.91395891614957 116.85415352554992,45.44548011079314 117.20548864081502,45.786192008206854 117.83008440188132,45.70101405328023 119.82098338962533,45.95654787903186 120.56269085570239,45.6158360853733 121.14824938145466,45.743603032344254 121.69477067212574,46.1694926446653 122.00706855277531,46.12690369805205 122.12418025778607,46.21208158801892 122.24129196302965,45.70101405328023 122.12418025778607,45.48806910926942 121.92899408261292,45.6158360853733 121.88995684776455,45.82878098075162 122.00706855277531,46.08431474817917 122.0851430229377,45.95654787903186 122.24129196302965,46.33984839878394 122.70973878353834,45.87136995009496 123.29529730952345,45.6158360853733 124.03700477536768,45.743603032344254 124.15411648061126,46.04172579495935 124.19315371569246,45.786192008206854 124.46641436126083,45.91395891614957 125.09101012186147,45.70101405328023 125.83271758793853,45.65842507101479 126.53538781916723,45.743603032344254 127.00383463967592,45.53065810460248 127.74554210575297,45.70101405328023 129.34606874291785,45.48806910926942 129.58029215340503,45.65842507101479 130.1658506791573,45.317713095777435 130.82948367507197,45.40289110905724 131.0637070853263,45.062178978230804 131.37600496574305,45.23253506960464 131.57119114114903,46.08431474817917 131.1808187905699,46.510204101126874 131.0637070853263,47.19162639140268 130.90755814523436,47.27680411943584 130.90755814523436,48.298935843165964 130.55622302973643,48.298935843165964 130.4781485593412,48.68223475807463 130.90755814523436,49.15071085313684 130.86852091015317,50.04507321782876 131.1808187905699,51.15237702202285 131.21985602541827,51.024611310334876 131.84445178648457,51.91897067951504 131.80541455140337,52.81332861908595 131.53215390606783,53.62250838012551 131.21985602541827,54.133568678895244 130.82948367507197,54.43168697092915 131.0637070853263,54.51686359656742 131.21985602541827,55.2834526442748 131.21985602541827,55.79451142580365 130.94659538008273,56.26298156558187 131.0637070853263,57.79615382576594 131.21985602541827,58.90344228979666 130.98563261539675,59.92555277328938 131.14178155525587,60.479195172170876 131.0637070853263,61.799417143600294 131.37600496574305,62.480820813187165 131.41504220082425,63.5455123858701 131.0637070853263,63.92880085602519 131.1808187905699,64.52502684335923 131.29793049558066,64.31208906372194 131.0637070853263,65.41936463327147 131.53215390606783,66.22852616375894 131.49311667098664,66.9525118044694 131.76637731632218,66.86733707188978 131.49311667098664,67.80425841792021 131.49311667098664,69.76327070849948 131.6883028461598,70.6150130435417 131.45407943613827,71.55192811478628 131.6883028461598,72.61660242785001 131.64926561131142,74.1923166939232 131.53215390606783,74.61818465279066 131.84445178648457,75.42733288183808 131.84445178648457,75.85319990091375 131.57119114114903,76.23647994096973 131.72734008124098,76.5345864573901 131.88348902156577,78.40839520949521 131.49311667098664,79.08977865465567 131.53215390606783,80.40995671899873 131.88348902156577,82.24116629737546 131.72734008124098,84.37047222620458 131.96156349172816,85.86098155600484 131.88348902156577,86.24425474216696 132.00060072657652,86.28684063546825 131.84445178648457,86.84045695431996 131.6883028461598,86.9256286470627 131.76637731632218,87.43665853131097 131.45407943613827,88.24578822730109 131.57119114114903,88.79940260841977 131.37600496574305,89.73628723644651 131.6883028461598,90.07697216697852 131.37600496574305,91.78039370878832 131.37600496574305,92.75985874779872 131.02466985024512,93.31346866383683 131.64926561131142,93.65415141699486 131.84445178648457,94.12258986389497 131.80541455140337,95.99633973091841 131.96156349172816,96.20926545522525 131.84445178648457,96.89062722885865 131.92252625664696,97.57198817303288 131.84445178648457,98.04042334100814 132.00060072657652,98.67919793823967 131.92252625664696,98.93470757312025 131.33696773089468,99.61606602903339 130.94659538008273,99.743820647127 130.40007408941165,99.61606602903339 130.1268134440761,99.8289903763507 130.2048879142385,99.87157523608766 129.77547832857817,99.8289903763507 129.30703150783665,100.16966916373349 129.30703150783665,102.00081409304403 128.72147298208438,102.85250736807939 128.87762192217633,103.23576891902485 128.76051021716557,103.87453758736956 129.1118453326635,104.34296748100314 129.34606874291785,104.34296748100314 129.97066450375132,104.04487577595864 130.5952602645848,104.13004485066631 130.75140920490958,104.34296748100314 130.55622302973643,104.76881249863072 130.6733347347472,104.89656594075495 131.72734008124098,104.8539814632386 132.03963796189055,104.68364352098433 132.50808478239924,104.8539814632386 133.40594118856825,104.8539814632386 133.99149971455336,104.81139698257903 134.69416994554922,104.68364352098433 136.64603169821203,104.8539814632386 137.1925529888831,104.76881249863072 137.38773916405626,104.98173488589237 138.05137216020375,105.19465719224536 138.63693068595603,104.8539814632386 139.2615264467895,104.89656594075495 139.72997326753102,104.8539814632386 140.12034561811015,104.68364352098433 140.04227114771493,104.81139698257903 141.2524254345335,104.81139698257903 141.916058430681,104.93915041498258 143.9850318885874,104.8539814632386 145.35133511549793,104.98173488589237 145.81978193600662,105.1094882794714 146.28822875674814,104.93915041498258 147.30319686816074,105.02431935374625 147.57645751349628,104.93915041498258 147.57645751349628,105.1094882794714 147.45934580848552,104.98173488589237 148.16201603924856,105.06690381813678 149.0208352105692,104.98173488589237 150.07484055683017,105.36499497905606 151.44114378397353,105.57791713954066 152.26092572021298,105.83342362529947 152.92455871612765,105.70567039697198 152.92455871612765,105.83342362529947 154.2127874728758,106.13151437797933 154.64219705830328,106.08892999446834 155.03256940911524,106.34443624690175 155.34486728953198,106.34443624690175 155.30583005445078,106.51477368385531 155.54005346470512,106.42960497181048 155.73523963987827,106.72769540699665 156.2036864606198,106.55735803491552 156.59405881119892,106.72769540699665 156.7111705164425,106.59994238280342 156.98443116154522,106.59994238280342 157.84325033286586,106.8128640736395 158.38977162353694,107.06836999562802 160.2635589062702,107.28129150831955 162.215420658933,107.70713429059833 162.9180908901617,108.00522404542426 163.65979835600592,108.72915564637515 164.63572923233733,109.0698290169239 164.9089898779057,109.45308631108492 165.45551116857678,109.5382545630564 165.8068462840747,109.92151153643499 166.54855374991894,110.04926380264806 166.7827771604061,110.30476824744255 167.48544739140198,110.4751044792356 168.77367614815012,111.1990328860702 170.76457513589412,112.60430300334701 171.46724536688998,112.77463853545487 172.5212507136166,113.28564482060028 172.9116230639629,113.71148303538212 174.23888905579224,114.2224884654861 175.80037845810875,115.11674684571335 177.67416574060917,115.5 177.9864636210259,114.9889957359992 178.22068703128025,114.9464120263292 178.18164979643188,114.39282350518624 177.0886072148569,114.137320926151 176.89342103968374,114.2224884654861 177.01053274492733,114.26507223024964 176.85438380460255,114.2224884654861 176.93245827476494,114.2224884654861 176.58112315903418,114.00956959303585 176.34689974877983,113.4133963190543 176.54208592395298,111.75262456556084 176.46401145402342,111.4971207814815 176.58112315903418,110.73060872973292 176.73727209935896,110.21960011220654 176.58112315903418,108.89949235759559 176.89342103968374,108.21814520173939 177.01053274492733,105.79083921917481 176.26882527885027,105.70567039697198 175.683266753098,104.72622801139369 175.13674546219409,104.51330552692525 174.82444758154452,104.64105902737356 173.26295817946084,104.51330552692525 172.6383624188602,104.59847453047405 171.77954324730672,104.98173488589237 170.99879854614846,104.59847453047405 170.4913144907914,104.42813651039614 169.9447931998875,104.55589003031491 169.55442084930837,104.47072102027596 167.8367825068999,104.34296748100314 167.71967080165632,104.42813651039614 167.25122398114763,104.30038296131534 165.8458835191559,104.59847453047405 165.02610158291645,104.30038296131534 164.9089898779057,104.51330552692525 163.8549845314119,104.59847453047405 163.54268665099517,104.72622801139369 163.65979835600592,104.76881249863072 163.62076112092473,104.8539814632386 163.07423983048648,104.81139698257903 162.8400164199993,104.68364352098433 162.25445789424703,104.55589003031491 161.04430360742845,104.59847453047405 160.8100801971741,104.51330552692525 160.53681955160573,104.64105902737356 159.87318655569106,104.59847453047405 159.48281420534477,104.42813651039614 158.50688332878053,104.51330552692525 158.03843650827184,104.38555199734401 157.84325033286586,104.04487577595864 157.96036203810945,103.66161477894639 157.76517586270347,103.23576891902485 157.1015428667888,103.02284586749738 156.78924498637207,102.42666089255363 156.47694710595533,99.19021709123626 156.6721332813613,98.16817831870867 156.59405881119892,97.61457320451154 156.28176093078218,96.9757973922824 156.1646492255386,95.74082875472959 156.35983540094458,94.63361317693489 156.2036864606198,92.54693171125837 156.47694710595533,91.95073557790602 156.5159843408037,91.14161123815575 156.32079816563055,90.80092695579515 156.08657475560904,89.60853033419698 156.1646492255386,87.99027371284319 156.047537520295,87.73475908173714 156.2036864606198,86.24425474216696 156.35983540094458,86.03132522662054 156.59405881119892,85.98873931387789 156.63309604628012,85.86098155600484 156.55502157611772,85.4351221525576 156.35983540094458,85.34995023300871 156.28176093078218,85.05184841237497 156.08657475560904,84.9666764344729 156.00850028544664,84.20012804999715 156.047537520295,81.60237293882528 156.32079816563055,80.75064732672763 155.93042581528425,80.28219768757117 156.1256119904574,78.87684641720261 156.08657475560904,78.28063572116662 156.242723695701,77.93994360961369 156.6721332813613,77.42890505347168 156.39887263579294,76.5345864573901 156.39887263579294,75.34215943922754 156.1646492255386,74.70335820570472 156.242723695701,72.8295370474516 156.08657475560904,72.36108077748213 156.32079816563055,71.33899300915073 156.00850028544664,70.70018720583175 156.1646492255386,69.67809640383348 155.96946305013262,69.42257341157529 156.08657475560904,68.78376542055048 155.96946305013262,67.80425841792021 155.73523963987827,67.37838527327403 155.65716516971588,65.88782671454828 155.54005346470512,58.81826633194578 155.61812793486752,58.179446234338684 155.46197899454273,57.11474445092608 155.46197899454273,54.81498168435064 155.57909069978632,54.30392200802453 155.46197899454273,52.302267114428105 155.57909069978632,52.004147687752265 155.61812793486752,51.40790835794178 155.54005346470512,51.109788454603404 155.6962024050299,50.7690797992982 155.42294175946154,50.51354817167157 155.30583005445078,50.598725393851055 155.46197899454273,50.55613678431837 155.38390452461317,49.40624310323619 155.18871834897436,49.40624310323619 155.2277555842884,49.5340091844555 155.0716066439636,49.40624310323619 154.2127874728758,49.5340091844555 153.90048959245905,49.27847699279664 153.158782126382,49.49142049389775 153.31493106647395,49.36365440298687 152.37803742522374,49.448831800196785 151.90959060471505,49.61918655576301 151.36306931381114,49.32106569944881 151.0898086684756,49.40624310323619 151.20692037348635,49.32106569944881 150.4652129074093,49.448831800196785 150.27002673223615,49.576597871782724 150.30906396755017,49.661775236570975 149.91869161697105,49.448831800196785 149.0989096807316,49.661775236570975 147.77164368890226,49.5340091844555 146.63956387224607,49.661775236570975 146.32726599182934,49.74695258846623 146.24919152166694,49.576597871782724 145.74170746584423,49.874718591949204 144.33636700408533,50.04507321782876 144.0240691236686,49.95989591139369 143.8679201833438,49.78954125952441 143.59465953800827,49.874718591949204 141.4085743748583,49.874718591949204 140.4326434985269,49.74695258846623 140.35456902859733,49.576597871782724 140.4326434985269,49.235888282739324 140.66686690878123,49.32106569944881 140.823015849106,49.19329956950969 140.54975520377047,48.298935843165964 140.54975520377047,47.40457068695105 140.78397861402482,47.27680411943584 140.78397861402482,46.552793018578086 140.66686690878123,45.743603032344254 140.2374573231209,45.40289110905724 140.4326434985269,45.18994605159969 139.92515944270417,44.97700091311708 139.06634027161635,44.338165011344245 138.51981898071244,44.50852132317959 138.09040939528495,45.104768005985534 137.50485086929984,45.23253506960464 137.38773916405626,45.14735703042243 137.3487019292079,44.849233791203005 136.88025510846637,45.062178978230804 136.64603169821203,45.062178978230804 136.2556593476329,44.7640556935803 135.86528699705377,44.721466640010476 134.1866858897265,44.93441187575809 134.03053694963455,44.80664474403602 133.75727630406618,44.80664474403602 133.2888294835575,44.04004134086426 133.48401565873064,43.571560966345714 133.40594118856825,43.61415010748897 133.2888294835575,43.44379352335818 133.2107550133951,43.52897182191373 133.1717177783139,43.827095764747355 132.7813454279676,43.78450663969852 133.01556883798912,43.954863120190566 132.93749436782673,44.04004134086426 132.89845713297836,43.61415010748897 132.89845713297836,43.78450663969852 132.7813454279676,43.61415010748897 132.5471220172476,43.52897182191373 132.7813454279676,43.699328380142106 132.93749436782673,43.3160260511504 132.93749436782673,43.44379352335818 133.1326805432327,43.401204369205516 133.01556883798912,43.401204369205516 133.0936433081515,43.78450663969852 133.05460607307032,43.86968488647835 133.01556883798912,43.571560966345714 132.97653160314076,44.21039774341625 133.0936433081515,44.08263044647174 133.01556883798912,43.827095764747355 135.04550506081432,42.336474461859325 135.51395188155584,43.14566937627387 136.64603169821203,43.6567392454599 133.1717177783139,44.338165011344245 132.3128986072261,44.04004134086426 132.46904754731804,43.827095764747355 132.39097307715565,43.61415010748897 133.0936433081515,43.78450663969852 133.2107550133951,43.61415010748897 132.93749436782673,42.97531264947611 133.1326805432327,42.506831383303506 133.1326805432327,41.39951046727947 133.40594118856825,40.20700856810436 133.3278667186387,39.142272581520956 133.0936433081515,37.56645960226888 133.1326805432327,35.56474482247722 133.2107550133951,35.224026699812384 132.93749436782673,34.54258983186446 132.70327095757239,34.71294912669691 132.62519648764282,34.5 131.33696773089468,34.62776948569808 131.21985602541827,34.925898172165034 130.94659538008273,35.05366756062722 130.94659538008273,36.07582161738537 130.7123719700612,36.24618044521776 130.86852091015317,36.6294876182219 130.75140920490958,36.71466695444542 131.1808187905699,39.27004100693739 131.1027443204075,39.22745153494179 130.82948367507197,39.95147211611038 130.6733347347472,39.90888269612333 130.51718579465523,40.121829763724236 129.81451556342654,40.29218735950417 128.13591445609927,40.33477675032918 127.58939316566102,40.07924035668839 126.65249952417798,40.07924035668839 126.69153675925918,40.24959796539042 126.4963505838532,40.24959796539042 126.4963505838532,40.37736613789457 126.26212717383169,40.590313027234515 125.87175482325256,40.121829763724236 125.83271758793853,40.16441916755866 125.05197288701311,40.121829763724236 124.85678671160713,39.86629327290575 124.89582394668832,40.07924035668839 124.85678671160713,39.95147211611038 124.54448883142322,39.90888269612333 124.27122818585485,40.24959796539042 123.88085583550856,40.07924035668839 123.68566966010258,40.121829763724236 123.68566966010258,39.99406153295422 123.17818560427986,40.41995552231674 122.28032919811085,40.675491760193836 121.57765896688215,40.54772365579265 120.91402597120032,40.718081121885916 120.32846744521521,40.54772365579265 119.93809509463608,40.632902395300334 119.27446209872141,40.462544903333765 119.4696482741274,40.20700856810436 119.23542486364022,40.20700856810436 119.19638762879185,40.121829763724236 118.80601527821273,40.50513428123668 117.90815887181088,40.590313027234515 117.67393546155654,40.50513428123668 117.47874928638339,40.84584918740438 116.85415352554992,40.54772365579265 116.3857067048084,40.590313027234515 116.30763223487884,40.41995552231674 116.07340882439166,40.462544903333765 115.91725988406688,40.632902395300334 115.09747794806026,40.675491760193836 114.94132900773548,40.931027881480986 114.82421730249189,41.78281410926138 114.90229177265428,42.37906369715347 115.01940347789787,42.336474461859325 114.70710559748113,42.71977746198536 113.6531002507545,42.25129598181229 113.61406301590614,42.506831383303506 113.84828642639332,43.18825854980969 113.49695131066255,43.18825854980969 113.80924919131212,43.78450663969852 113.73117472114973,44.380754094192525" stroke="#4dd2ff" stroke-linecap="round" stroke-linejoin="round" stroke-width="0.5"><title>2022-02-26 8.4km</title></polyline><polyline fill="none" points="83.71544217597693,184.99186607418233 84.51309334754478,184.95403023954714 84.7211762618972,185.1053735605674 85.72691034781747,184.84052271852852 86.24711763369851,184.84052271852852 86.87136637652293,185.02970190584892 87.53029560518917,184.76485102350125 88.0505028909538,184.99186607418233 88.84815406252164,184.87835856180754 89.54176377691329,184.57567173536518 89.95792960561812,184.7270151715784 92.28152214898728,184.5 92.9751318632625,184.53783586915233 93.21789526334032,184.65134345929255 93.39129769196734,184.95403023954714 92.9404513775371,186.4674613759853 93.21789526334032,187.90521668700967 93.14853429188952,188.6619283381442 93.21789526334032,188.81327053011046 93.00981234898791,189.15379029358155 92.8364099203609,189.04028373165056 93.07917332043871,189.00244820531225 93.39129769196734,189.98617095552618 93.21789526334032,191.4617514302954 93.28725623467471,191.65092809739872 93.11385380616412,192.40763404598692 93.39129769196734,194.3372290006082 93.21789526334032,194.29939387744525 93.04449283471331,194.4507343528967 93.18321477761492,195.2074360391125 93.04449283471331,195.62362147553358 93.14853429188952,196.41815634106752 92.9751318632625,197.25052483804757 93.07917332043871,198.04505710309604 93.28725623467471,198.2342312648252 93.21789526334032,199.18010099304956 93.49533914902713,200.50431558914715 93.46065866341814,200.69348881478072 93.14853429188952,201.1475042629172 93.25257574906573,200.95833120986936 93.28725623467471,202.05553391505964 93.46065866341814,202.69872058177134 93.28725623467471,202.92572744196514 93.32193672051653,204.32560078895767 93.14853429188952,205.5741331508907 93.25257574906573,207.16316980382544 93.14853429188952,207.69284755951958 93.39129769196734,211.0979053703195 93.25257574906573,211.70324653954594 93.49533914902713,211.66541273810435 93.28725623467471,212.686924367561 93.42597817769274,213.48143196158344 93.21789526334032,213.93543573096395 93.39129769196734,215.52444565901533 93.49533914902713,215.67577967297984 93.77278303483035,215.63794617386884 93.91150497773197,215.86494712575222 93.77278303483035,216.31894871857367 93.56470012059435,216.58378278961754 93.91150497773197,217.87011769943638 93.73810254910495,219.6482810653979 93.39129769196734,219.9887797079282 93.25257574906573,220.7076094095537 93.39129769196734,223.01542405918008 93.53001963475253,223.01542405918008 93.56470012059435,222.90192522853613 93.59938060620334,222.97759111857158 93.66874157765415,223.84774802596075 93.84214400628116,224.37740800660686 93.80746352055576,225.13406414308702 93.42597817769274,226.836536240211 93.77278303483035,227.55535604216857 93.56470012059435,228.38767240935704 93.98086594918277,228.69033256117837 93.59938060620334,229.25781984915375 93.84214400628116,231.37643333539017 93.63406109192874,232.32224001316354 93.07917332043871,232.8897231563169 92.4896050633397,232.77622657944448 92.35088312032167,232.54923334819614 91.83067583444063,233.1167162322963 91.69195389165543,233.04105188511312 91.58791243459564,233.15454840150778 91.48387097741943,233.72203059485764 91.31046854879241,233.91119118200731 91.65727340593003,234.70566486252937 91.48387097741943,235.15964925289154 90.75558077718597,235.50013727371697 88.84815406252164,235.68929718452273 88.74411260546185,235.5758012466249 88.0505028909538,235.5758012466249 87.28753220522776,235.72712915806915 87.04476880514994,235.50013727371697 85.86563229071908,235.12181723618414 83.54203974746633,234.5921687001537 83.47267877613194,234.66783281127573 82.53630566154607,234.21384797187056 82.18950080452487,234.28951214053086 81.11440574703738,234.02468749979744 80.76760088989977,233.72203059485764 80.62887894711457,233.79769483828568 80.59419846138917,233.64636633984628 80.76760088989977,233.94902329088654 80.69823991833255,234.06251959997462 80.14335214684252,234.02468749979744 79.38038146111649,233.4950377952191 78.58273028943222,233.07888406017446 78.33996688947082,232.81405877470388 77.54231571801938,233.15454840150778 77.33423280366696,234.28951214053086 76.98742794652935,234.70566486252937 76.22445726057049,235.08398521668278 75.77361094625667,235.0461531941255 75.70424997480586,235.4623052829411 75.53084754617885,235.68929718452273 75.32276463182643,235.61363322881516 74.9759597745724,235.7649611287634 74.9759597745724,236.21894455197616 74.94127928896341,236.44593610821175 74.42107200308237,237.1269101552898 74.24766957457177,237.0890782882343 73.93554520304315,237.27823759469902 73.83150374586694,237.1269101552898 73.2072550029261,236.86208702559816 72.92981111712288,236.97558266978012 72.23620140273124,237.65655599159072 71.36918925971258,237.88354689165135 71.3345087741036,238.0727058958728 70.77962100249715,238.64018247681088 70.57153808837757,238.60235072489013 70.43281614547595,238.37536015291698 70.29409420245793,238.64018247681088 69.9819698309293,238.5645189701172 69.77388691657688,238.67801422585035 69.32304060237948,239.0941632752656 69.28836011653766,239.3589852163568 69.01091623085085,239.54814365931088 68.97623574500903,239.81296535863657 68.76815283077303,239.92646032944322 68.42134797363542,239.92646032944322 68.07454311626498,239.6616386906244 67.72773825924378,239.58597533934517 66.5832822304219,240.1156185566506 65.95903348748107,239.81296535863657 65.50818717305083,239.88862867539865 66.75668465916533,240.87225074571325 66.75668465916533,241.28839795902604 67.10348951630294,241.7423763400584 66.93008708767593,242.30984873347916 67.17285048775375,242.61250041198218 67.41561388771515,243.52045434212778 68.45602845924441,245.22286349334172 68.49070894508623,246.09298147566733 68.66411137359682,246.2821373574261 68.56006991665345,246.66044890499325 67.83177971641999,246.8496045708016 67.65837728790939,246.2821373574261 67.17285048775375,246.35779968992574 66.86072611634154,247.0387601647817 64.50245308724698,249.08163599512773 64.6064945445396,249.0059740768629 64.91861891595181,249.27079074003268 65.02266037312802,249.8382545435452 65.16138231591322,250.25439425450168 64.7798969730502,250.51921025296906 64.29437017301098,250.67053361728904 64.08628725865856,250.93534939427627 63.1845946299145,251.38931896944996 62.768428801209666,251.8811188749969 62.31758248701226,252.10810328266234 61.79737520113122,252.82688655721722 60.75696062948555,253.58349940821063 60.51419722952414,253.96180540206842 59.855268000857905,254.15095829119673 59.33506071509328,254.90756912800134 58.88421440066304,254.83190809606458 59.02293634356465,254.94539963957504 58.64145100058522,255.1345521545445 58.64145100058522,254.86973861345905 58.64145100058522,254.98323014832567 58.74549245776143,254.90756912800134 58.364007114782,255.2102131403808 58.259965657722205,255.4750265002658 57.705077886232175,255.51285696870764 57.94784128619358,255.4750265002658 57.73975837184116,255.77767016741564 57.01146817172412,256.2694657338143 56.94210720027331,256.193804909155 56.24849748588167,256.9125822792412 55.10404145717621,257.78267981135286 53.231295228237286,258.9175873482891 52.711087942589074,259.10673835274065 52.225561142433435,259.52287030921434 50.873022199375555,259.97683204655186 48.82687354180962,260.9982444408233 48.30666625616141,260.73343402147293 44.38777136977296,262.32229442268726 41.8214154264424,263.0032330410613 39.497822883189656,263.5328513220302 37.72911811154336,264.1759584765241 33.6021403108025,264.8190647995507 33.08193302503787,265.008213559835 33.01257205370348,264.59208619219135 32.80448913935106,264.4407670631481 31.07046485331375,264.7812350387976 29.301760081551038,264.7812350387976 28.677511338610202,264.8947243122675 28.365386967081577,264.7812350387976 27.810499195591547,265.0838730438263 27.394333367003128,265.5 27.082208995474502,265.348681147123 26.943487052689306,265.0460433032131 26.596682195435278,264.8947243122675 25.00137985229958,264.8190647995507 24.515853052260354,264.8947243122675 25.140101795317605,264.93255406437675 24.307770138024352,264.93255406437675 20.978443508851342,264.6677457394544 20.805041080224328,264.5542564142961 20.943763023009524,264.0624690390541 16.365938908071257,262.32229442268726 16.01913405081723,261.98182476399234 16.01913405081723,261.71701486827806 19.036336308461614,255.096721657319 19.34846067999024,254.79407757584704 19.279099708539434,253.88614422632963 19.417821651441045,253.16736248260713 19.313780194381252,253.2808544059808 19.313780194381252,253.4321769301023 19.625904565677047,252.59990247749374 20.21547282312531,252.1459340073052 20.180792337283492,252.03244182499475 20.250153308617882,251.42714974860428 20.2848337944597,251.5406420690415 20.076750880107284,251.46498052499373 20.35419476579409,251.31365740235196 20.180792337283492,251.2758266144665 19.903348451596685,251.5028112985019 18.689531451324,251.69196512267808 18.44676805124618,251.61630360168056 18.862933879951015,251.46498052499373 19.036336308461614,251.23799582375796 18.481448536971584,251.08667263196548 19.417821651441045,251.20016503010993 19.452502137050033,251.08667263196548 19.071016794187017,251.16233423360973 19.10569727991242,251.01101101888344 18.966975337127224,250.97318020806415 18.966975337127224,250.82185693568317 19.001655822852626,250.97318020806415 18.585489994147792,251.42714974860428 17.787838822696358,251.20016503010993 17.82251930842176,251.04884182685055 18.238685136893764,251.04884182685055 18.030602222774178,251.20016503010993 18.204004651284777,251.46498052499373 18.481448536971584,251.57847283681622 18.44676805124618,251.6541343635763 18.238685136893764,251.57847283681622 18.516129022813402,251.31365740235196 18.62017047998961,251.01101101888344 19.140377765637822,251.04884182685055 19.244419222697616,251.6541343635763 19.244419222697616,251.16233423360973 19.48718262289185,251.6541343635763 19.34846067999024,251.69196512267808 19.868667965754867,251.46498052499373 19.764626508578658,251.57847283681622 22.053538566106,242.49900605416042 23.024592166300863,242.8773204794852 22.712467794772238,242.80165761738317 22.643106823321432,242.4611745957227 22.712467794772238,242.04502836379106 23.059272652026266,241.7423763400584 22.85118973767385,240.83441916367155 23.44075799488928,240.3426083342929 23.30203605198767,240.1156185566506 23.44075799488928,239.88862867539865 23.54479945206549,238.2240330473869 23.33671653782949,238.33752838085638 23.92628479504492,237.99704230276984 24.20372868073173,237.65655599159072 24.16904819512274,237.35390129705775 23.683521395083517,236.97558266978012 23.752882366417907,237.0890782882343 23.752882366417907,236.25677648521378 24.342450623749755,234.70566486252937 24.619894509436563,234.40300837196992 24.862657909397967,233.64636633984628 24.82797742378898,233.4193735056033 25.348184709670022,232.473568914691 25.486906652455218,231.8304207653564 25.764350538142025,231.2629364131426 25.86839199543465,231.3386010309914 26.111155395396054,230.8846131520404 26.215196852572262,230.12796576620894 26.735404138453305,229.25781984915375 26.804765109787695,228.38767240935704 26.978167538298294,228.04717951850034 26.839445595629513,227.85801670054207 26.874126081122085,227.66885381063912 27.394333367003128,226.68520562312915 27.706457738531753,225.58805727219442 28.05326259578578,224.9449002169422 28.365386967081577,224.68007059939555 28.60815036727581,224.07474522959092 28.642830853001215,223.24242164287716 28.920274738804437,222.9397581749945 28.81623328162823,222.78842637201888 28.920274738804437,222.5992615534342 28.78155279578641,222.41009666293394 28.920274738804437,222.33443068654742 29.371121053001843,221.42643807208515 29.64856493868865,220.4806106686592 29.544523481745273,220.17794551962288 29.64856493868865,219.45911505213007 29.544523481745273,219.49694826058112 29.71792591025587,218.24845086308778 29.475162510178052,217.71878435340477 29.613884452963248,216.99995033055893 29.509842995903455,216.09194797390956 29.64856493868865,215.86494712575222 29.301760081551038,215.4487786347745 29.40580153884366,215.03260979539482 29.267079595825635,214.5029398597253 29.475162510178052,214.20027107166243 29.475162510178052,213.40576462636818 29.267079595825635,212.91392666683532 29.197718624491245,212.11941816587932 29.509842995903455,211.66541273810435 29.301760081551038,211.06007152280654 29.40580153884366,210.9087361038546 29.33644056727644,210.56823124259245 29.093677167315036,210.56823124259245 29.058996681473218,210.00072262241156 29.058996681473218,209.47104732578737 29.371121053001843,209.31971142301336 29.232399110216647,209.0548734824697 29.267079595825635,208.56303121845121 28.989635710138828,208.14685661508702 28.920274738804437,208.2981928748195 28.677511338610202,207.6550134527497 28.8509137671208,206.82266237726435 28.642830853001215,205.87680719071068 28.642830853001215,205.23362463590456 28.920274738804437,204.77961291972315 29.33644056727644,204.47693821191206 30.168772224569693,204.24993206004729 32.73512816790026,204.24993206004729 34.850637796800584,203.90942263801116 36.168496254016645,203.53107856216957 36.44594013981987,203.64458181519876 37.24359131150413,203.41757528329617 37.41699374001473,203.49324413875001 38.318686368642375,203.22840309422463 40.15675211197231,203.30407197849127 40.2261130833067,203.0392308330629 40.85036182636395,203.0392308330629 41.197166683501564,203.15273419840378 41.78673494060058,202.92572744196514 43.000551940873265,203.11489974617143 44.14500796981156,203.0392308330629 44.59585428412538,203.19056864778395 45.150742055498995,202.77438954665558 45.67094934138004,202.887892972416 46.43392002710607,202.58521711279172 46.8500858558109,202.66088609502185 47.23157119867392,202.4717136179388 48.13326382741798,202.58521711279172 48.6187906274572,202.4717136179388 48.51474917028099,202.58521711279172 48.65347111329902,202.69872058177134 49.069636942003854,202.5473826174566 50.0406905420823,202.77438954665558 50.734300256473944,202.8500585000147 50.630258799297735,202.77438954665558 50.76898074231576,202.66088609502185 51.4625904567074,202.396044606925 51.635992885218,202.24470655046753 52.32960259960964,202.62305160530377 53.265975714079104,202.43387911393074 53.64746105694212,202.16903750496567 53.95958542835433,202.4717136179388 54.75723659992218,202.4717136179388 55.416165828704834,202.32037558447337 56.31785845721606,202.24470655046753 57.9825217720354,202.2825410689402 58.259965657722205,202.396044606925 58.433368086232804,202.32037558447337 59.12697780074086,202.35821009712527 59.439102172269486,202.20687202911358 60.306114315171726,202.16903750496567 61.38120937242638,202.20687202911358 62.005458115483634,202.35821009712527 62.66438734403346,202.16903750496567 64.57181405869778,202.24470655046753 65.75095057324506,202.16903750496567 66.93008708767593,202.05553391505964 67.41561388771515,202.16903750496567 67.76241874485277,202.13120297779096 68.1785845735576,202.0176993792702 69.21899914520327,201.97986484065768 69.8085674024187,202.2825410689402 70.71026003116276,202.0933684478514 70.91834294551518,202.32037558447337 71.09174537402578,202.35821009712527 72.34024285990745,202.13120297779096 72.58300625998527,202.396044606925 72.75640868861228,202.92572744196514 72.92981111712288,203.00139637221582 73.62342083163094,202.81222402481944 73.79682326014154,202.96356190851657 74.10894763167016,202.4717136179388 74.5597939461004,202.20687202911358 75.42680608900264,202.13120297779096 75.66956948919687,202.24470655046753 76.05105483205989,202.20687202911358 76.4325401749229,202.2825410689402 76.81402551778592,202.13120297779096 78.16656446096022,202.24470655046753 78.27060591802001,201.52585015288787 78.72145223245025,201.4123464161239 80.10867166123353,200.69348881478072 80.66355943272356,200.88266196852783 80.97568380425218,200.8069927157194 81.3571691471152,200.9961658262473 81.5999325470766,200.92049659069744 82.18950080452487,201.03400043977308 82.43226420436986,200.8069927157194 82.6750276045641,200.95833120986936 83.26459586177953,200.8069927157194 83.57672023330815,200.92049659069744 83.95820557617117,200.84482734359335 84.16628849052358,200.65565417546895 84.582454319112,200.69348881478072 84.79053723323159,200.8069927157194 84.582454319112,200.84482734359335 84.7211762618972,200.84482734359335 84.4784128619358,201.18533886483056 84.4784128619358,200.88266196852783 84.6518152904464,200.88266196852783 84.51309334754478,200.88266196852783 84.582454319112,200.8069927157194 84.582454319112,201.10966965803527 85.79627131926827,198.9909271914221 85.17202257632744,198.83958809828619 84.85989820491523,198.309900909313 84.5477738333866,198.12072677645483 84.30501043319236,198.12072677645483 84.09692751907278,197.59103882141062 83.71544217597693,197.25052483804757 83.22991537593771,197.28835973664536 82.84843003307469,197.59103882141062 81.66929351864383,197.32619463230367 81.1490862328792,197.43969930210733 80.94100331841037,197.25052483804757 80.66355943272356,195.81279655871913 80.87164234707598,194.07238307778607 80.76760088989977,193.35351486163563 80.90632283268496,192.63464560586726 80.87164234707598,191.87794000288704 80.94100331841037,191.8022693792591 81.1837667186046,191.9536106150481 80.97568380425218,191.19690397527302 80.66355943272356,190.93205637921346" stroke="#4dd2ff" stroke-linecap="round" stroke-linejoin="round" stroke-width="0.5"><title>2022-02-19 10.1km</title></polyline></svg>