<?xml version="1.0" encoding="utf-8" ?>
<svg baseProfile="full" height="300mm" version="1.1" viewBox="0,0,200,300" width="200mm" xmlns="http://www.w3.org/2000/svg" xmlns:ev="http://www.w3.org/2001/xml-events" xmlns:xlink="http://www.w3.org/1999/xlink"><defs /><rect fill="#222222" height="300" width="200" x="0" y="0" /><text fill="#FFFFFF" style="font-size:12px; font-family:Arial; font-weight:bold;" x="10" y="20">Over 3km Runs</text><text fill="#FFFFFF" style="font-size:4px; font-family:Arial" x="10" y="280">ATHLETE</text><text fill="#FFFFFF" style="font-size:9px; font-family:Arial" x="10" y="290">pi-dal</text><text fill="#FFFFFF" style="font-size:4px; font-family:Arial" x="120" y="280">STATISTICS</text><text fill="#FFFFFF" style="font-size:3px; font-family:Arial" x="120" y="285">Number: 5</text><text fill="#FFFFFF" style="font-size:3px; font-family:Arial" x="120" y="290">Weekly: 1.0</text><text fill="#FFFFFF" style="font-size:3px; font-family:Arial" x="141" y="285">Total: 43.5 km</text><text fill="#FFFFFF" style="font-size:3px; font-family:Arial" x="141" y="290">Avg: 8.7 km</text><text fill="#FFFFFF" style="font-size:3px; font-family:Arial" x="167" y="285">Min: 4.6 km</text><text fill="#FFFFFF" style="font-size:3px; font-family:Arial" x="167" y="290">Max: 12.0 km</text><polyline fill="none" points="19.477294025477022,34.0 19.63709876872599,34.04358627338661 19.717001140350476,34.26151759066852 19.437342839548364,34.34869009436807 19.35744046769105,34.74096619669581 18.87802623794414,35.133242030162364 18.87802623794414,35.481931434362195 18.71822149446234,35.61268990620738 18.678270308533683,35.830620626104064 18.798123866086826,36.1357234948664 18.798123866086826,36.31006791815162 18.917977423639968,36.44082620088011 18.917977423639968,36.61517053132411 19.557196397101507,36.702342676580884 20.236366556258872,37.00744508067146 20.755731971934438,36.745928744319826 21.394950945163146,36.61517053132411 21.674609245965257,36.65875660564052 21.754511617589742,37.05103112524375 21.674609245965257,37.2253752698889 21.63465806026943,37.617649401247036 21.754511617589742,37.79199337342288 21.674609245965257,38.40219685767079 21.754511617589742,38.88164199626772 21.834413989447057,38.92522789811483 21.914316361071542,39.84053106914507 21.994218732696027,40.102045992040075 22.07412110432051,41.32244738668669 21.994218732696027,41.58396163280122 22.593486520228907,41.84547575953184 22.673388891853392,41.75830439722631 23.552314980188385,41.75830439722631 23.951826838310808,41.801890079979785 24.151582767488435,41.889061435707845 24.431241068523377,41.75830439722631 24.790801740949973,41.84547575953184 25.27021597069688,41.67113302159123 25.509923085803166,41.714718711038586 25.669727829052135,41.62754732888425 26.109190873336047,41.62754732888425 26.468751545762643,41.67113302159123 27.307726448168978,41.62754732888425 27.467531191417947,41.67113302159123 27.74718949245289,41.62754732888425 28.466310837306082,41.714718711038586 28.546213209163398,41.932647108566016 28.66606676648371,41.932647108566016 28.66606676648371,42.542846180091146 28.905773881589994,42.93511666840641 28.865822695661336,43.15304460132029 28.94572506728582,43.414558011398185 28.905773881589994,43.981169990089256 28.98567625321448,44.19909752480453 28.98567625321448,44.89646507886937 29.145480996463448,45.20156311674509 29.10552981076762,45.33231936884113 29.145480996463448,45.59383178356802 29.10552981076762,45.81175870465813 29.185432182159275,46.24761229788419 28.98567625321448,47.03214792977087 29.025627438910306,47.11931848915992 29.025627438910306,47.6859268018743 29.185432182159275,48.03460856172023 29.10552981076762,48.29611974227009 29.185432182159275,48.38329010922462 29.145480996463448,48.73197144456208 29.26533455401659,49.124237692856696 29.305285739712417,49.86518431769218 29.145480996463448,50.03952456073603 28.66606676648371,50.344619858195074 28.266554908128455,50.86763998999959 28.266554908128455,51.12914987676777 28.34645727975294,51.172734846302774 28.22660372243263,51.172734846302774 28.18665253650397,51.21631981251994 28.22660372243263,51.39065964415204 27.986896607326344,52.00084863678785 28.426359651377425,52.21877311950084 28.865822695661336,52.872546069847886 28.905773881589994,53.046885397227015 29.10552981076762,53.2648094817996 29.185432182159275,53.70065740222344 29.10552981076762,54.005750749085564 29.145480996463448,54.136504990805406 29.065578624838963,54.3108439334319 29.065578624838963,54.57235224766191 29.225383368087932,55.05178384715691 29.744748783763498,55.48763040744234 30.02440708479844,55.923476636002306 30.30406538536772,56.09781503450358 30.703577243955806,56.01064584188862 30.863381986971945,56.09781503450358 31.22294265963137,56.09781503450358 31.902112818788737,56.01064584188862 32.26167349121533,56.05423043994233 32.860941278748214,55.83630741678644 33.460209066281095,55.96706124051707 33.81976973870769,55.74913818429923 33.97957448195666,55.70555356319528 34.0994280395098,55.74913818429923 34.25923278275877,56.1849842138472 34.25923278275877,57.0130907560233 34.49893989786506,57.318182338087354 34.13937922520563,58.75646903581219 34.13937922520563,59.32306583406171 33.97957448195666,59.41023452259833 33.939623296028,59.54098753025755 34.0994280395098,59.84607776562916 33.939623296028,60.36908921948634 33.97957448195666,61.5022790642106 33.85972092440352,62.243209673441015 33.939623296028,62.548298469220754 34.059476853581145,62.6790507605765 33.81976973870769,62.8533871024847 33.939623296028,62.98413932416588 33.899672110332176,63.72506801615236 33.69991618138738,64.16090797545621 33.460209066281095,64.55316365533508 33.42025788035244,64.7710833613528 33.300404322799295,64.90183514507953 33.26045313687064,65.33767420880031 33.34035550872795,65.51200974150561 33.300404322799295,65.99143218266545 33.460209066281095,66.25293516309466 33.97957448195666,66.68877319869353 34.01952566788532,66.95027586072683 33.85972092440352,67.34252963005565 33.899672110332176,67.51686455233721 33.73986736708321,67.7347831306979 33.81976973870769,67.95270162611268 33.50016025197692,68.56287297199015 33.620013809530064,69.12946006830316 33.42025788035244,69.78321371367201 33.38030669465661,70.13188201945741 33.22050195117481,70.34979960269993 33.22050195117481,70.6548840799951 33.020746021997184,70.9599683949491 32.82099009281956,71.48296969925286 32.82099009281956,72.22388739639428 32.98079483630136,72.52897087536985 32.9408436503727,72.61613755382132 33.26045313687064,72.83405419188784 33.73986736708321,72.74688754667295 34.01952566788532,72.57255421631271 34.73864701273851,72.61613755382132 35.33791480027139,72.39822083280887 35.69747547269799,72.44180418370524 35.9771337735001,72.26747076038737 36.13693851674907,72.44180418370524 36.656303932424635,72.35463747865288 36.975913419388235,72.48538753116736 37.255571719957516,72.52897087536985 37.45532764936797,72.6597208880703 37.69503476424143,72.57255421631271 37.894790693419054,72.74688754667295 38.13449780852534,72.74688754667295 38.334253737702966,72.83405419188784 38.53400966664776,72.79047087091021 38.77371678175405,72.87763750960585 38.813667967449874,72.96480413497193 39.01342389686033,73.00838744273642 39.093326268251985,73.09555404813727 38.973472710931674,73.44422033749288 38.77371678175405,73.57497014111141 38.89357033930719,74.09796905773692 38.85361915337853,74.49021793174325 38.933521525003016,75.05679916439112 39.05337508255616,75.274714873638 39.01342389686033,75.53621361567639 39.093326268251985,75.66696294187568 38.85361915337853,76.23354301042855 38.813667967449874,76.4950413145707 38.85361915337853,77.01803756470326 38.813667967449874,77.19236954196822 38.85361915337853,77.54103333735839 38.77371678175405,77.71536515530897 38.85361915337853,78.02044570929138 38.77371678175405,78.3691090006032 38.73376559582539,79.41509760083864 38.813667967449874,80.02525673562195 39.13327745418064,80.24317055469146 39.01342389686033,80.59183249302441 39.33303338335827,80.50466702826088 39.21317982580513,81.7685649676132 39.13327745418064,81.94289549894165 38.73376559582539,82.37872159527615 38.973472710931674,82.7709647983429 39.05337508255616,83.90411032096017 38.933521525003016,84.55784710269654 38.77371678175405,84.73217678518267 38.69381441012956,85.03725360176759 38.89357033930719,85.38591262180125 38.813667967449874,85.734571429668 38.85361915337853,85.8653184279683 38.73376559582539,86.17039464105619 38.77371678175405,86.60621752083534 39.05337508255616,87.08562230551615 39.093326268251985,87.52144448895706 39.05337508255616,87.78293763985857 39.093326268251985,88.43666999478592 38.973472710931674,88.87249115027953 38.933521525003016,89.26472990674665 38.973472710931674,89.43905815668404 38.85361915337853,90.17995262722252 39.01342389686033,91.00801001919899 38.89357033930719,91.22591966023901 38.653863224200904,91.40024731337326 38.37420492316596,91.35666540509555 38.13449780852534,91.44382921833312 37.894790693419054,91.61815680511063 37.53523002099246,91.61815680511063 37.4952788350638,91.79248433897737 37.09576697694138,92.05397554015508 36.816108675906435,92.44621211814228 36.57640156103298,92.6641212120303 36.376645631855354,92.62053939996986 36.29674326023087,92.75128482643049 36.17688970291056,92.79486662859563 36.17688970291056,93.14352092699846 36.29674326023087,93.3178479966009 36.29674326023087,93.44859326398 36.13693851674907,93.62292024068302 36.17688970291056,93.92799232236575 36.057036145124584,94.01515574444784 36.01708495942876,94.2330642414745 35.93718258780427,94.79962594615063 35.9771337735001,94.88678923557745 35.93718258780427,95.10469740111148 36.09698733105324,95.75842140050372 36.17688970291056,96.01991079130676 36.336694445926696,96.06349234486697 37.135718162637204,95.8891661108355 37.53523002099246,95.8891661108355 37.81488832156174,96.06349234486697 37.85483950772323,96.76079675066285 37.93474187934771,96.935122719442 38.21440018014982,96.97870420332765 38.41415610932745,96.935122719442 39.093326268251985,97.15303010580828 39.21317982580513,97.10944863519398 39.253131011733785,97.02228568389546 39.97225235658698,96.97870420332765 40.13205710006878,96.89154123218032 40.451666586566716,97.06586716120364 40.81122725899331,97.06586716120364 41.45044623245485,96.935122719442 41.81000690488145,97.10944863519398 41.96981164836325,97.10944863519398 42.20951876300387,96.89154123218032 42.609030621359125,96.76079675066285 42.80878655076958,96.89154123218032 43.92741975397803,97.02228568389546 44.40683398395777,96.97870420332765 44.446785169653594,96.935122719442 44.80634584231302,96.97870420332765 45.205857700435445,96.89154123218032 45.88502785959281,97.15303010580828 46.52424683305435,97.10944863519398 46.883807505480945,97.15303010580828 47.24336817814037,96.97870420332765 47.60292885033414,96.935122719442 48.242147823795676,96.97870420332765 48.60170849622227,96.89154123218032 48.92131798295304,96.84795974160079 49.24092746945098,96.935122719442 49.640439327806234,96.84795974160079 50.079902371857315,96.97870420332765 50.19975592917763,96.89154123218032 50.838974902639166,96.80437824781984 51.478193876100704,96.97870420332765 52.516924707451835,96.97870420332765 52.71668063686229,96.935122719442 53.275997238466516,97.02228568389546 53.7154602825176,96.935122719442 53.8752650259994,97.02228568389546 54.035069769248366,96.97870420332765 54.514483999228105,97.15303010580828 55.03384941490367,97.19661157322116 55.51326364488341,97.10944863519398 56.23238498996943,97.19661157322116 56.352238547289744,97.10944863519398 56.751750405645,97.32735595520353 56.99145752075128,97.28377449791878 56.99145752075128,97.37093740928685 57.35101819317788,97.37093740928685 57.59072530828416,97.41451886011055 57.79048123722896,97.37093740928685 58.789260883117095,97.58884462999413 58.909114440437406,97.67600749497069 59.50838222797029,97.71958892256953 59.82799171470106,97.67600749497069 59.90789408632554,97.80675176769728 60.38730831630528,97.93749601062154 61.02652728976682,98.06824022356886 61.34613677626476,98.19898440677207 61.74564863462001,98.15540301572764 61.94540456379764,98.24256579455687 62.06525812111795,98.4604726837133 62.3049652359914,98.37330993800424 62.38486760808155,98.41689131251769 62.744428280275315,98.32972856017295 62.94418420968577,98.37330993800424 63.223842510255054,98.50405405147467 63.74320792616345,98.50405405147467 63.94296385534108,98.59121677739313 64.10276859859005,98.8091235338361 64.5022804569453,98.76554218912497 64.6620852004271,98.59121677739313 64.78193875774741,98.76554218912497 65.06159705854952,98.89628621318843 65.22140180179849,99.07061153219547 65.50106010283343,98.93986754788784 65.94052314665169,98.85270487511298 66.85940042091534,99.11419285362354 67.29886346519925,99.07061153219547 67.57852176576853,99.33209941117093 67.93808243842795,99.37568071275018 68.01798481005244,99.50642459752271 68.29764311085455,99.55000588583061 68.49739904003218,99.46284330595518 68.85695971245877,99.63716845249292 69.21652038488537,99.50642459752271 69.33637394243851,99.50642459752271 69.81578817241825,99.81149354600348 70.13539765914902,99.85507481108652 70.25525121646933,99.94223733135732 70.65476307482459,100.11656233202666 70.73466544644907,100.33446850843029 71.01432374748401,100.50879338971572 71.05427493341267,100.63953701592982 71.21407967642881,100.63953701592982 71.25403086235747,100.77028061228339 71.81334746396169,101.20609238470206 72.0930057647638,101.20609238470206 72.05305457883514,101.24967354367254 72.4525664371904,101.64190382551169 72.9719318530988,101.7290660738363 73.4513460828457,101.90339053084608 73.57119964063168,101.85980942158494 73.65110201202333,101.94697163684759 74.09056505630724,102.03413383878069 74.41017454303801,102.20845820289105 74.92953995871358,102.51352571265306 75.08934470219538,102.77501202007988 75.24914944544435,102.86217409610981 75.32905181706883,103.08007922803517 75.36900300299749,103.03649820829742 75.8484172327444,103.12366024457151 76.04817316192202,103.25440327398246 76.20797790540382,103.4723082567798 76.60748976375908,103.51588924333919 76.68739213538356,103.60305120656267 77.0070016218815,103.69021315668942 77.0070016218815,103.77737509342842 77.1668063653633,103.90811797365313 77.52636703755707,103.95169892709237 77.6861717812717,104.03886082401732 77.88592771021649,104.3875082792947 78.04573245346546,104.43108919635415 78.08568363962695,104.56183192745084 78.28543956857175,104.56183192745084 78.40529312612489,104.51825102040311 78.40529312612489,104.43108919635415 78.3253907545004,104.3875082792947 78.40529312612489,104.7797364128055 78.92465854180045,105.2591259892215 79.12441447121091,105.04122168605682 79.32417040015571,105.04122168605682 79.60382870095782,105.2591259892215 80.16314530256204,105.43344937206712 80.3629012319725,105.65135352598736 80.60260834684595,105.7385151644703 80.80236427602358,105.43344937206712 80.64255953254178,104.99764081544708 80.08324293093756,104.73615552240517 79.88348700175993,104.73615552240517 79.80358463036828,104.86689818382729 79.80358463036828,105.2591259892215 80.48275478929281,105.38986853137612 81.04207139089704,105.60777270188555 81.32172969169915,105.86925759719452 81.32172969169915,105.91283840144752 81.24182732007466,106.0 81.0820225768257,105.91283840144752 80.7224619043991,105.91283840144752 80.08324293093756,105.43344937206712 79.48397514363751,105.2591259892215 79.28421921422705,105.2591259892215 78.92465854180045,105.0848025532905 78.48519549774937,104.56183192745084 77.96583008207381,104.3875082792947 77.6861717812717,104.34392735897563 77.1668063653633,103.86453701689607 76.92709925025702,103.86453701689607 76.56753857783042,103.69021315668942 76.32783146272413,103.51588924333919 76.28788027702831,103.3851462736493 75.96827079029754,103.29798427713104 75.4888565603178,102.9493361589266 74.49007691442966,102.55710677214665 74.21041861386038,102.38278251409065 73.97071149898693,102.29562036512652 73.65110201202333,102.07771493482869 73.0917854104191,101.77264719305094 72.89202948147431,101.5111604281119 72.812127109617,101.64190382551169 72.65232236636803,101.7290660738363 72.0930057647638,101.46757928887382 72.05305457883514,101.38041700079339 71.81334746396169,101.33683585160179 71.57364034908824,101.42399814649252 71.37388441991061,101.2932546993834 71.2939820480533,101.11893005669117 70.73466544644907,100.72669941675849 70.25525121646933,100.68311821797397 69.45622749999166,100.24730604770593 69.17656919918954,99.98581858654507 68.69715496897697,99.81149354600348 68.61725259758532,99.89865607296815 68.21774073923007,99.98581858654507 68.0978871814441,100.16014357394306 67.97803362412378,100.11656233202666 67.81822888087481,99.94223733135732 67.69837532332167,99.41926201095339 67.53857057983987,99.37568071275018 66.69959567766637,99.20135548658436 66.14027907582931,99.41926201095339 66.06037670420483,99.37568071275018 65.94052314665169,99.02703020739136 65.8606207750272,98.98344887932763 65.62091366015375,99.02703020739136 65.34125535935163,98.89628621318843 65.26135298772715,98.72196084121242 64.74198757181875,98.89628621318843 64.30252452776767,98.4604726837133 64.22262215614319,98.4604726837133 64.18267097021453,98.41689131251769 64.02286622673273,98.50405405147467 63.982915041036904,98.37330993800424 63.90301266941242,98.41689131251769 63.70325674023479,98.28614717908204 63.26379369618371,98.28614717908204 62.78437946620397,98.02465882257093 62.10520930704661,98.28614717908204 61.94540456379764,98.28614717908204 60.627015431178734,97.89391459955368 60.467210687929764,97.98107741831336 59.82799171470106,97.8503331853426 59.62823578552343,97.71958892256953 59.388528670649976,97.76317034679232 59.02896799799055,97.63242606411222 58.86916325450875,97.67600749497069 58.50960258231498,97.63242606411222 58.07013953803107,97.45810030749999 57.03140870667994,97.24019303714158 56.67184803402051,97.06586716120364 56.3921897332184,97.06586716120364 56.23238498996943,96.935122719442 55.83287313161418,97.19661157322116 55.55321483081207,97.15303010580828 55.55321483081207,96.935122719442 55.63311720243655,96.84795974160079 55.39341008733027,96.80437824781984 54.55443518492393,97.02228568389546 53.99511858331971,97.06586716120364 53.355899610091,97.28377449791878 53.03629012336023,97.10944863519398 52.237266406649724,97.19661157322116 51.99755929177627,97.06586716120364 51.318389132618904,97.06586716120364 51.07868201774545,96.89154123218032 50.239707115106285,96.84795974160079 49.88014644267969,96.5864707287401 49.88014644267969,96.45572617743164 49.72034169943072,96.36856312683085 49.68039051350206,96.45572617743164 49.76029288535938,96.36856312683085 49.72034169943072,96.45572617743164" stroke="#4dd2ff" stroke-linecap="round" stroke-linejoin="round" stroke-width="0.5"><title>2022-04-23 4.6km</title></polyline><polyline fill="none" points="114.65024630550761,57.94138234708225 114.78817734005861,57.9628796192992 114.68965517252218,58.00587415887276 114.41379310353659,57.89838779765705 114.0,58.28533850652457 114.07881773414556,58.56480257760268 114.0,58.56480257760268 114.07881773414556,58.865763575580786 114.23645320208743,58.865763575580786 114.3940886700293,58.77977475176158 114.49261083756573,58.84426637206343 115.28078817750793,58.75827754168131 115.51724137936253,58.801271960139275 116.8571428572759,58.67228868510574 118.45320197055116,58.6507914668764 118.84729064046405,58.69378590169072 119.61576354689896,58.6507914668764 120.02955665031914,58.67228868510574 121.82266009866726,58.58629980235128 122.23645320208743,58.60779702549917 123.45812807895709,58.4788136620773 123.65517241391353,58.56480257760268 123.61576354689896,58.715283116689534 123.6945812809281,59.145227072236594 123.65517241391353,59.403193131351145 123.71428571431898,60.11259857892583 123.63546798040625,60.52104333117313 123.79310344834812,61.8323619641742 123.81280788197182,62.54176130947599 123.77339901495725,63.01469321643526 123.73399014782626,64.24001310928725 123.75369458133355,65.29335403098958 123.67487684742082,65.85226802676334 123.77339901495725,66.15322125864623 123.73399014782626,66.32519439001044 123.83251231536269,66.454174169834 123.91133004939184,67.33553442211996 123.91133004939184,67.63648607346113 123.77339901495725,67.74396872842044 123.85221674886998,68.23838841414545 123.83251231536269,68.68981432791043 123.89162561588455,68.86178591476346 123.93103448289912,70.7964590521151 124.06896551733371,71.50583588218433 123.99014778330456,71.76379065138462 124.02955665043555,71.91426415796741 123.9704433499137,71.97875277913408 124.02955665043555,72.08623378163611 124.04926108382642,73.31151431964827 123.9704433499137,73.54797135551053 123.93103448289912,74.23584524348553 124.04926108382642,74.32182936168101 123.9704433499137,74.90222147500026 124.10837438434828,75.52560426844866 124.04926108382642,76.77236572821857 124.10837438434828,79.50232419172244 123.9704433499137,80.14719241774583 124.18719211837742,80.49112153641181 124.088669950841,80.55560819951643 124.02955665043555,80.74906810055836 124.06896551733371,81.13598750527308 124.00985221681185,81.88832927521435 123.91133004939184,82.38272420456633 123.79310344834812,82.53319205481966 124.12807881785557,83.0920719398564 124.14778325136285,83.50048346428957 124.00985221681185,83.80141789402114 123.93103448289912,85.39206598341116 123.87192118237726,85.65000807284378 123.75369458133355,85.8004741830373 123.26108374400064,85.92944507076754 123.14285714307334,86.01542562994291 122.9261083744932,86.0584158996935 122.86699507397134,86.16589154550456 122.78817734005861,86.68177407611802 122.72906403953675,86.74625932620256 122.72906403953675,87.09018041146919 122.57142857147846,87.47709113205201 122.61083743849304,87.47709113205201 122.65024630550761,87.54157620063052 122.6699507390149,88.1864260769944 122.90640394098591,88.2079210475058 123.00492610852234,88.27240594927571 123.43842364533339,88.25091098366829 123.45812807895709,88.53034540920635 123.61576354689896,88.59483023740177 123.99014778330456,88.57333529632888 124.32512315281201,88.6163251768885 124.52216748776846,88.53034540920635 125.21182266029064,88.53034540920635 125.62561576371081,88.59483023740177 127.26108374400064,88.57333529632888 127.47783251246437,88.6163251768885 127.99014778330456,88.53034540920635 128.52216748776846,88.57333529632888 128.64039408881217,88.6378201147163 129.07389162573963,88.55184035359707 129.98029556660913,88.53034540920635 132.42364532034844,88.59483023740177 133.01477832521778,88.74529477927717 133.40886699524708,88.74529477927717 134.0,88.85276940303447 134.7881773399422,89.06771852784732 135.73399014794268,89.23967770993477 135.93103448289912,89.32565726171015 136.088669950841,89.28266748911119 136.89655172429048,89.43313166471489 137.0147783253342,89.540606026756 137.38916256162338,89.60509062440542 137.42857142863795,89.64808034800808 137.4876847291598,89.60509062440542 137.98029556672554,89.64808034800808 138.51231527107302,89.8415340231295 139.4384236453334,89.97050306630263 139.79310344834812,90.14246169896796 140.89655172429048,90.72282131160318 141.19211822666693,90.95926377503201 142.0197044336237,91.32467446569353 142.19704433495644,91.4966322742257 143.10344827594236,91.96951570817328 143.63546798040625,92.35641974731698 144.4630541872466,92.74332325665455 145.7438423646381,93.51712868608593 146.5517241380876,93.86104153007909 147.1428571428405,93.9470196757029 148.54187192127574,94.24794297930202 150.03940886701457,94.44139350528712 150.137931034551,94.52737147426524 151.3004926108988,94.67783285712358 151.8325123153627,94.82829415985907 152.69950738921762,94.87128308872343 153.1133004926378,94.80679969294579 153.78325123165268,94.80679969294579 154.09852216753643,94.72082180889265 154.29556650249287,94.7423162823834 154.86699507397134,94.63484389876248 155.0246305419132,94.65633837872883 155.77339901484083,94.41989900889166 156.67980295571033,94.22644846826734 158.23645320208743,93.75356881134212 158.63054187200032,93.60310693633801 159.12315270944964,93.51712868608593 159.24137931049336,93.4526449812547 159.41871921194252,93.4741395511519 159.85221674886998,93.19471001466445 160.10837438423187,93.13022623622965 160.75862068973947,92.63585011273972 162.55172413797118,91.62560056196526 163.20197044347879,91.1957060405839 163.59605911327526,90.78730563944555 165.07389162562322,88.9172541575972 165.15270935976878,88.6378201147163 165.64532019710168,87.73503131803591 165.90147783257999,86.93971498818428 166.11822660116013,86.55280353176931 166.59113300498575,85.34907561219006 166.59113300498575,85.15561886107025 166.7881773399422,84.76870496141782 166.9064039409859,84.31730474212964 166.86699507397134,84.16683784208726 167.0246305419132,83.62945540201326 167.1428571428405,82.49020124861272 167.08374384243507,81.71636561876221 167.00492610852234,81.47991542016098 167.12315270944964,81.35094250114344 167.20197044336237,81.05000546116207 167.08374384243507,79.41634165035794 167.12315270944964,77.99762593959167 167.0640394090442,77.653693785207 167.12315270944964,77.33125701015524 167.00492610852234,75.28914888802683 167.0443349754205,75.09568524781207 166.98522167489864,74.70875756973692 167.00492610852234,73.80592425982468 166.9261083744932,73.35450652275176 166.96551724150777,71.44134715302789 166.9064039409859,70.90394050450413 166.45320197055116,70.47401444947172 166.31527093600016,69.20572877439554 166.3940886700293,68.73280723443895 166.7881773399422,68.75430368527304 166.96551724150777,68.73280723443895 167.0246305419132,68.58233203293639 167.10344827594236,66.17471790580021 167.3004926108988,65.29335403098958 167.3201970444061,64.71294217233662 167.22167487698607,64.30450348270824 167.47783251234796,64.1110323182802 167.73399014794268,63.186668258946156 167.99014778330456,62.498767460521776 168.12807881785557,62.326791999075795 168.4433497537393,61.53140412771609 168.42364532023203,61.402422099679825 168.26600985229015,61.230445970606524 168.02955665031914,60.1555927911686 168.088669950841,59.89762741935556 167.97044334979728,59.79014177824138 168.0689655173337,59.940621664369246 166.3940886700293,60.24158119606727 167.9310344827827,60.17708989485982 168.088669950841,60.06960436006193 168.64039408869576,59.403193131351145 168.54187192115933,58.84426637206343 168.66009852220304,58.67228868510574 168.64039408869576,58.4788136620773 168.54187192115933,58.28533850652457 168.325123152812,58.09186321836023 169.03448275872506,57.66191765903204 169.3891625617398,57.339458059941535 169.82266009855084,57.03849543517572 170.11822660104372,56.99550074835133 170.57142857147846,56.651543017840595 171.8325123153627,55.9206314493058 172.12807881785557,55.66266220873513 174.45320197055116,54.26532472654071 174.57142857147846,54.136339379576384 174.70935960602947,54.07184668397531 174.74876847304404,54.11484181598644 174.84729064046405,53.85687092565058 175.26108374400064,53.598899799602805 175.75369458133355,52.996966255654115 176.66009852231946,52.11556125113566 176.8374384236522,51.83609079710732 177.38916256162338,51.406135712371906 178.84729064046405,50.56772141395777 179.63546798040625,50.223755853352486 179.75369458133355,50.07327078883827 180.62068965518847,49.578819297792506 181.05418719211593,49.471329728650744 182.137931034551,48.933881269040285 182.6502463055076,48.54691774467938 182.70935960591305,48.35343578358879 183.4384236453334,47.90197735877882 183.5763546798844,47.75149105674063 183.8325123153627,47.60100467449229 184.02955665031914,47.55800855054986 184.91625615768135,46.87006967693742 185.15270935965236,46.56909589264251 185.58620689657982,46.35411442168697 185.56650246307254,46.1176346145221 185.92118226608727,45.881154609291116 186.0,45.73066723013471 185.96059113310184,45.66617261453939 185.52709359617438,45.19321164970461 185.31034482771065,45.12871691129112 184.6009852217976,45.902652799806674 184.30541871930473,46.05314008727146 183.41871921194252,46.82707344170194 182.74876847292762,47.27853358536959 182.49261083744932,47.57950661338691 181.8817733990727,48.009467525422224 181.7635467981454,48.224447735919966 181.56650246307254,48.3319377797452 181.3694581281161,48.525419755562325 180.34482758620288,48.933881269040285 179.47783251246437,49.21335459573311 178.94581280788407,49.471329728650744 177.52709359605797,49.68630882601428 176.95566502481233,49.68630882601428 176.02955665031914,49.51432556126383 175.59605911339168,49.299346332933055 174.68965517252218,48.933881269040285 174.137931034551,48.525419755562325 173.42857142863795,48.11695765113109 172.67980295582674,47.96647146366013 172.30541871930473,47.98796949534153 171.63546798028983,48.24594574792718 171.77339901484083,48.11695765113109 171.00492610840593,48.18145170688513 170.9064039408695,48.267443758348236 169.7635467981454,48.54691774467938 169.4876847291598,48.58991371805314 169.40886699513067,48.54691774467938 168.81773399014492,48.654407665802864 167.87192118226085,48.890885348111624 167.51724137936253,49.04137104281108 167.0640394090442,49.148860775647336 164.58128078829031,49.53582347507472 164.26600985240657,49.64331301965285 164.12807881785557,49.750802523310995 163.12315270944964,49.793798313330626 161.3694581281161,49.772300419106614 161.09359605924692,49.664810923699406 160.66009852231946,49.664810923699406 160.28571428579744,49.750802523310995 158.37438423652202,49.68630882601428 158.03940886701457,49.60031720677216 157.8817733990727,49.70780672678666 157.80295566504356,49.64331301965285 157.56650246318895,49.70780672678666 156.26600985229015,49.70780672678666 155.6945812808117,49.62181511399103 155.24137931037694,49.64331301965285 155.14285714295693,49.53582347507472 154.84729064046405,49.471329728650744 154.57142857147846,49.879789873739355 154.25615763559472,49.94428352685645 153.96059113310184,49.90128775969788 153.6059113300871,49.62181511399103 153.52709359617438,49.60031720677216 153.31034482771065,49.68630882601428 152.64039408869576,49.70780672678666 152.48275862075388,49.81529620589572 152.3448275863193,49.72930462590011 152.226600985392,49.772300419106614 150.84729064046405,49.793798313330626 150.43349753704388,49.90128775969788 148.26600985229015,50.07327078883827 148.02955665031914,50.223755853352486 147.97044334979728,50.374240837656544 147.26108374388423,50.223755853352486 147.10344827594236,50.266751571325585 146.9261083744932,50.18076012878737 146.70935960602947,50.15926226407464 145.8620689655654,50.20225799187028 145.38916256162338,50.28824942786014 145.29064039408695,50.24525371317577 144.81773399026133,50.28824942786014 144.16748768487014,50.24525371317577 143.73399014782626,50.331245136025245 143.49753694585524,50.24525371317577 142.3940886700293,50.417236532710376 141.94088669959456,50.417236532710376 141.66502463060897,50.30974728279398 141.2315270936815,50.374240837656544 141.03448275872506,50.56772141395777 138.2955665026093,50.69670839111495 137.76354679802898,50.82569530939509 136.088669950841,50.82569530939509 135.63546798040625,51.12666455617 135.24137931049336,51.12666455617 134.76847290655132,50.93318436291884 134.0,50.97617997287307 133.42857142863795,50.954682168739964 133.2315270936815,51.01917557627894 132.91625615779776,50.93318436291884 131.9310344827827,51.040673375551705 131.47783251234796,50.99767777537636 130.137931034551,51.040673375551705 129.6453201972181,51.16966013668571 129.1330049262615,51.16966013668571 128.14778325136285,51.27714905925677 128.04926108382642,51.19115792446246 127.45812807895709,51.1051667634747 127.20197044347879,51.16966013668571 126.35467980301473,51.14816234726459 125.94088669959456,51.23415349514107 125.78325123165268,51.16966013668571 125.46798029565252,51.341642393148504 125.27093596069608,51.75009983257041 125.27093596069608,52.35203603457194 125.13300492614508,52.58851062004396 124.91625615768135,52.78198967897333 124.75862068973947,53.29793318803422 124.7192118227249,54.20083206045092 124.81773399026133,54.5232952436927 124.83743842376862,55.27570790599566 124.89655172417406,55.51218004290422 124.83743842376862,56.02811856336484 124.9753694582032,56.43656922351511 124.79802955675405,56.88801400254306 124.77832512313034,57.44694463387714 125.05418719234876,58.19934950589959 124.79802955675405,58.715283116689534 124.83743842376862,58.84426637206343 125.09359605924692,59.274210131232394 124.89655172417406,59.70415323582711 124.93596059118863,59.833136039582314 124.87684729078319,59.89762741935556 124.8571428572759,60.585534553873 124.73891625623219,60.80050518974895 124.6009852217976,60.80050518974895 124.56157635478303,60.73601401614724 124.36453201982658,60.779008133511525 123.93103448289912,60.71451695500582 123.95073891628999,60.17708989485982 123.73399014782626,59.532176072578295 123.77339901495725,59.360198804555694 123.67487684742082,59.01624395430554 123.75369458133355,58.715283116689534 123.61576354689896,58.52180812311417 123.26108374400064,58.58629980235128 122.72906403953675,58.58629980235128 122.33497536962386,58.73678033000033 121.7635467981454,58.77977475176158 121.23152709379792,58.69378590169072 120.75862068973947,58.6507914668764 120.50246305426117,58.75827754168131 120.02955665031914,58.715283116689534 119.75369458144996,58.77977475176158 119.16256157646421,58.73678033000033 118.57142857159488,58.77977475176158 118.23645320208743,58.75827754168131 117.98029556660913,58.77977475176158 117.92118226608727,58.865763575580786 117.80295566515997,58.84426637206343 117.21182266017422,58.95175237323565 116.87684729078319,58.97324956856028 116.26600985229015,58.865763575580786 115.89162561588455,58.887260777453776 115.63546798040625,58.77977475176158 114.5123152709566,58.95175237323565 114.03940886713099,58.73678033000033 114.05911330052186,58.58629980235128 114.11822660104372,58.60779702549917 114.19704433507286,58.328332996956306 114.45320197055116,58.19934950589959 114.88669950736221,58.11336047916848 114.9261083744932,58.15635499583732 114.9261083744932,57.812398679277976 114.86699507397134,57.9628796192992 114.90640394098591,57.89838779765705 114.8078817735659,57.855393241756246" stroke="#4dd2ff" stroke-linecap="round" stroke-linejoin="round" stroke-width="0.5"><title>2022-04-04 12.0km</title></polyline><polyline fill="none" points="17.07947654009331,151.7802464212 17.07947654009331,151.80531854220317 17.010533035499975,151.80531854220317 16.895627194433473,151.52952510642353 16.803702521603554,151.7301021735184 16.619853175943717,151.42923652712489 16.573890839354135,151.4793808205868 16.390041493694298,151.42923652712489 16.344079157337546,151.4793808205868 16.22917331638746,151.45430867481628 16.045323970611207,151.60474152091774 15.930418129544705,151.57966938466416 15.79253112024162,151.75517429827596 15.79253112024162,152.25661639336613 15.700606447528116,152.28168847810593 15.723587615648285,152.38197679788573 16.22917331638746,152.4822650871356 16.413022662047297,152.58255334576825 17.240344717516564,152.38197679788573 17.4241940631764,152.50733715464594 17.608043408836238,152.50733715464594 20.112990743713453,152.25661639336613 20.80242578999605,152.23154430676368 21.90552186407149,152.3067605609249 22.503032237524167,152.18140012785443 24.019789339392446,152.23154430676368 24.295563357765786,152.13125594120356 24.663262049201876,152.18140012785443 26.019150973530486,152.15632803543122 26.203000319190323,152.28168847810593 26.89243536547292,152.03096754511353 27.007341206539422,152.25661639336613 27.007341206539422,153.48514629981946 27.09926587936934,153.68572217589826 27.145228215726092,153.61050623672782 27.076284711132757,153.68572217589826 27.030322374776006,153.86122596729547 27.16820938407909,154.76381541712908 27.421002234332263,154.73874352138955 27.375039897859097,154.66352782261674 28.13341844873503,154.76381541712908 28.4091924673412,154.83903109296807 28.937759336084127,155.08974988837144 29.25949569104705,155.03960614456446 29.420363868470304,155.16496548979194 29.650175550603308,155.06467801737017 29.60421321413014,155.03960614456446 29.650175550603308,155.0145342697797 29.994893073802814,154.9643905145058 30.224704755819403,155.11482175736455 30.408554101595655,155.11482175736455 30.56942227901891,154.93931863401667 30.82221512927208,154.8139592029038 30.914139802218415,154.93931863401667 31.350781998131424,154.98946239313227 31.76444302580785,154.8139592029038 32.270028726547025,154.8641029810824 32.407915735733695,154.8139592029038 32.59176508139353,154.93931863401667 33.02840727730654,154.9142467516358 33.07436961366329,154.9643905145058 33.16629428660963,154.9643905145058 33.18927545484621,155.06467801737017 33.5339929779293,154.9643905145058 34.10852218326181,155.0145342697797 34.45323970622849,154.9142467516358 34.637089052121155,154.93931863401667 34.75199489307124,154.8641029810824 35.80912863078993,154.68859972408973 35.96999680821318,154.76381541712908 36.45260134059936,154.71367162367096 36.636450686259195,154.78888731097686 37.16501755500212,154.71367162367096 37.57867858291138,154.73874352138955 37.62464091926813,154.68859972408973 38.24513246084098,154.71367162367096 38.497925311210565,154.66352782261674 38.91158633900341,154.68859972408973 39.164379189372994,154.76381541712908 40.19853175873868,154.6384559191938 40.47430577722844,154.4880244587839 40.63517395465169,154.5632401976036 41.11777848715428,154.51309637361555 41.34759016917087,154.53816828658455 41.50845834671054,154.4629525420023 41.577401851303875,154.4880244587839 41.69230769237038,154.38773678027792 41.9910628789803,154.51309637361555 42.289818065823056,154.5632401976036 42.7954037663294,154.4880244587839 43.23204596224241,154.51309637361555 43.62272582191508,154.38773678027792 44.082349186064675,154.38773678027792 44.174273858894594,154.33759292960167 45.001595914480276,154.36266485587112 45.36929460579995,154.43788062332897 45.64506862440612,154.33759292960167 45.87488030642271,154.31252100141137 46.47239067987539,154.43788062332897 46.587296520825475,154.51309637361555 47.667411426780745,154.38773678027792 48.816469837212935,154.36266485587112 48.93137567827944,154.41280870279297 49.48292371525895,154.41280870279297 50.42515161179472,154.2623771392391 51.183530162787065,154.31252100141137 51.80402170435991,154.2623771392391 52.28662623674609,154.31252100141137 52.19470156391617,154.28744907132932 53.73443983402103,154.1871613317344 54.07915735722054,154.01165771402884 54.35493137559388,154.01165771402884 54.58474305772688,153.76093809792656 54.92946058092639,153.73586612584768 55.09032875834964,153.73586612584768 55.57293329073582,153.96151380610536 55.710820300038904,153.96151380610536 55.87168847746216,153.91136989049846 56.14746249595191,153.96151380610536 56.262368337018415,153.91136989049846 56.72199170128442,153.86122596729547 57.36546441121027,153.96151380610536 57.572294924990274,153.8862979298574 58.123842961969785,153.91136989049846 58.997127354028635,153.81108203643817 59.52569422288798,153.68572217589826 59.640600063838065,153.73586612584768 59.847430577734485,153.73586612584768 60.054261091630906,153.8361540028127 60.46792211942375,153.91136989049846 60.95052665180992,153.8862979298574 61.11139482923318,153.86122596729547 61.18033833382651,153.76093809792656 61.38716884772293,153.76093809792656 61.5480370252626,153.81108203643817 62.4672837536782,153.8361540028127 62.53622725827154,153.8862979298574 62.28343440790195,154.01165771402884 62.19150973507203,154.21223326949985 62.28343440790195,154.33759292960167 62.49026492179837,154.31252100141137 62.78902010852471,154.4629525420023 63.156718799844384,155.0145342697797 63.29460580914747,155.84190512949135 63.271624640910886,155.99233597161947 63.40951165021397,157.5467839835328 63.50143632304389,158.02314561547246 63.40951165021397,158.6248645868036 63.52441749116406,158.90065208123997 63.63932333223056,158.9257236602425 63.662304500467144,158.85050891767605 64.55857006064616,158.24879035851336 64.76540057454258,158.12343218698516 64.83434407925233,158.14850382515579 65.04117459314875,157.7975007178029 65.33992977975868,157.8225723807118 66.3511011810042,157.12056509734248 67.4771784231998,156.4686998515972 69.84423874877393,154.93931863401667 70.30386211292353,154.73874352138955 70.39578678586986,154.58831210670178 70.74050430906937,154.51309637361555 70.94733482284937,154.28744907132932 71.40695818699896,154.1119455069711 72.76284711144399,153.30964230804238 75.24481327808462,152.28168847810593 75.72741781035438,151.98082333555794 76.7385892115999,151.52952510642353 76.99138206185307,151.253731439705 77.22119374398608,151.10329843329964 77.313118416816,150.90272098444984 77.313118416816,150.9779375420767 77.40504308976233,150.95286535815103 77.68081710813567,150.80243221428827 77.70379827637225,150.72721561658545 77.88764762203209,150.75228781774058 78.37025215441827,150.4514212780341 78.5541015000781,150.40127682799357 78.6690073411446,150.25084343223716 78.43919565912802,149.79954283247935 78.62304500478785,149.2980969963246 78.46217682724819,148.67128862740356 78.5541015000781,148.5960715430556 79.38142355566379,148.395492567186 79.63421640603337,148.21998586313566 79.77210341533646,148.01940665827715 80.00191509735305,147.8940445931803 80.23172677948605,147.84389975381782 80.46153846150264,147.61824788202648 80.9671241621254,146.8911463545519 81.28886051708832,146.01360789043247 81.47270986274816,145.7628821854305 81.656559208408,145.38679327003774 81.70252154476475,145.38679327003774 81.74848388123792,145.48708368945518 81.93233322701417,145.5121562895365 82.30003191821743,145.78795476446976 82.39195659116376,145.78795476446976 82.71369294612668,145.66259185000672 82.89754229178652,145.48708368945518 83.05841046909336,145.4620110874821 83.1503351420397,145.36172066035215 83.26524098298978,145.38679327003774 83.54101500159595,145.2614302027796 83.88573252479546,144.93548600457143 84.0466007021023,144.88534071471076 84.3913182253018,144.91041336063063 84.82796042133123,144.7599774565315 84.98882859875448,144.58446881495183 85.1956591126509,143.9576514743676 85.40248962654732,143.8824333132943 85.49441429937724,143.9576514743676 85.56335780397058,143.9576514743676 85.70124481327366,143.757069673331 85.83913182246033,143.73199693963397 85.95403766364325,143.6567787270178 85.93105649529025,143.38097846717574 86.0,143.3308329405554 86.0,143.20546909066616 85.8850941589335,143.10517797633656 85.79316948610358,142.85445005696965 85.81615065422375,142.57864912512014 85.74720714974683,142.40313932095887 85.47143313125707,141.82646359151113 85.28758378548082,141.6008075964055 84.8739227578044,141.2999326957215 84.59814873919822,141.17456807257258 83.95467602938879,141.07427633972839 83.70188317913562,141.09934927584254 82.82859878707677,141.35007853157003 82.71369294612668,141.37515144667123 82.71369294612668,141.3250056146062 82.39195659116376,141.47544308789656 82.116182572674,141.5005159933935 79.19757421000395,142.20255657311645 79.08266836905386,142.27777511789463 79.08266836905386,142.2276294232579 76.89945738902315,142.7792316439154 76.14107883814722,142.87952285745996 75.98021066072397,143.10517797633656 75.08394510054495,143.20546909066616 74.9230769231217,143.30576017443673 74.87711458664853,143.43112398614176 74.87711458664853,143.35590570481145 74.78518991381861,143.3308329405554 74.39451005426235,143.43112398614176 74.21066070871893,143.35590570481145 73.72805617621634,143.38097846717574 73.68209383974317,143.35590570481145 73.08458346640691,143.38097846717574 72.85477178415749,143.2556146363204 71.72869454196189,143.30576017443673 71.65975103725214,143.3308329405554 71.68273220548872,143.40605122764828 71.54484519630205,143.3308329405554 70.67156080435961,143.3308329405554 70.2349186084466,143.28068740633898 70.0970315990271,143.30576017443673 67.5920842642663,143.2556146363204 67.10947973188013,143.30576017443673 66.30513884453103,143.20546909066616 64.67347590171266,143.35590570481145 64.03000319178682,143.30576017443673 63.8231726778904,143.1553235373285 63.54739865940064,143.05503240777762 63.40951165021397,143.0801051929884 63.2486434726743,143.20546909066616 63.271624640910886,143.1553235373285 63.087775295134634,143.10517797633656 62.628151931101456,143.1553235373285 62.35237791237887,143.43112398614176 62.16852856683545,143.5314150012273 61.38716884772293,143.4561967428017 60.97350782004651,143.48126949751168 60.7436961379135,143.5815604972595 59.77848707314115,143.5815604972595 59.7095435684314,143.6066332423943 59.57165655924473,143.85736058914335 59.364826045231894,143.93257875589188 59.203957867925055,143.9576514743676 59.043089690385386,143.83228786304244 58.95116501743905,143.6066332423943 58.721353335422464,143.6567787270178 57.9859559526667,143.6317059856956 57.480370252160355,143.757069673331 56.99776571977418,143.7069242040452 56.67602936481126,143.757069673331 55.82572614098899,143.80721513504977 55.45802744978573,143.757069673331 55.27417810400948,143.48126949751168 55.27417810400948,143.55648775020381 54.95244174916297,143.5063422503008 54.65368656243663,143.5815604972595 54.53878072137013,143.6317059856956 54.400893712067045,143.80721513504977 53.0909671242116,143.9576514743676 52.72326843277551,143.93257875589188 52.14873922755942,144.0328696182405 50.99968081712723,144.0579423290037 50.3562081073178,144.1582331531681 49.45994254713878,144.13316045000101 48.747526332503185,144.2585239467444 48.19597829564009,144.40896007986157 47.23076923075132,144.35881470976165 46.748164698365144,144.3838873957866 46.70220236200839,144.30866933209472 46.70220236200839,144.35881470976165 46.403447175282054,144.5092507970985 46.05872965208255,144.48417812067783 45.75997446535621,144.40896007986157 45.78295563359279,144.3838873957866 45.64506862440612,144.4591054423363 45.34631343756337,144.4340327620448 44.679859559517354,144.5092507970985 44.289179699961096,144.48417812067783 44.05936801794451,144.53432347159833 43.62272582191508,144.5092507970985 42.9103096073959,144.58446881495183 42.12894988828339,144.53432347159833 41.715288860490546,144.73490479923203 41.30162783281412,144.53432347159833 41.163740823511034,144.55939614432282 41.23268432810437,144.55939614432282 41.163740823511034,144.48417812067783 40.49728694546502,144.53432347159833 40.2904564315686,144.63461415070924 40.19853175873868,144.73490479923203 40.22151292685885,144.6596868156921 40.1755505905021,144.68475947872503 40.01468241296243,144.6596868156921 39.853814235539176,144.7850501119683 38.727736993227154,144.81012276554247 38.084264283417724,144.91041336063063 37.83147143316455,144.88534071471076 36.88924353662878,144.9605586466787 36.567507181549445,144.93548600457143 36.61346951802261,144.86026806684094 36.429620172362775,144.9605586466787 36.429620172362775,144.86026806684094 36.03894031280652,144.88534071471076 36.10788381739985,144.88534071471076 35.924034471740015,144.93548600457143 34.68305138847791,145.01070392513066 34.3383338652784,144.93548600457143 33.212256623082794,145.0608491959283 33.07436961366329,145.01070392513066 32.614746249630116,145.01070392513066 32.45387807209045,145.0859218284604 32.06319821253419,145.0859218284604 31.92531120334752,145.1611397146189 31.580593680148013,145.13606708782027 30.707309288321994,145.1862123394967 30.477497606072575,145.13606708782027 30.362591765122488,145.1862123394967 29.788062559906393,145.1611397146189 29.374401532113552,145.2614302027796 28.799872326897457,145.2865028200904 28.66198531759437,145.336648048833 28.547079476644285,145.48708368945518 28.432173635461368,145.68766443667118 28.363230130868033,146.06375300846412 28.363230130868033,146.8159288635361 28.45515480369795,147.51795811162447 28.386211299104616,147.8940445931803 28.478135971934535,148.57099917769665 28.432173635461368,148.77157804663875 28.524098308291286,149.64910916177905 28.386211299104616,150.3009879050951 28.4091924673412,151.1534427764127 28.45515480369795,151.2286592767632 28.593041813001037,151.17851494514616 28.63900414935779,151.20358711192966 28.63900414935779,151.1534427764127 28.432173635461368,152.0058954412816 28.570060644648038,151.62981365525047 28.524098308291286,152.18140012785443 28.478135971934535,152.25661639336613 28.501117140054703,152.43212094635237 28.432173635461368,152.43212094635237 28.547079476644285,153.51021829099045 28.478135971934535,153.68572217589826 28.524098308291286,154.66352782261674 28.478135971934535,154.71367162367096 28.386211299104616,154.68859972408973 28.087456112378277,154.76381541712908 27.466964570689015,154.71367162367096 27.466964570689015,154.5632401976036 27.30609639326576,154.6133840138791 26.73156718793325,154.98946239313227 26.501755505916663,154.98946239313227 26.455793169443496,154.93931863401667 26.294924992020242,154.9643905145058 26.294924992020242,155.0145342697797 25.927226300700568,154.98946239313227 25.58250877750106,155.06467801737017 25.513565272907726,155.13989362452412 25.513565272907726,155.08974988837144 25.19182891806122,155.16496548979194 24.82413022662513,155.03960614456446 24.571337376255542,155.2151092144777 24.364506862591952,155.26525293156737 24.24960102129262,155.1900373530807 23.445260134059936,155.1900373530807 23.353335461230017,155.13989362452412 22.824768592370674,155.2151092144777 22.778806256013922,155.16496548979194 22.66390041494742,155.24018107395386 22.250239387270994,155.26525293156737 21.74465368653182,155.4407558812818 21.330992658738978,155.340468492941 21.262049154145643,155.24018107395386 21.055218640249223,155.340468492941 21.055218640249223,155.41568403708516 20.38876476220321,155.365540342842 19.929141398053616,155.41568403708516 19.51548037014436,155.340468492941 19.400574529194273,155.41568403708516 19.23970635177102,155.39061219090945 18.550271305372007,155.4658277236158 18.18257261416875,155.4407558812818 17.81487392273266,155.5410432391218 17.58506224071607,155.51597140255035 17.493137567769736,155.56611507380148 17.033514203620143,155.59118690661853 16.642834344063886,155.56611507380148 16.550909671233967,155.61625873745652 16.206192148150876,155.59118690661853 15.677625279291533,155.66640239351545 15.51675710186828,155.61625873745652 15.447813597158529,155.51597140255035 15.470794765511528,155.66640239351545 15.65464411105495,155.51597140255035 15.723587615648285,155.56611507380148 15.608681774698198,155.61625873745652 15.562719438225031,155.56611507380148 15.51675710186828,155.71654604189098 15.126077242312022,156.04247957031475 15.401851260801777,155.91712055911194 15.51675710186828,155.74161786327022 15.539738269988447,155.91712055911194 15.51675710186828,155.6914742186491 15.42483242903836,155.61625873745652 15.42483242903836,155.6914742186491 15.493775933631696,155.61625873745652 15.493775933631696,156.01740777189843 15.35588892432861,155.79176150012063 15.401851260801777,156.1678385338746 15.493775933631696,156.29319744964596 15.746568783884868,155.89204875112046 15.263964251498692,155.71654604189098 14.528566868859343,155.61625873745652 14.390679859672673,155.41568403708516 14.137887009303086,155.2151092144777 14.114905841066502,155.08974988837144 14.0,154.98946239313227 14.022981168236583,153.96151380610536 14.114905841066502,153.63557821832364 14.137887009303086,152.90848997567082 14.413661027676426,152.55748128399136 14.643472709925845,152.4822650871356 15.401851260801777,152.35690472082933 15.539738269988447,152.43212094635237 15.677625279291533,152.38197679788573 15.723587615648285,152.18140012785443 15.65464411105495,152.10618384502595 15.65464411105495,151.95575122794253 15.769549952237867,151.7802464212 16.137248643441126,151.60474152091774 16.43600383028388,151.60474152091774 16.757740185013972,151.5044529644365 16.826683689723723,151.55459724651882 16.780721353250556,151.5044529644365 16.757740185013972,151.55459724651882 16.780721353250556,151.5044529644365 16.504947334877215,151.3540200725547" stroke="#4dd2ff" stroke-linecap="round" stroke-linejoin="round" stroke-width="0.5"><title>2022-03-05 8.3km</title></polyline><polyline fill="none" points="122.20548864116427,122.36646578213549 121.6502924093511,122.59360768683837 121.26859499991406,122.63146466083708 120.71339876798447,122.97217729745898 120.74809853255283,123.50217426809832 120.47050041647162,123.80502942632302 120.47050041647162,124.07002753842971 120.74809853255283,124.48645285790553 121.51149335119408,124.33502550938283 122.20548864116427,124.07002753842971 122.86478416644968,124.10788440008764 123.45468016294762,123.80502942632302 123.76697804324795,123.99431380652823 124.28747451072559,123.80502942632302 125.01616956526414,124.25931181773194 124.84267074253876,124.10788440008764 124.73857144906651,124.14574125880608 124.98146980057936,123.72931565405452 125.2937676809961,124.03217067397782 125.84896391292568,123.95645693625556 127.61865190195385,124.18359811470145 128.27794742758851,123.88074318700819 128.79844389494974,123.99431380652823 129.2842405976262,124.3728823508136 129.5618387137074,124.33502550938283 129.66593800717965,124.41073918933398 129.7700373006519,123.95645693625556 129.66593800717965,123.76717254155665 129.49243918457069,123.88074318700819 129.45773942035157,124.07002753842971 129.5618387137074,124.29716866504168 129.6312382427277,124.18359811470145 129.7700373006519,124.52430968781118 130.18643447454087,124.10788440008764 130.7069309419021,123.88074318700819 131.36622646718752,123.99431380652823 131.47032576077618,124.25931181773194 131.50502552534454,124.03217067397782 131.74792387685739,124.14574125880608 132.30312010855414,123.95645693625556 132.96241563395597,123.91860006313073 133.58701139490586,123.99431380652823 134.00340856879484,123.80502942632302 134.66270409419667,123.95645693625556 136.08539443835616,123.76717254155665 136.29359302530065,123.91860006313073 136.81408949266188,123.61574497402762 137.4039854890434,123.6914587636129 137.6121840759879,123.3886035362084 137.8897821919527,123.54003117297543 138.06328101444524,124.29716866504168 137.71628336946014,124.67573697876651 137.6121840759879,125.281445681263 137.4733850180637,125.3571592172666 137.4733850180637,126.26572074947762 137.1610871377634,126.26572074947762 137.09168760851026,126.6064308960631 137.4733850180637,127.0228540916869 137.43868525361177,127.8178428602987 137.71628336946014,128.80211290848092 137.7509831339121,128.6885433869611 138.30617936584167,129.48352949289256 138.27147960138973,130.27851432806347 138.0285812499933,130.99778522676206 137.7509831339121,131.45206104792305 137.4039854890434,131.71705508526065 137.6121840759879,131.7927676413965 137.7509831339121,132.47418012825074 137.7509831339121,132.92845460071112 137.50808478251565,133.3448725027265 137.6121840759879,134.70769228957943 137.7509831339121,135.691948702035 137.542784547084,136.60049135403824 137.68158360489178,137.09261793081532 137.6121840759879,138.26614857208915 137.8897821919527,138.8718407228589 137.92448195652105,139.81823323189747 137.6121840759879,140.15893409424461 137.71628336946014,140.6889127496397 137.8203826630488,140.49963472329546 137.6121840759879,141.48387967402232 138.0285812499933,142.20313436776632 137.99388148542494,142.8466771595413 138.23677983693779,142.77096628613072 137.99388148542494,143.60378526037675 137.99388148542494,145.34512951865327 138.16738030791748,146.1022338164912 137.9591817210894,146.93504721316276 138.16738030791748,147.88142438032082 138.13268054346554,149.28205928349053 138.0285812499933,149.66060858024866 138.30617936584167,150.37985145053244 138.30617936584167,150.75839991192333 138.06328101444524,151.09909328084905 138.20208007236943,151.36407685099402 138.34087913052645,153.02968463065918 137.99388148542494,153.63535880413838 138.0285812499933,154.80885041688452 138.34087913052645,156.43659226433374 138.20208007236943,158.32930864550872 138.41027865943033,159.65420582756633 138.34087913052645,159.994893104129 138.44497842388228,160.03274723154027 138.30617936584167,160.52485062606866 138.16738030791748,160.6005587973923 138.23677983693779,161.054807583394 137.9591817210894,161.7740339798329 138.06328101444524,162.26613565193838 137.8897821919527,163.0989219879557 138.16738030791748,163.40175303732394 137.8897821919527,164.91590551892295 137.8897821919527,165.78654110917705 137.57748431153595,166.27863881230587 138.13268054346554,166.5814679262112 138.30617936584167,166.99785765679553 138.27147960138973,168.66341309415293 138.41027865943033,168.85268040464143 138.30617936584167,169.4583353145572 138.3755788949784,170.0639894871565 138.30617936584167,170.48037630313775 138.44497842388228,171.04817594512133 138.3755788949784,171.27529562055133 137.85508242761716,171.88094758134685 137.50808478251565,171.99450724190683 137.02228807960637,171.88094758134685 136.77938972820994,172.07021366787376 136.84878925723024,172.1080668765062 136.46709184790961,172.07021366787376 136.05069467390422,172.37303925663582 136.05069467390422,174.00072363825166 135.53019820642658,174.75778432717198 135.66899726435076,175.09846126136836 135.56489797099493,175.66625563323032 135.87719585152809,176.08263776090462 136.08539443835616,176.08263776090462 136.64059067028575,175.81766735640122 137.19578690209892,175.89337320061168 137.33458596013952,176.08263776090462 137.1610871377634,176.46116666545277 137.26518643111922,176.57472528066137 138.20208007236943,176.53687241178704 138.47967818845063,176.38546090753516 138.8960753622232,176.53687241178704 139.69416994566564,176.53687241178704 140.21466641314328,176.49901954006054 140.83926217386033,176.38546090753516 142.57425039855298,176.53687241178704 143.06004710146226,176.46116666545277 143.2335459238384,176.65043100967887 143.82344192033634,176.8396952819894 144.34393838769756,176.53687241178704 144.89913461962715,176.57472528066137 145.3155317933997,176.53687241178704 145.66252943850122,176.38546090753516 145.5931299093645,176.49901954006054 146.66882260877173,176.49901954006054 147.25871860526968,176.6125781466544 149.09780612320174,176.53687241178704 150.31229788064957,176.65043100967887 150.72869505442213,176.7639895817556 151.14509222842753,176.6125781466544 152.04728610510938,176.68828386999667 152.29018445673864,176.6125781466544 152.29018445673864,176.7639895817556 152.18608516314998,176.65043100967887 152.81068092398345,176.72613672722946 153.57407574297395,176.65043100967887 154.51096938410774,176.9911066480563 155.72546114143915,177.18037079070928 156.4541561958613,177.40748766693287 157.04405219224282,177.29392924174317 157.04405219224282,177.40748766693287 158.18914442043751,177.67245722486405 158.57084182975814,177.63460443954682 158.91783947485965,177.8617211083474 159.19543759070802,177.8617211083474 159.16073782625608,178.01313216343988 159.36893641320057,177.93742664161255 159.54243523569312,178.20239591732388 159.9588324095821,178.0509849199443 160.30583005445078,178.20239591732388 160.40992934815586,178.08883767362568 160.65282769943587,178.08883767362568 161.41622251830995,178.2781013987842 161.90201922121923,178.50521777389804 163.56760791677516,178.69448134073173 165.3025961414678,179.07300825830316 165.9271919024177,179.337976929266 166.5864874277031,179.98147168566356 167.453981539933,180.28429245948792 167.69687989156228,180.6249656098662 168.18267659447156,180.7006707227265 168.4949744748883,181.04134358794545 169.1542700001737,181.15490115788998 169.3624685871182,181.3820162199554 169.9870643481845,181.53342620376498 171.1321565762628,182.17691812096746 172.90184456540737,183.4260471141024 173.52644032635726,183.57745647596312 174.4633339678403,184.03168428500067 174.81033161259256,184.41020714255865 175.99012360535562,184.86443419154966 177.37811418506317,185.65933052951004 179.0437028807355,186.0 179.3213009967003,185.5457739875419 179.52949958352838,185.5079218011815 179.49479981907643,185.01584311571787 178.52320641337428,184.78872971213423 178.34970759099815,184.86443419154966 178.4538068844704,184.9022864268918 178.3150078264298,184.86443419154966 178.3844073554501,184.86443419154966 178.07210947491694,184.67517297159065 177.86391088797245,184.14524117248948 178.03740971034858,182.6689996138448 177.9680101814447,182.44188513909467 178.07210947491694,181.76054109309916 178.21090853284113,181.30631121085025 178.07210947491694,180.13288209564053 178.34970759099815,179.5272401793045 178.4538068844704,177.3696348615049 177.79451135906857,177.29392924174317 177.27401489170734,176.4233137879055 176.78821818868164,176.23404935727012 176.51062007271685,176.34760802434175 175.12262949312571,176.23404935727012 174.56743326131254,176.30975513820886 173.80403844220564,176.65043100967887 173.11004315235186,176.30975513820886 172.65894621412735,176.15834356480627 172.17314951121807,176.27190224916558 171.8261518663494,176.1961964624643 170.29936222860124,176.08263776090462 170.19526293501258,176.15834356480627 169.7788657611236,176.04478485451546 168.52967423934024,176.30975513820886 167.8009791849181,176.04478485451546 167.69687989156228,176.23404935727012 166.75998625019565,176.30975513820886 166.48238813434727,176.4233137879055 166.5864874277031,176.46116666545277 166.55178766325116,176.53687241178704 166.0659909605747,176.49901954006054 165.8577923735138,176.38546090753516 165.33729590603616,176.27190224916558 164.26160320662893,176.30975513820886 164.05340461980086,176.23404935727012 163.810506268288,176.34760802434175 163.22061027190648,176.30975513820886 162.8736126270378,176.15834356480627 162.00611851469148,176.23404935727012 161.5897213408025,176.1204906643252 161.41622251830995,175.81766735640122 161.5203218117822,175.47699091464165 161.34682298928965,175.09846126136836 160.75692699290812,174.90919632665464 160.47932887705974,174.37925412671757 160.20173076109495,171.50241519222618 160.37522958347108,170.5939362832869 160.30583005445078,170.10184284846764 160.0282319386024,169.53404212647 159.92413264513016,168.4362922264263 160.0976314676227,167.45210060171667 159.9588324095821,165.59727263223613 160.20173076109495,165.06732051368454 160.23643052543048,164.34809887837037 160.06293170305435,164.04526840517065 159.85473311622627,162.98536029705429 159.92413264513016,161.54690996697173 159.8200333515415,161.3197858504427 159.9588324095821,159.994893104129 160.0976314676227,159.80562242364977 160.30583005445078,159.76776827900903 160.34052981901914,159.65420582756633 160.27113028999884,159.27566413561 160.0976314676227,159.1999557626841 160.0282319386024,158.9349763665523 159.85473311622627,158.8592679417343 159.78533358708955,158.17789160000393 159.8200333515415,155.86877594562247 160.06293170305435,155.11168651265325 159.71593405818567,154.69528683341923 159.8894328806782,153.4460857041704 159.85473311622627,152.91612064104993 159.99353217415046,152.61328320854227 160.37522958347108,152.15902671421645 160.13233123207465,151.36407685099402 160.13233123207465,150.30414172375458 159.92413264513016,149.73631840507733 159.99353217415046,148.07069959773798 159.85473311622627,147.65429402442533 160.06293170305435,146.74577156367013 159.78533358708955,146.17794418297126 159.92413264513016,145.26941902562976 159.7506338225212,145.04228747697198 159.85473311622627,144.47445815161336 159.7506338225212,143.60378526037675 159.54243523569312,143.22523135400843 159.47303570667282,141.90029041294474 159.36893641320057,135.6162367395009 159.43833594222087,135.04839665273903 159.29953688429669,134.10199506749632 159.29953688429669,132.0577614972135 159.40363617776893,131.60348622934544 159.29953688429669,129.8242374350375 159.40363617776893,129.55924238910666 159.43833594222087,129.02925187372603 159.36893641320057,128.76425640410162 159.50773547124118,128.4614042660396 159.2648371196119,128.23426504147938 159.16073782625608,128.3099781278579 159.29953688429669,128.27212158605107 159.2301373553928,127.24999386956915 159.05663853266742,127.24999386956915 159.09133829723578,127.3635637195257 158.9525392393116,127.24999386956915 158.18914442043751,127.3635637195257 157.91154630447272,127.13642399359378 157.2522507790709,127.32570710568689 157.3910498371115,127.2121372470865 156.55825548921712,127.28785048905411 156.14185831544455,127.43927693847218 155.65606161253527,127.17428062172257 155.413163260906,127.24999386956915 155.51726255449466,127.17428062172257 154.85796702909283,127.28785048905411 154.6844682066003,127.40142033045413 154.71916797128506,127.47713354360894 154.37217032629997,127.28785048905411 153.64347527187783,127.47713354360894 152.46368327911478,127.3635637195257 151.45739010872785,127.47713354360894 151.17979199287947,127.55284674529685 151.1103924639756,127.40142033045413 150.65929552540183,127.66641652619 149.4101040037349,127.8178428602987 149.1325058878865,127.74212969900691 148.9937068297295,127.59070334181888 148.75080847844947,127.66641652619 146.80762166669592,127.66641652619 145.94012755446602,127.55284674529685 145.87072802556213,127.40142033045413 145.94012755446602,127.09856736243819 146.1483261414105,127.17428062172257 146.2871251993347,127.06071072845953 146.04422684793826,126.26572074947762 146.04422684793826,125.47072949953144 146.25242543488275,125.3571592172666 146.25242543488275,124.71359379429487 146.1483261414105,123.99431380652823 145.76662873185705,123.6914587636129 145.94012755446602,123.50217426809832 145.48903061600868,123.31288970055175 144.7256357971346,122.74503556566196 144.23983909422532,122.8964633983851 143.85814168478828,123.42646044975845 143.33764521731064,123.54003117297543 143.2335459238384,123.46431736036902 143.19884615950286,123.19931892550085 142.78244898561388,123.3886035362084 142.57425039855298,123.3886035362084 142.2272527536843,123.1236050609732 141.8802551086992,123.08574812446022 140.3881652355194,123.27503277844517 140.24936617771164,123.16146199472132 140.00646782608237,123.16146199472132 139.59007065207697,122.48003674743813 139.76356947456952,122.06360974785639 139.69416994566564,122.10146676222212 139.59007065207697,121.95003868741333 139.5206711231731,122.02575273058028 139.48597135860473,122.29075179088977 139.13897371385247,122.25289479084313 139.34717230068054,122.4043227735092 139.27777277166024,122.48003674743813 139.2430730072083,122.10146676222212 139.2430730072083,122.25289479084313 139.13897371385247,122.10146676222212 138.93077512667514,122.02575273058028 139.13897371385247,122.17718078236794 139.27777277166024,121.83646760100964 139.27777277166024,121.95003868741333 139.4512715941528,121.91218166152248 139.34717230068054,121.91218166152248 139.41657182970084,122.25289479084313 139.38187206513248,122.32860878796782 139.34717230068054,122.06360974785639 139.3124725362286,122.63146466083708 139.41657182970084,122.5178937301971 139.34717230068054,122.29075179088977 141.15156005427707,120.96575507722446 141.56795722828247,121.68503944558324 142.57425039855298,122.13932377376477 139.48597135860473,122.74503556566196 138.72257653984707,122.48003674743813 138.86137559777126,122.29075179088977 138.79197606875096,122.10146676222212 139.41657182970084,122.25289479084313 139.5206711231731,122.10146676222212 139.27777277166024,121.53361124396906 139.4512715941528,121.1171834518318 139.4512715941528,120.13289819314377 139.69416994566564,119.07289650497842 139.62477041676175,118.12646451691398 139.41657182970084,116.72574186869315 139.4512715941528,114.94643984219874 139.5206711231731,114.64357928870595 139.27777277166024,114.03785762834013 139.06957418459933,114.18928811262595 139.00017465581186,114.0 137.85508242761716,114.11357287617284 137.7509831339121,114.37857615304529 137.50808478251565,114.49214894277975 137.50808478251565,115.40073032656801 137.29988619568758,115.55216039574589 137.43868525361177,115.89287788287038 137.33458596013952,115.96859284839593 137.71628336946014,118.24003645061748 137.64688384055626,118.20217914218665 137.4039854890434,118.84575299211429 137.26518643111922,118.80789572987123 137.12638737319503,118.99718201218639 136.50179161212873,119.14861098621623 135.00970173894893,119.18646822252776 134.52390503627248,118.95932476149756 133.6911106883781,118.95932476149756 133.72581045283005,119.11075374702341 133.5523116303375,119.11075374702341 133.5523116303375,119.22432545589982 133.34411304350942,119.41361157974461 132.99711539852433,118.99718201218639 132.96241563395597,119.03503926005214 132.2684203441022,118.99718201218639 132.09492152172606,118.77003846480511 132.129621286178,118.95932476149756 132.09492152172606,118.84575299211429 131.81732340576127,118.80789572987123 131.57442505424842,119.11075374702341 131.22742740937974,118.95932476149756 131.0539285868872,118.99718201218639 131.0539285868872,118.88361025153426 130.60283164842986,119.262182686507 129.80473706510384,119.48932600906119 129.18014130415395,119.37575436069164 128.59024530788884,119.52718321944121 128.0697488404112,119.37575436069164 127.72275119554251,119.45146879582899 127.13285519916099,119.30003991408739 127.30635402153712,119.07289650497842 127.09815543459263,119.07289650497842 127.0634556702571,118.99718201218639 126.716458025272,119.33789713887381 125.91836344182957,119.41361157974461 125.71016485476866,119.33789713887381 125.53666603250895,119.64075483326451 124.98146980057936,119.37575436069164 124.56507262669038,119.41361157974461 124.4956730977865,119.262182686507 124.28747451072559,119.30003991408739 124.14867545268498,119.45146879582899 123.41998039837927,119.48932600906119 123.28118134045508,119.71646922800574 123.17708204686642,120.47361254156567 123.2464815757703,121.0036121752346 123.35058086947538,120.96575507722446 123.07298275339417,121.30646885509486 122.13608911202755,120.89004087273497 122.10138934769202,121.1171834518318 122.30958793463651,121.72289648873266 121.99729005421977,121.72289648873266 122.27488817018457,122.25289479084313 122.20548864116427,122.78289252816467" stroke="#4dd2ff" stroke-linecap="round" stroke-linejoin="round" stroke-width="0.5"><title>2022-02-26 8.4km</title></polyline><polyline fill="none" points="75.52483748970553,194.43721428816207 76.2338607533602,194.40358243515948 76.41882334381808,194.5381098315993 77.31280919804703,194.3026868609013 77.77521567430813,194.3026868609013 78.33010344568174,194.4708461385162 78.91581831569783,194.2354231319914 79.37822479184251,194.43721428816207 80.08724805549718,194.3363187216164 80.7037900238065,194.0672637647658 81.07371520495508,194.201791263622 83.13913079898339,194.0 83.75567276729271,194.03363188367803 83.97146245616022,194.13452751934528 84.12559794832487,194.40358243515948 83.72484566888306,195.74885455641197 83.97146245616022,197.02685927733546 83.90980825934093,197.69949185609585 83.97146245616022,197.83401824897737 83.78649986558594,198.13670248317067 83.63236437365413,198.035807761451 83.84815406252164,198.00217618249008 84.12559794832487,198.87659640490892 83.97146245616022,200.18822349357652 84.03311665297952,200.35638053101138 83.87898116093129,201.02900804087403 84.12559794832487,202.74420355606708 83.97146245616022,202.71057233551983 83.817326964112,202.84509720254573 83.94063535775058,203.51772092364263 83.817326964112,203.8876635337947 83.90980825934093,204.59391674760263 83.75567276729271,205.3337998560164 83.84815406252164,206.04005075831083 84.03311665297952,206.2082055687206 83.97146245616022,207.0489786604885 84.21807924343739,208.22605830145767 84.18725214514416,208.39421227978892 83.90980825934093,208.79778156703105 84.00228955468629,208.6296277421061 84.03311665297952,209.60491903559887 84.18725214514416,210.17664051710744 84.03311665297952,210.3784243928676 84.06394375138916,211.62275625683833 83.90980825934093,212.73256280078203 84.00228955468629,214.1450398256129 83.90980825934093,214.6158644973475 84.12559794832487,217.64258255137247 84.00228955468629,218.1806635906978 84.21807924343739,218.14703354498488 84.03311665297952,219.0550438822538 84.15642504673451,219.76127285472467 83.97146245616022,220.1648317608633 84.12559794832487,221.57728503024555 84.21807924343739,221.71180415377603 84.46469603083096,221.67817437674967 84.58800442446955,221.8799530006654 84.46469603083096,222.2835099720687 84.27973344048951,222.51891803520266 84.58800442446955,223.66232684394345 84.43386893253773,225.24291650258237 84.12559794832487,225.54558196259313 84.00228955468629,226.18454169738106 84.12559794832487,228.23593249704572 84.24890634196345,228.23593249704572 84.27973344048951,228.13504464758444 84.31056053866632,228.2023032165016 84.37221473560203,228.97577602305682 84.52635022776667,229.44658489475842 84.49552312924061,230.11916812718846 84.15642504673451,231.63247665794916 84.46469603083096,232.27142759301933 84.27973344048951,233.01126436385675 84.64965862140525,233.2802956099331 84.31056053866632,233.78472875477746 84.52635022776667,235.66794074256904 84.34138763719238,236.508657789469 83.84815406252164,237.01308725005947 83.32409338955767,236.91220140396035 83.20078499580268,236.71042964281514 82.73837851942517,237.2148588731361 82.61507012578659,237.14760167564964 82.52258883067407,237.24848746799398 82.43010753544513,237.75291608431144 82.27597204328049,237.9210588284477 82.58424302737694,238.62725765557843 82.43010753544513,239.03079933591653 81.78273846849333,239.33345535441185 80.08724805549718,239.5015974973503 79.99476676038466,239.40071221921244 79.37822479184251,239.40071221921244 78.7000286267139,239.53522591825458 78.48423893784638,239.33345535441185 77.43611759168562,238.9971708765952 75.3707019976573,238.5263721779047 75.30904780095443,238.59362916558166 74.47671614354476,238.19008708611364 74.16844515944831,238.25734412492602 73.21280510840006,238.02194444424822 72.9045341241872,237.75291608431144 72.78122573066503,237.82017318959697 72.75039863225538,237.68565896872315 72.9045341241872,237.95468736966723 72.8428799273679,238.05557297775522 72.34964635258075,238.02194444424822 71.67145018756855,237.55114470684202 70.96242692391388,237.181230275688 70.74663723492995,236.94583002195577 70.03761397150811,237.24848746799398 69.85265138093382,238.25734412492602 69.54438039672095,238.62725765557843 68.86618423147593,238.96354241482913 68.46543195203412,238.92991395032732 68.40377775533125,239.29982691816986 68.2496422631666,239.5015974973503 68.06467967259232,239.43434064782923 67.75640868849587,239.56885433668504 67.75640868849587,239.97239515729598 67.72558159008622,240.17416542951833 67.26317511370871,240.77947569356184 67.1090396217769,240.7458473673032 66.83159573597368,240.91398897304316 66.73911444062833,240.77947569356184 66.1842266691383,240.54407735608402 65.93760988174472,240.64496237313142 65.3210679134354,241.25027199249598 64.55039045307785,241.45204168147757 64.51956335466821,241.62018301856006 64.02632977988105,242.1246066460444 63.841367189539596,242.09097842211486 63.718058795901015,241.88920902481186 63.59475040214602,242.1246066460444 63.317306516342796,242.05735019565327 63.13234392576851,242.15823486741283 62.73159164644312,242.5281451335759 62.70076454791706,242.76354241452646 62.4541477606399,242.93168325271108 62.42332066211384,243.16708031878807 62.23835807177238,243.2679647372861 61.930087087559514,243.2679647372861 61.62181610323023,243.032567724993 61.31354511925019,242.96531141272862 60.296250871382654,243.43610538367648 59.741363099892624,243.16708031878807 59.340610820334405,243.2343366003479 60.450386363547295,244.10866732953582 60.450386363547295,244.47857596355607 60.75865734776016,244.88211230226443 60.60452185559552,245.3865322075144 60.820311544579454,245.65555592175224 61.03610123344697,246.46262608186225 61.96091418596916,247.97587866074173 61.99174128449522,248.74931686726632 62.14587677642703,248.9174554288329 62.05339548131451,249.25373235999723 61.40602641447913,249.42187072959496 61.2518909224309,248.9174554288329 60.820311544579454,248.98471083547338 60.54286765877623,249.59000903536798 58.44662496633828,251.40589866231312 58.53910626168363,251.3386436238652 58.816550147370435,251.5740362133365 58.909031442715786,252.07844848313835 59.03233983635437,252.4483504484524 58.693241753731854,252.68374244705774 58.261662375880405,252.81825210424722 58.076699785422534,253.05364390602335 57.275195226538926,253.45717241728562 56.90527004539035,253.89432788887643 56.50451776618138,254.09609180680127 56.04211128980387,254.7350102730852 55.11729833728168,255.4075550294947 54.90150864829775,255.7438270240673 54.31579377851449,255.91196292551467 53.85338730213698,256.5845058915438 53.452635022695176,256.5172516409366 53.57594341633376,256.61813301293296 53.23684533382766,256.7862685818109 53.23684533382766,256.5508787675062 53.23684533382766,256.6517601318192 53.329326629056595,256.5845058915438 52.99022854643408,256.8535227914399 52.897747251205146,257.08891244465485 52.40451367653441,257.12253952771425 52.620303365401924,257.08891244465485 52.43534077494405,257.35792903768015 51.78797170810867,257.79508065225673 51.72631751128938,257.72782658590586 51.10977554298006,258.36673980375053 50.09248129511252,259.14015983228455 48.42781798064243,260.1489665317931 47.965411504381336,260.3171007579658 47.53383212652989,260.686995830416 46.331575288204476,261.090517374716 44.512776481569745,261.99843950293143 44.05037000530865,261.7630524635024 40.56690788408741,263.1753728201729 38.28570260119159,263.78065159203834 36.22028700716328,264.2514233973634 34.648104987922125,264.82307420135476 30.9796802761266,265.39472426625434 30.517273799981922,265.5628564976214 30.45561960316263,265.1929655041604 30.27065701270476,265.0584596116678 28.729302091756836,265.36109781224513 27.157120072399266,265.36109781224513 26.602232300909236,265.46197716644383 26.324788415106013,265.36109781224513 25.831554840435274,265.6301093722577 25.46162965951953,266.0 25.184185773716308,265.8654943529691 25.060877380077727,265.59648293617647 24.75260639586486,265.46197716644383 23.334559868555516,265.39472426625434 22.902980490820482,265.46197716644383 23.457868262426928,265.4956036127696 22.71801790036261,265.4956036127696 19.75861645222176,265.2602184350835 19.604480960057117,265.15933903490077 19.727789353695698,264.722194701375 15.658612362691201,263.1753728201729 15.350341378478333,262.8727331235423 15.350341378478333,262.6373465495708 18.032298940815963,256.7526414731401 18.309742826619186,256.48362451186404 18.24808862968348,255.67657264563604 18.37139702332206,255.0376555401017 18.27891572820954,255.1385372497607 18.27891572820954,255.2730461600877 18.556359613896348,254.53324664666434 19.080420287093148,254.12971911759814 19.049593188567087,254.02883717778604 19.111247385386378,253.49079977654037 19.142074483912438,253.59168183914153 18.95711189333815,253.5244271333213 19.203728680615313,253.3899176909763 19.049593188567087,253.35629032397992 18.802976401289925,253.55805448754109 17.724027956603095,253.72619122016476 17.508238267735578,253.65893653480452 17.878163448767737,253.5244271333213 18.032298940815963,253.32266295445152 17.539065366145223,253.18815345061012 18.37139702332206,253.28903558230377 18.402224121731706,253.18815345061012 18.063126039225608,253.2554082076531 18.093953137518838,253.120898683439 17.970644743996672,253.08727129604085 17.970644743996672,252.95276172060403 18.001471842406318,253.08727129604085 17.63154666137416,253.49079977654037 16.922523397835903,253.28903558230377 16.953350496245548,253.15452606830513 17.32327567716129,253.15452606830513 17.138313086819835,253.28903558230377 17.292448578751646,253.5244271333213 17.539065366145223,253.62530918826815 17.508238267735578,253.69256387872156 17.32327567716129,253.62530918826815 17.56989246455487,253.3899176909763 17.66237375990022,253.120898683439 18.1247802360449,253.15452606830513 18.21726153115742,253.69256387872156 18.21726153115742,253.2554082076531 18.433051220257767,253.69256387872156 18.309742826619186,253.72619122016476 18.772149302763864,253.5244271333213 18.67966800753493,253.62530918826815 20.714256503153592,245.55467204813613 21.577415258740075,245.89095153732342 21.299971373053268,245.82369565989939 21.238317176233977,245.5210440850642 21.299971373053268,245.15113632334396 21.608242357266136,244.88211230226443 21.423279766808264,244.07503925659694 21.94734043988865,243.63787407492055 21.824032046133652,243.43610538367648 21.94734043988865,243.2343366003479 22.039821735117584,241.7546960421023 21.854859144543298,241.85558078298345 22.378919817740098,241.5529264913348 22.62553660501726,241.25027199249598 22.59470950672403,240.9812455973879 22.16313012887258,240.64496237313142 22.22478432569187,240.7458473673032 22.22478432569187,240.00602354240254 22.748844998772256,238.62725765557843 22.995461786049418,238.35822966397973 23.211251474916935,237.68565896872315 23.180424376623705,237.4838875605492 23.6428308528848,236.64317236861098 23.76613924652338,236.07148512476124 24.012756033800542,235.56705458945362 24.10523732926231,235.63431202754145 24.32102701801341,235.23076724624843 24.413508313242346,234.55819179216633 24.875914789619856,233.78472875477746 24.93756898632273,233.01126436385675 25.091704478370957,232.70860401642858 24.96839608484879,232.54045928936102 24.99922318314202,232.37231449835235 25.46162965951953,231.49796055388288 25.739073545322753,230.5227175752807 26.047344529419206,229.95102241504355 26.324788415106013,229.71561831055442 26.54057810420636,229.17755131519516 26.57140520249959,228.43770812699222 26.818021990009584,228.16867393330904 26.725540694664232,228.03415677510202 26.818021990009584,227.86601026973221 26.694713596138172,227.6978637003631 26.818021990009584,227.63060505469912 27.218774269218557,226.82350050852983 27.465391056612134,225.98276503878878 27.372909761383198,225.71372935076943 27.465391056612134,225.0747689352138 27.372909761383198,225.10839845382725 27.527045253431424,223.99862298939843 27.311255564563908,223.5278083141311 27.434563958086073,222.88884473827784 27.342082662973553,222.08173153238022 27.465391056612134,221.8799530006654 27.157120072399266,221.51002545311349 27.249601367744617,221.1400975958968 27.12629297398962,220.66927987532108 27.311255564563908,220.4002409525565 27.311255564563908,219.69401300119353 27.12629297398962,219.2568237038504 27.064638777286746,218.55059392520343 27.342082662973553,218.14703354498488 27.157120072399266,217.60895246471046 27.249601367744617,217.4744320923055 27.18794717080891,217.17176110451692 26.972157481941395,217.17176110451692 26.94133038353175,216.6673089977121 26.94133038353175,216.1964865118207 27.218774269218557,216.06196570931934 27.095465875579976,215.8265542066365 27.12629297398962,215.38936108304188 26.87967618671246,215.01942810227047 26.818021990009584,215.15394922206178 26.602232300909236,214.58223418021225 26.756367792957462,213.8423665575683 26.57140520249959,213.00160639174283 26.57140520249959,212.4298885652388 26.818021990009584,212.02632259530947 27.18794717080891,211.75727841060143 27.927797532873228,211.55549516447354 30.209002815769054,211.55549516447354 32.089455819223076,211.2528201226669 33.26088555902243,210.9165142774582 33.507502346416004,211.01740605794475 34.216525610070676,210.8156224740378 34.3706611021189,210.8828836788598 35.172165660886094,210.64746941707563 36.80600187717937,210.7147306475381 36.86765607399866,210.4793162960268 37.422543845605105,210.4793162960268 37.73081482970156,210.5802081763395 38.25487550266553,210.3784243928676 39.33382394735236,210.54657755212975 40.35111819533631,210.4793162960268 40.7518704746617,210.61383879801724 41.245104049216025,210.24390181922354 41.707510525593534,210.3447937532619 42.385706690722145,210.07574854468112 42.755631871754304,210.14300986225135 43.0947299542604,209.97485654929187 43.89623451314401,210.07574854468112 44.32781389099546,209.97485654929187 44.23533259576652,210.07574854468112 44.35864098952152,210.17664051710744 44.72856617055368,210.04211788217071 45.591724926256575,210.24390181922354 46.208266894565895,210.3111631111242 46.11578559933696,210.24390181922354 46.239093993091956,210.14300986225135 46.855635961401276,209.90759520613938 47.0097714534495,209.77307248927536 47.62631342187524,210.1093792047177 48.458645079052076,209.94122587903985 48.79774316167459,209.70581111553474 49.075187047361396,209.97485654929187 49.78421031089965,209.97485654929187 50.36992518091574,209.84033385285875 51.171429739682935,209.77307248927536 52.651130463927984,209.80670317239128 52.897747251205146,209.90759520613938 53.05188274325337,209.84033385285875 53.66842471167911,209.87396453076508 53.94586859748233,209.73944180362741 54.71654605783988,209.70581111553474 55.67218610877171,209.73944180362741 56.22707388037816,209.87396453076508 56.81278875016142,209.70581111553474 58.50827916327398,209.77307248927536 59.55640050943475,209.70581111553474 60.60452185559552,209.60491903559887 61.03610123344697,209.70581111553474 61.34437221754342,209.6721804247063 61.714297398692,209.57128833711613 62.639110351214185,209.53765763613046 63.16317102429457,209.80670317239128 63.96467558317818,209.63854973140405 64.14963817375246,209.84033385285875 64.30377366568428,209.87396453076508 65.41354920866434,209.6721804247063 65.62933889776468,209.90759520613938 65.7834743896965,210.3784243928676 65.93760988174472,210.44568566416274 66.55415185028687,210.27753246651264 66.7082873423351,210.41205502976663 66.9857312280219,209.97485654929187 67.38648350746371,209.73944180362741 68.15716096793767,209.6721804247063 68.3729506569216,209.77307248927536 68.71204873954412,209.73944180362741 69.05114682205021,209.80670317239128 69.39024490467273,209.6721804247063 70.59250174299814,209.77307248927536 70.68498303811066,209.13408902479568 71.08573531766888,209.03319681430003 72.31881925440393,208.39421227978892 72.81205282895826,208.56236619423726 73.08949671476148,208.49510463618208 73.42859479726758,208.66325851221336 73.64438448625151,208.5959969694959 74.16844515944831,208.6968892797886 74.38423484819941,208.49510463618208 74.60002453729976,208.6296277421061 75.12408521038014,208.49510463618208 75.40152909618337,208.5959969694959 75.74062717868946,208.5287354165048 75.92558976926375,208.36058148930897 76.2955149501795,208.39421227978892 76.48047754063737,208.49510463618208 76.2955149501795,208.5287354165048 76.41882334381808,208.5287354165048 76.20303365495056,208.83141232427442 76.20303365495056,208.56236619423726 76.35716914699879,208.56236619423726 76.2338607533602,208.56236619423726 76.2955149501795,208.49510463618208 76.2955149501795,208.76415080713923 77.37446339474991,206.88082417013356 76.81957562325988,206.74630053181318 76.54213173757307,206.2754674749449 76.26468785176985,206.1073126901756 76.04889816278592,206.1073126901756 75.86393557232805,205.636478952365 75.52483748970553,205.3337998560164 75.09325811185408,205.3674308770278 74.75416002934799,205.636478952365 73.7060386830708,205.40106189536164 73.24363220692612,205.50195493520005 73.05866961623542,205.3337998560164 72.81205282895826,204.05581916330266 72.99701541953254,202.5087849580159 72.9045341241872,201.86979098810116 73.02784251782577,201.2307960941107 72.99701541953254,200.55816889143898 73.05866961623542,200.49090611489373 73.27445930533577,200.6254316577979 73.08949671476148,199.95280353355338 72.81205282895826,199.71738344818004" stroke="#4dd2ff" stroke-linecap="round" stroke-linejoin="round" stroke-width="0.5"><title>2022-02-19 10.1km</title></polyline></svg>