<?xml version="1.0" encoding="utf-8" ?>
<svg baseProfile="full" height="300mm" version="1.1" viewBox="0,0,200,300" width="200mm" xmlns="http://www.w3.org/2000/svg" xmlns:ev="http://www.w3.org/2001/xml-events" xmlns:xlink="http://www.w3.org/1999/xlink"><defs /><rect fill="#222222" height="300" width="200" x="0" y="0" /><text fill="#FFFFFF" style="font-size:12px; font-family:Arial; font-weight:bold;" x="10" y="20">Over 3km Runs</text><text fill="#FFFFFF" style="font-size:4px; font-family:Arial" x="10" y="280">ATHLETE</text><text fill="#FFFFFF" style="font-size:9px; font-family:Arial" x="10" y="290">pi-dal</text><text fill="#FFFFFF" style="font-size:4px; font-family:Arial" x="120" y="280">STATISTICS</text><text fill="#FFFFFF" style="font-size:3px; font-family:Arial" x="120" y="285">Number: 3</text><text fill="#FFFFFF" style="font-size:3px; font-family:Arial" x="120" y="290">Weekly: 1.0</text><text fill="#FFFFFF" style="font-size:3px; font-family:Arial" x="141" y="285">Total: 26.9 km</text><text fill="#FFFFFF" style="font-size:3px; font-family:Arial" x="141" y="290">Avg: 9.0 km</text><text fill="#FFFFFF" style="font-size:3px; font-family:Arial" x="167" y="285">Min: 8.3 km</text><text fill="#FFFFFF" style="font-size:3px; font-family:Arial" x="167" y="290">Max: 10.1 km</text><polyline fill="none" points="17.005154639249668,77.73323936611996 17.868041237234138,77.79397455052822 18.591752577456646,77.64213657236542 19.398969072266482,77.70287177053979 20.09484536095988,77.64213657236542 20.428865979542024,77.70287177053979 20.762886598007753,77.58140136487782 21.20824742282275,77.64213657236542 22.850515463971533,77.61176896974212 23.017525773262605,77.76360695951735 23.07319587643724,77.76360695951735 23.490721649490297,77.61176896974212 23.62989690725226,77.58140136487782 23.908247422776185,77.45993092222488 24.047422680421732,77.73323936611996 24.047422680421732,78.43169342784677 24.019587628892623,78.70500120604993 24.047422680421732,79.22124872062705 24.158762886654586,79.46418849626207 24.214432989712805,79.37308609779575 24.130927835125476,79.46418849626207 24.075257732067257,79.67676067870343 24.130927835125476,79.91970017697895 24.130927835125476,80.28410914694541 24.24226804135833,80.76998725585872 24.548453608411364,80.73961989142117 24.49278350523673,80.73961989142117 24.49278350523673,80.64851778410957 25.41134020627942,80.76998725585872 25.745360824861564,80.86108933540527 26.385567010380328,81.16476278362097 26.77525773202069,81.10402811245876 26.970103092840873,81.25586477300385 27.248453608364798,81.13439544910216 27.192783505190164,81.10402811245876 27.248453608364798,81.07366077339975 27.665979381650686,81.01292608838412 27.94432989694178,81.19513011566596 28.167010309407488,81.19513011566596 28.36185567022767,80.9825587423984 28.66804123716429,80.83072197783622 28.779381443513557,80.9825587423984 29.22474226797931,80.9825587423984 29.308247422799468,81.04329343207064 29.80927835055627,80.83072197783622 30.42164948466234,80.8914566905878 30.588659793836996,80.83072197783622 30.811340206302702,80.9825587423984 31.340206185588613,80.95219139417168 31.395876288646832,81.01292608838412 31.507216494879685,81.01292608838412 31.53505154652521,81.13439544910216 31.952577319694683,81.01292608838412 32.23092783510219,81.07366077339975 32.64845360838808,81.07366077339975 33.06597938144114,80.95219139417168 33.288659793906845,80.9825587423984 33.42783505166881,80.8914566905878 34.70824742282275,80.67888515550294 34.90309278364293,80.76998725585872 35.48762886610348,80.7092525245971 35.710309278336354,80.80035461802618 36.35051546397153,80.7092525245971 36.85154639184475,80.73961989142117 36.823711340199225,80.67888515550294 36.90721649490297,80.67888515550294 37.658762886654586,80.7092525245971 37.96494845370762,80.64851778410957 38.46597938158084,80.67888515550294 38.549484536168166,80.73961989142117 38.77216494863387,80.76998725585872 40.02474226814229,80.6181504103879 40.35876288660802,80.43594611959998 40.5536082474282,80.52704827542766 41.13814433000516,80.46631350714597 41.41649484541267,80.49668089245097 41.61134020634927,80.40557872966747 41.6948453609366,80.43594611959998 41.834020618582144,80.31447654610383 42.19587628857698,80.46631350714597 42.55773195880465,80.52704827542766 43.11443298973609,80.49668089245097 43.17010309279431,80.43594611959998 43.364948453730904,80.46631350714597 43.69896907208022,80.46631350714597 44.17216494854074,80.31447654610383 44.728865979472175,80.31447654610383 44.84020618558861,80.253741745546 45.842268041335046,80.28410914694541 46.28762886603363,80.37521133743576 46.62164948473219,80.253741745546 46.90000000002328,80.22337434178917 47.62371134024579,80.37521133743576 47.76288659789134,80.46631350714597 49.071134020690806,80.31447654610383 50.46288659796119,80.28410914694541 50.60206185572315,80.34484394299216 51.27010309277102,80.34484394299216 52.411340206163004,80.1626395272906 53.32989690720569,80.22337434178917 54.08144329895731,80.1626395272906 54.665979381417856,80.22337434178917 54.55463917530142,80.19300693573314 56.419587628915906,80.07153728825506 56.83711340208538,79.85896531623439 57.17113402066752,79.85896531623439 57.44948453607503,79.55529087400646 57.86701030936092,79.52492341710604 58.0618556701811,79.52492341710604 58.145360824652016,79.52492341710604 58.11752577323932,79.58565832869499 58.39587628864683,79.64639323097072 58.64639175264165,79.79823044632212 58.81340206193272,79.79823044632212 59.0082474227529,79.73749556712573 59.34226804121863,79.79823044632212 59.481443298980594,79.73749556712573 59.5092783505097,79.76786300784443 60.03814432991203,79.67676067870343 60.81752577330917,79.79823044632212 61.06804123718757,79.70712812404963 61.736082474235445,79.73749556712573 62.43195876281243,79.616025780997 62.7938144330401,79.616025780997 63.23917525773868,79.49455595787731 63.43402061867528,79.46418849626207 63.573195876320824,79.52492341710604 63.82371134031564,79.52492341710604 64.07422680419404,79.64639323097072 64.57525773206726,79.73749556712573 65.1597938145278,79.70712812404963 65.35463917534798,79.67676067870343 65.43814432993531,79.55529087400646 65.68865979381371,79.55529087400646 65.88350515475031,79.616025780997 66.99690721661318,79.64639323097072 67.08041237120051,79.70712812404963 66.77422680414747,79.85896531623439 66.66288659791462,80.10190470359521 66.77422680414747,80.253741745546 67.02474226802588,80.22337434178917 67.38659793825354,80.40557872966747 67.74845360824838,80.86108933540527 67.83195876283571,81.07366077339975 67.99896907212678,82.07578174123773 67.97113402059767,82.25798528312589 68.13814432988875,83.59414204745553 68.13814432988875,84.14075034295092 68.2494845361216,84.71772495357436 68.2494845361216,85.02139546608669 68.13814432988875,85.44653379524243 68.27731958765071,85.7805707360094 68.41649484541267,85.81093771682936 68.44432989694178,85.71983676767559 68.50000000011642,85.71983676767559 69.52989690727554,84.99102842519642 69.78041237127036,84.83919318628614 69.86391752585769,84.86956023873063 70.1144329898525,84.44442129466916 70.22577319585253,84.50515545730013 70.47628865984734,84.47478837709059 71.70103092782665,83.62450919457478 73.06494845356792,82.8349626166455 75.93195876281243,80.9825587423984 76.48865979374386,80.73961989142117 76.60000000009313,80.55741565604694 77.01752577337902,80.46631350714597 77.268041237141,80.19300693573314 77.57422680419404,80.0411698706157 77.82474226795603,79.98043502835208 79.46701030933764,79.00867629554705 79.77319587639067,78.91757379294722 80.27422680414747,78.64426616035053 81.02577319589909,78.3709583405871 81.27628865989391,78.2494881383027 82.4731958763441,77.76360695951735 83.05773195868824,77.39919568697223 83.30824742268305,77.30809281682014 84.14329896913841,76.88294581443188 84.28247422678396,76.85257815403747 84.588659793837,76.51853373736958 84.8670103092445,76.33632757407031 84.97835051547736,76.09338589341496 84.97835051547736,76.18448904098477 85.08969072171021,76.15412132747588 85.03402061853558,76.12375361163868 85.42371134017594,75.9719149976736 85.45154639170505,75.8808118015586 85.5628865979379,75.94154726795387 85.67422680405434,75.91117953593493 86.2587628866313,75.5467665711767 86.4814432989806,75.48603104462381 86.62061855662614,75.30382440972608 86.34226804121863,74.75720400549471 86.34226804121863,74.63573270282359 86.56494845356792,74.1498471222003 86.37010309274774,73.39064971765038 86.4814432989806,73.2995459320955 87.31649484531954,73.1173382983252 87.48350515461061,73.05660240192083 87.70618556707632,72.84402669168776 87.78969072166365,72.84402669168776 87.95670103107113,72.60108288415358 88.23505154636223,72.44924292928772 88.51340206200257,72.38850693119457 88.79175257729366,72.1151948251354 89.40412371139973,71.23452120958245 89.7938144330401,70.1716366703622 89.87731958774384,69.98942760773934 90.01649484527297,69.86795485319453 90.23917525773868,69.41243169395602 90.23917525773868,69.44279992074007 90.2948453607969,69.41243169395602 90.35051546397153,69.5339045872388 90.57319587632082,69.56427280482603 91.0185567010194,69.89832304525771 91.12989690725226,69.89832304525771 91.51958762889262,69.74648206160055 91.74226804124191,69.5339045872388 91.93711340194568,69.50353636743966 92.04845360829495,69.38206346478546 92.1876288659405,69.41243169395602 92.52164948452264,69.2605905252276 92.93917525780853,68.86580321608926 93.1340206185123,68.8050666723575 93.55154639168177,68.83543494541664 93.57938144332729,68.8050666723575 94.08041237120051,68.65322527242824 94.27525773190428,68.44064721543691 94.52577319589909,67.6814389442734 94.77628865977749,67.59033385460498 94.88762886601035,67.6814389442734 94.97113402059767,67.6814389442734 95.13814432988875,67.43849199221586 95.30515463917982,67.40812361284043 95.44432989694178,67.28665007211384 95.44432989694178,67.3170184607443 95.44432989694178,67.10443969164044 95.41649484529626,66.98296605839278 95.5,66.92222922790097 95.5,66.77038711123168 95.36082474235445,66.64891337623703 95.24948453600518,66.34522887700587 95.2773195875343,65.98080717265839 95.2773195875343,66.01117566067842 95.19381443306338,65.79859619558556 94.85979381448124,65.10012001244468 94.63711340213194,64.82680291219731 94.13608247425873,64.46237982049934 93.80206185567658,64.31053676729789 93.02268041239586,64.18906228314154 92.71649484545924,64.21943090768764 91.65876288665459,64.52311702555744 91.51958762889262,64.55348562466679 91.51958762889262,64.49274842417799 91.12989690725226,64.67495999782113 90.79587628867012,64.70532858528895 87.26082474226132,65.55564809674979 87.12164948461577,65.64675365117728 87.12164948461577,65.58601661716239 84.47731958760414,66.25412348212558 84.03195876290556,66.28449194936547 83.78144329891074,66.37559733728995 83.55876288656145,66.37559733728995 83.36391752574127,66.64891337623703 82.27835051540751,66.77038711123168 82.08350515470374,66.89186080923537 82.02783505164552,67.04370287960046 82.02783505164552,66.95259764426737 81.91649484541267,66.92222922790097 81.44329896918498,67.04370287960046 81.22061855683569,66.95259764426737 80.63608247425873,66.98296605839278 80.5804123710841,66.95259764426737 80.44123711332213,66.98296605839278 79.856701030978,66.98296605839278 79.74536082474515,66.95259764426737 79.68969072168693,66.86149238815415 79.57835051545408,66.83112396480283 78.2144329897128,66.89186080923537 78.13092783500906,66.92222922790097 78.15876288653817,67.01333447018987 77.9917525772471,66.92222922790097 76.93402061855886,66.92222922790097 76.40515463927295,66.86149238815415 76.23814432986546,66.89186080923537 73.20412371132988,66.83112396480283 72.61958762886934,66.89186080923537 71.64536082476843,66.77038711123168 69.66907216492109,66.95259764426737 68.88969072164036,66.89186080923537 68.63917525776196,66.70965024837642 68.30515463917982,66.58817649492994 68.13814432988875,66.61854493670398 67.94329896918498,66.77038711123168 67.97113402059767,66.70965024837642 67.74845360824838,66.64891337623703 67.19175257743336,66.70965024837642 66.85773195861839,67.04370287960046 66.63505154638551,67.16517649439629 65.68865979381371,67.07407128679915 65.18762886605691,67.10443969164044 64.90927835053299,67.22591328786802 63.740206185611896,67.22591328786802 63.65670103102457,67.25628168109688 63.489690721733496,67.55996548675466 63.23917525773868,67.65107058332069 63.04432989703491,67.6814389442734 63.04432989703491,67.62070222012699 62.849484536098316,67.52959711660515 62.73814432986546,67.25628168109688 62.45979381445795,67.3170184607443 61.56907216494437,67.28665007211384 61.48556701024063,67.34738684707554 60.95670103095472,67.43849199221586 60.372164948494174,67.37775523113669 59.98247422685381,67.43849199221586 58.95257731957827,67.49922874409822 58.507216494879685,67.43849199221586 58.284536082530394,67.10443969164044 58.284536082530394,67.19554489228176 57.89484536089003,67.13480809415341 57.53298969077878,67.22591328786802 57.393814433016814,67.28665007211384 57.22680412372574,67.49922874409822 55.64020618563518,67.6814389442734 55.19484536082018,67.65107058332069 54.49896907212678,67.77254401310347 53.10721649497282,67.80291236471385 52.32783505169209,67.92438574827975 51.38144329888746,67.9547540883068 51.24226804135833,67.89401740586618 50.379381443257444,68.04585909476737 49.711340206325985,68.22806904517347 48.542268041172065,68.16733240426402 47.957731958827935,68.19770072592655 47.902061855769716,68.10659575415775 47.902061855769716,68.16733240426402 47.595876288600266,68.28880567685701 47.54020618565846,68.34954229919822 47.12268041248899,68.31917398920632 46.760824742377736,68.22806904517347 46.788659793906845,68.19770072592655 46.62164948473219,68.28880567685701 46.25979381450452,68.25843736215029 45.45257731969468,68.34954229919822 44.97938144323416,68.31917398920632 44.701030927943066,68.37991060689092 44.17216494854074,68.34954229919822 43.309278350439854,68.44064721543691 42.36288659798447,68.37991060689092 42.22371134022251,68.37991060689092 41.861855670111254,68.62285698557389 41.36082474235445,68.37991060689092 41.27731958765071,68.34954229919822 41.19381443306338,68.41027891242993 41.27731958765071,68.41027891242993 41.19381443306338,68.31917398920632 40.77628865977749,68.37991060689092 40.386597938253544,68.37991060689092 40.136082474375144,68.50138381475699 40.02474226814229,68.62285698557389 40.052577319554985,68.53175211092457 39.996907216496766,68.56212040470564 39.802061855676584,68.53175211092457 39.6072164948564,68.6835935570125 38.24329896911513,68.71396183932666 37.463917525834404,68.83543494541664 37.157731958897784,68.8050666723575 36.517525773262605,68.8961714845791 35.626804123749025,68.86580321608926 35.68247422692366,68.77469839694095 35.54329896904528,68.8050666723575 35.45979381445795,68.8961714845791 35.45979381445795,68.77469839694095 34.986597938113846,68.8050666723575 35.07010309281759,68.8050666723575 34.8474226804683,68.86580321608926 34.54123711353168,68.83543494541664 33.98453608260024,68.92653975068242 33.511340206256136,68.8961714845791 33.344329896965064,68.95690801445744 32.926804123679176,68.86580321608926 32.78762886603363,68.92653975068242 32.59278350509703,68.8961714845791 31.813402061816305,68.95690801445744 31.56288659805432,69.01764453510987 31.395876288646832,68.95690801445744 30.839175257831812,68.95690801445744 30.64432989701163,69.04801279195817 30.171134020667523,69.04801279195817 30.00412371137645,69.13911754867877 29.586597938090563,69.10874929878628 29.308247422799468,69.13911754867877 28.52886597951874,69.16948579627206 28.250515463994816,69.10874929878628 28.111340206232853,69.16948579627206 27.888659793999977,69.13911754867877 27.63814433000516,69.16948579627206 27.41546391765587,69.13911754867877 26.914432989782654,69.2605905252276 26.21855670120567,69.29095876365318 26.0515463919146,69.3516952333739 25.912371134152636,69.5339045872388 25.773195876274258,69.77685026291874 25.68969072168693,70.23237300600158 25.68969072168693,71.14341693150345 25.801030927919783,71.9937227179471 25.71752577321604,72.44924292928772 25.828865979448892,73.26917799885268 25.773195876274258,73.51212139951531 25.88453608250711,74.57499703756184 25.856701030978,74.96977869613329 25.745360824861564,75.09124989702832 25.71752577321604,75.3645599639276 25.745360824861564,76.39706297108205 25.801030927919783,76.48816604926833 25.94020618556533,76.45779835889698 25.968041237210855,76.42743066616822 26.023711340269074,76.45779835889698 26.023711340269074,76.39706297108205 25.773195876274258,77.42956330571906 25.94020618556533,76.97404878164525 25.88453608250711,77.64213657236542 25.828865979448892,77.73323936611996 25.856701030978,77.94581247094902 25.773195876274258,77.94581247094902 25.912371134152636,78.85683877964038 25.912371134152636,79.31235115384334 25.828865979448892,79.46418849626207 25.88453608250711,80.64851778410957 25.828865979448892,80.64851778410957 25.828865979448892,80.7092525245971 25.71752577321604,80.67888515550294 25.355670103104785,80.76998725585872 24.604123711353168,80.7092525245971 24.604123711353168,80.52704827542766 24.409278350532986,80.58778303433792 23.713402061839588,81.04329343207064 23.435051546548493,81.04329343207064 23.37938144337386,80.9825587423984 23.184536082553677,81.01292608838412 23.184536082553677,81.07366077339975 22.906185567029752,81.10402811245876 22.739175257855095,81.04329343207064 22.321649484685622,81.13439544910216 22.23814432998188,81.22549744546995 22.23814432998188,81.16476278362097 22.210309278336354,81.19513011566596 21.848453608341515,81.25586477300385 21.403092783642933,81.10402811245876 21.096907216473483,81.3165994209703 20.846391752827913,81.37733405976905 20.70721649483312,81.28623209815123 19.732989690848626,81.28623209815123 19.621649484615773,81.22549744546995 19.4546391753247,81.28623209815123 19.00927835062612,81.3165994209703 18.92577319603879,81.25586477300385 18.786597938276827,81.34696674149018 18.28556701040361,81.37733405976905 18.28556701040361,81.43806868931279 18.090721649467014,81.43806868931279 17.673195876413956,81.58990522270324 17.283505154657178,81.43806868931279 17.172164948424324,81.46843600063585 17.08865979395341,81.34696674149018 16.838144329958595,81.46843600063585 16.838144329958595,81.5595379206643 16.03092783514876,81.4988033095724 15.474226804217324,81.5595379206643 14.973195876227692,81.46843600063585 14.834020618582144,81.5595379206643 14.5,81.52917061626795" stroke="#4dd2ff" stroke-linecap="round" stroke-linejoin="round" stroke-width="0.5"><title>2022-03-05 8.3km</title></polyline><polyline fill="none" points="116.18615005305037,45.60999529098626 116.77140089822933,45.73769510304555 117.31763502024114,46.16336093249265 117.6297688044142,46.120794364163885 117.74681897368282,46.20592749756179 117.86386914271861,45.69512850229512 117.74681897368282,45.48229544976493 117.55173535831273,45.60999529098626 117.51271863561124,45.822828294854844 117.6297688044142,46.07822779257549 117.70780225051567,45.950528058281634 117.86386914271861,46.33362717353157 118.33206981862895,45.865394885942806 118.91732066404074,45.60999529098626 119.65863840118982,45.73769510304555 119.77568857022561,46.035661217640154 119.81470529339276,45.78026170062367 120.0878223546315,45.90796147368383 120.71208992274478,45.69512850229512 121.45340766012669,45.65256189831416 122.15570867434144,45.73769510304555 122.62390935048461,45.52486206681351 123.36522708786651,45.69512850229512 123.67736087180674,45.60999529098626 124.96491273143329,45.48229544976493 125.19901306950487,45.65256189831416 125.78426391468383,45.3120289495273 126.44754820596427,45.39716220617993 126.68164854403585,45.0566291018622 126.99378232820891,45.22689567998168 127.18886594334617,46.07822779257549 126.79869871307164,46.50389336279477 126.68164854403585,47.1849576010718 126.52558165206574,47.2700905726233 126.60361509816721,47.73832168395165 126.52558165206574,48.29168521921383 126.17443114495836,48.29168521921383 126.09639769885689,48.67478273046436 126.52558165206574,49.143012665677816 126.44754820596427,49.3558443247457 126.48656492913142,50.03690508942236 126.79869871307164,51.14362706299289 126.8377154362388,51.01592848551809 127.46198300435208,51.90981791532249 127.42296628141776,52.80370591627434 127.14984922041185,53.61246049538022 126.87673215917312,53.952988389268285 126.8377154362388,54.12325225851964 126.44754820596427,54.42121390486136 126.68164854403585,54.50634577460005 126.8377154362388,55.27253201958956 126.8377154362388,55.783322266303 126.56459837500006,56.251546249346575 126.68164854403585,57.78391290717991 126.8377154362388,58.890619548619725 126.60361509816721,59.91219296614872 126.75968199013732,60.465544454724295 126.68164854403585,61.785072718106676 126.99378232820891,62.466118345444556 127.03279905137606,63.53025047801202 126.68164854403585,63.9133375500096 126.79869871307164,64.5092502515472 126.91574888234027,64.29642435963615 126.68164854403585,65.40311811340507 127.14984922041185,66.21185447153402 127.1108324972447,66.9354596954363 127.38394955848344,66.85032971773762 127.2278826662805,67.14828458311968 127.1108324972447,67.78675876025227 127.18886594334617,69.23396419658093 127.1108324972447,69.74474169165478 127.30591611238196,70.59603648036136 127.07181577454321,71.532459251408 127.30591611238196,72.59657413343666 127.26689938944764,74.17146044349647 127.14984922041185,74.59710463086958 127.46198300435208,75.40582769457251 127.46198300435208,75.8314709426486 127.18886594334617,76.21454958897084 127.34493283531629,76.51249946589814 127.30591611238196,77.40634814402438 127.50099972751923,78.38532362884143 127.1108324972447,79.06634904240491 127.14984922041185,80.38583342175116 127.50099972751923,82.21608079463476 127.34493283531629,84.3442678838037 127.57903317338787,85.83399402839132 127.50099972751923,86.21706582439947 127.61804989655502,86.2596293410461 127.46198300435208,86.81295476327068 127.30591611238196,86.89808170270408 127.38394955848344,87.40884306732914 127.07181577454321,88.21754760766635 127.18886594334617,88.77087109320564 126.99378232820891,89.70726343704155 127.30591611238196,90.04776935532573 126.99378232820891,91.75029583761352 126.99378232820891,92.72924621863058 126.64263182110153,93.28256524138851 127.26689938944764,93.62306898346287 127.46198300435208,94.09126129030483 127.50099972751923,95.45327304571401 127.42296628141776,95.96402659910382 127.57903317338787,96.17684044202906 127.46198300435208,96.85784419544507 127.54001645045355,97.53884711983847 127.46198300435208,98.0070361494727 127.61804989655502,98.64547510384 127.54001645045355,98.90085048167384 126.95476560527459,99.58185091908672 126.56459837500006,99.70953840878792 126.01836425275542,99.58185091908672 125.74524719174951,99.79466338575003 125.82328063785098,99.83722586932709 125.39409668464214,99.79466338575003 124.92589600849897,100.13516316411551 124.92589600849897,101.9653459218971 124.34064516308717,102.81659167635371 124.49671205529012,103.19965184328612 124.37966188625433,103.83808487188071 124.73081239359453,104.30626862993813 124.96491273143329,104.30626862993813 125.5891802997794,104.00833355658688 126.21344786789268,104.09345787938219 126.36951476009563,104.30626862993813 126.17443114495836,104.73188988812035 126.29148131399415,104.85957620243425 127.34493283531629,104.81701410087408 127.65706661948934,104.64676566235721 128.1252672956325,104.81701410087408 129.02265192498453,104.81701410087408 129.60790277039632,104.77445199614158 130.31020378461108,104.64676566235721 132.26103993551806,104.81701410087408 132.80727405752987,104.73188988812035 133.00235767266713,104.94470039574662 133.66564196394756,105.15751082246425 134.25089280912653,104.81701410087408 134.87516037747264,104.85957620243425 135.14827743847854,104.73188988812035 135.3433610536158,104.81701410087408 135.73352828389034,104.64676566235721 135.61647811485454,104.68932777683949 135.65549483755603,104.77445199614158 136.86501325131394,104.77445199614158 137.52829754259437,104.90213830076391 139.59618386230431,104.81701410087408 139.98635109257884,104.94470039574662 140.96176916803233,104.94470039574662 141.4299698441755,105.07238666151534 141.89817052031867,104.90213830076391 142.91260531870648,104.98726248764433 143.18572237994522,104.90213830076391 143.18572237994522,105.07238666151534 143.06867221090943,104.94470039574662 143.77097322512418,105.02982457613689 144.04409028613009,104.90213830076391 144.317207347136,104.98726248764433 144.62934113154188,104.94470039574662 145.68279265263118,105.32775910562486 146.5411605592817,105.49800733689335 147.0483779583592,105.5405693865905 147.86772914184257,105.7959416169615 148.531013433123,105.66825551629881 148.531013433123,105.7959416169615 149.27233117027208,105.88106566783972 149.81856529251672,106.09387573841377 150.24774924549274,106.05131373080076 150.63791647576727,106.30668572796276 150.95005025994033,106.30668572796276 150.911033537006,106.47693366146996 150.98906698310748,106.5194956366613 151.14513387484476,106.39180970113375 151.34021748998202,106.68974350526696 151.8084181661252,106.5194956366613 152.19858539639972,106.68974350526696 152.31563556566834,106.56205760868033 152.58875262644142,106.56205760868033 153.44712053285912,106.77486742020119 153.99335465510376,107.03023908712203 155.59304029867053,107.28561063759844 155.86615735990927,107.24304872061475 157.34879283444025,107.62610585687798 157.81699351058342,107.66866774461232 158.519294525031,107.96660086876363 159.26061226218008,108.69015208128258 159.8848798305262,108.81783749227179 160.23603033740073,109.03064644569531 160.50914739863947,109.41370235805516 160.899314628914,109.54138760388014 161.0553815208841,109.49882585852174 161.40653202822432,109.8818814502738 162.1478497653734,110.00956658928772 162.38195010344498,110.26493677980034 162.61605044151656,110.22237508950639 163.08425111789256,110.4351835087582 163.3963849018328,110.73311515973182 164.37180297728628,111.15873152879067 166.36165585089475,112.56326324964175 167.06395686534233,112.73350927929278 168.1174083868973,113.24424705715501 168.507575616939,113.66986151610035 169.83414419949986,114.18059843938681 171.3948131201323,115.07438693326549 173.0335154866334,115.5 173.267615824705,115.45743870793376 173.57974960911088,114.9467029501393 173.81384994694963,114.90414161598892 173.7748332240153,114.35084397686296 172.68236497952603,114.09547565114917 172.4872813646216,114.18059843938681 172.6043315336574,114.22315982857253 172.44826464145444,114.18059843938681 172.52629808755592,114.18059843938681 172.17514758044854,113.9677914447384 171.94104724237695,113.37193142884644 172.1361308572814,111.71203232463449 172.05809741141275,111.45666279451689 172.17514758044854,111.28641637641704 172.17514758044854,110.69055350503186 172.33121447241865,110.17981339598191 172.29219774948433,109.1583317789773 172.17514758044854,108.8603992894059 172.4872813646216,108.17941014608368 172.6043315336574,105.7533795867057 171.86301379627548,105.66825551629881 171.27776295109652,104.68932777683949 170.73152882885188,104.47651717206463 170.41939504467882,104.60420354467351 170.0292278144043,104.51907929949812 168.85872612404637,104.47651717206463 168.2344585559331,104.56164142373018 167.3760906495154,104.94470039574662 167.06395686534233,104.85957620243425 166.59575618919916,104.56164142373018 166.08853879012167,104.39139290741878 165.54230466787703,104.51907929949812 165.1521374376025,104.43395504137152 163.43540162499994,104.30626862993813 163.31835145573132,104.39139290741878 162.85015077958815,104.2637064862065 161.44554875115864,104.56164142373018 160.62619756767526,104.2637064862065 160.50914739863947,104.47651717206463 160.35308050666936,104.43395504137152 160.11898016859777,104.56164142373018 159.45569587731734,104.56164142373018 159.45569587731734,104.64676566235721 159.1435620933771,104.68932777683949 159.26061226218008,104.73188988812035 159.22159553924575,104.81701410087408 158.98749520117417,104.73188988812035 158.67536141723394,104.77445199614158 158.44126107892953,104.64676566235721 157.85601023375057,104.51907929949812 156.6464918202255,104.56164142373018 156.4123914821539,104.47651717206463 156.13927442091517,104.60420354467351 155.47599012963474,104.56164142373018 155.08582289959304,104.39139290741878 154.11040482413955,104.47651717206463 153.64220414799638,104.34883077032282 153.44712053285912,104.00833355658688 153.5641707018949,103.62527394332574 153.36908708675765,103.19965184328612 152.7058027954772,102.98684067174327 152.39366901153699,102.39096896103001 152.35465228836983,101.02897409617435 152.08153522736393,99.15622574283043 152.2766188425012,98.134723998548 152.19858539639972,97.58140977509902 151.88645161222667,96.94296960637439 151.76940144319087,95.70864988068934 151.96448505832814,94.60201608712669 151.8084181661252,92.51643106417032 152.08153522736393,91.92054820089834 152.12055195029825,91.11184901397792 151.92546833516099,90.7713437435159 151.69136799732223,89.57957366437768 151.76940144319087,87.96216735281632 151.65235127415508,87.70678698137635 151.73038472025655,87.66422357480042 151.8084181661252,86.21706582439947 151.96448505832814,86.00424819224281 152.19858539639972,85.96168465621304 152.23760211956687,85.83399402839132 152.1595686734654,85.40835839195643 151.96448505832814,85.3232312258042 151.88645161222667,85.02528604218969 151.69136799732223,84.94015881774249 151.61333455122076,84.17401321462239 151.69136799732223,83.49299401970347 151.65235127415508,81.57762308881502 151.92546833516099,80.72634501426364 151.53530110535212,80.25814152107341 151.73038472025655,78.8535286897677 151.69136799732223,78.25763127149548 151.84743488929234,77.91711817594478 152.08153522736393,77.78942571175867 152.2766188425012,77.40634814402438 152.00350178126246,76.51249946589814 152.00350178126246,75.32069900617353 151.84743488929234,75.15044159026002 151.76940144319087,74.68223342954298 151.84743488929234,72.80939686694182 151.69136799732223,72.34118674640195 151.92546833516099,71.3196360321017 151.61333455122076,70.68116588806151 151.76940144319087,69.659612141666 151.5743178280536,69.40422341346857 151.69136799732223,68.7657510828576 151.5743178280536,68.3401024574705 151.5743178280536,67.78675876025227 151.34021748998202,67.3611093898362 151.26218404388055,65.8713340422255 151.26218404388055,61.69994195632171 151.14513387484476,58.80548834631918 151.22316732094623,58.16700391547056 151.06710042897612,57.10286157755763 151.14513387484476,56.37924363114871 151.06710042897612,54.804307216836605 151.1841505980119,54.29351607582066 151.06710042897612,52.29291294788709 151.1841505980119,51.99495016748551 151.22316732094623,51.39902413045638 151.14513387484476,51.101060873654205 151.3012007670477,50.760531243053265 151.02808370580897,50.5051338839985 150.911033537006,50.59026634998736 151.06710042897612,50.54770011853543 150.98906698310748,49.398410646856064 150.79398336773738,49.398410646856064 150.83300009090453,49.52610959362937 150.67693319893442,49.398410646856064 149.81856529251672,49.52610959362937 149.50643150834367,49.27071167086251 148.76511377096176,49.48354328123969 148.92118066293187,49.3558443247457 148.76511377096176,49.44097696567769 147.98477931064554,49.44097696567769 147.51657863450237,49.61124220865895 146.97034451249056,49.313277999375714 146.69722745125182,49.398410646856064 146.8142776202876,49.313277999375714 146.0729598829057,49.44097696567769 145.87787626776844,49.56867590281763 145.9168929909356,49.65380851132795 145.5267257608939,49.44097696567769 144.70737457741052,49.65380851132795 144.59032440837473,49.56867590281763 144.39524079323746,49.65380851132795 143.38080599484965,49.52610959362937 142.79555514943786,49.696374810824636 142.24932102742605,49.65380851132795 141.937187243253,49.738941106945276 141.85915379738435,49.56867590281763 141.35193639807403,49.86663997604046 139.94733436964452,50.03690508942236 139.63520058547147,49.95177253923612 139.47913369326852,49.7815073998936 139.20601663226262,49.86663997604046 138.54273234098218,49.738941106945276 137.91846477263607,49.86663997604046 137.02108014328405,49.86663997604046 136.04566206783056,49.738941106945276 135.96762862196192,49.56867590281763 136.04566206783056,49.22814533894416 136.27976240613498,49.313277999375714 136.4358292981051,49.1855790039117 136.16271223709919,48.29168521921383 136.16271223709919,47.39779000545968 136.39681257517077,47.2700905726233 136.39681257517077,46.5464599019615 136.27976240613498,45.73769510304555 135.96762862196192,45.39716220617993 135.8505784526933,45.39716220617993 136.04566206783056,45.18432904029032 135.53844466875307,44.971495793404756 135.49942794581875,44.84379580646055 134.68007676233537,44.33299556674319 134.13384264009073,44.50326236517867 133.8217088561505,44.84379580646055 133.70465868688188,45.09919575130334 133.11940784170292,45.22689567998168 133.00235767266713,45.141762397426646 132.9633409497328,44.84379580646055 132.72924061166123,45.014062449277844 132.49514027358964,45.0566291018622 132.26103993551806,45.0566291018622 131.87087270524353,44.75866246552323 131.48070547520183,44.716095790296094 129.80298638530076,44.928929134388454 129.64691949356347,44.80122913766536 129.37380243232474,44.80122913766536 128.90560175594874,44.035028544749366 129.100685371086,43.56679433232057 129.02265192498453,43.60936109506292 128.90560175594874,43.43909402447753 128.8275683100801,43.52422756626038 128.78855158691294,43.82219486046233 128.39838435687125,43.77962811378529 128.63248469494283,43.94989508079016 128.55445124884136,44.035028544749366 128.51543452590704,43.60936109506292 128.51543452590704,43.77962811378529 128.39838435687125,43.60936109506292 128.16428401856683,43.52422756626038 128.39838435687125,43.69449461097247 128.55445124884136,43.31139368744334 128.55445124884136,43.43909402447753 128.74953486397862,43.39652724872576 128.63248469494283,43.39652724872576 128.7105181410443,43.77962811378529 128.67150141787715,43.86476160379243 128.63248469494283,43.56679433232057 128.5934679720085,44.20529543387238 128.7105181410443,44.07759527198505 128.63248469494283,43.82219486046233 128.7105181410443,43.86476160379243 130.66135429171845,42.33235680163489 131.12955496786162,43.14112652617041 132.26103993551806,43.651927854691166 128.78855158691294,44.33299556674319 127.93018368072808,44.035028544749366 128.0862505726982,43.82219486046233 128.00821712659672,43.60936109506292 128.7105181410443,43.77962811378529 128.8275683100801,43.60936109506292 128.55445124884136,42.97085931294714 128.74953486397862,42.502624209359055 128.74953486397862,41.39588513295166 129.02265192498453,40.20400983156287 128.9446184791159,39.13983330843621 128.7105181410443,37.564848337031435 128.8275683100801,36.372964868933195 128.74953486397862,35.56418535436387 128.8275683100801,35.223646261380054 128.55445124884136,34.542567453114316 128.28133418783545,34.670269792870386 128.32035091076978,34.71283723297529 128.20330074173398,34.670269792870386 128.2423174646683,34.5 128.1252672956325,34.585134902910795 126.95476560527459,34.627702349447645 126.8377154362388,34.925674384779995 126.56459837500006,35.053376637079054 126.56459837500006,36.07499360496877 126.44754820596427,36.24526291809161 126.3304980371613,36.24526291809161 126.48656492913142,36.628368683101144 126.36951476009563,36.7135032620281 126.79869871307164,39.267534598184284 126.720665267203,39.22496750476421 126.44754820596427,39.94860765070189 126.29148131399415,39.90604060923215 126.13541442202404,40.11887578421738 125.43311340757646,40.28914386595716 124.69179567042738,40.246576850360725 123.75539431790821,40.33171087826486 123.2091601958964,40.07630875572795 122.27275884337723,40.07630875572795 122.23374212044291,40.246576850360725 122.31177556654438,40.246576850360725 122.11669195117429,40.246576850360725 122.11669195117429,40.374277887283824 121.88259161333553,40.58711288412451 121.492424383061,40.11887578421738 121.45340766012669,40.161442809563596 120.67307319981046,40.11887578421738 120.4779895846732,39.86347356456099 120.51700630760752,40.07630875572795 120.4779895846732,39.94860765070189 120.16585580073297,39.90604060923215 119.89273873949423,40.161442809563596 119.89273873949423,40.246576850360725 119.50257150945254,40.07630875572795 119.30748789431527,40.11887578421738 119.30748789431527,39.99117468902841 118.80027049500495,40.416844893217785 117.90288586565293,40.6722468600783 117.20058485120535,40.544545891170856 116.57631728309207,40.629679873702116" stroke="#4dd2ff" stroke-linecap="round" stroke-linejoin="round" stroke-width="0.5"><title>2022-02-26 8.4km</title></polyline><polyline fill="none" points="83.71544217597693,184.99186607418233 84.51309334754478,184.95403023954714 84.7211762618972,185.1053735605674 85.72691034781747,184.84052271852852 86.24711763369851,184.84052271852852 86.87136637652293,185.02970190584892 87.53029560518917,184.76485102350125 88.0505028909538,184.99186607418233 88.84815406252164,184.87835856180754 89.54176377691329,184.57567173536518 89.95792960561812,184.7270151715784 92.28152214898728,184.5 92.9751318632625,184.53783586915233 93.21789526334032,184.65134345929255 93.39129769196734,184.95403023954714 92.9404513775371,186.4674613759853 93.21789526334032,187.90521668700967 93.14853429188952,188.6619283381442 93.21789526334032,188.81327053011046 93.00981234898791,189.15379029358155 92.8364099203609,189.04028373165056 93.07917332043871,189.00244820531225 93.39129769196734,189.98617095552618 93.21789526334032,191.4617514302954 93.28725623467471,191.65092809739872 93.11385380616412,192.40763404598692 93.39129769196734,194.3372290006082 93.21789526334032,194.29939387744525 93.04449283471331,194.4507343528967 93.18321477761492,195.2074360391125 93.04449283471331,195.62362147553358 93.14853429188952,196.41815634106752 92.9751318632625,197.25052483804757 93.07917332043871,198.04505710309604 93.28725623467471,198.2342312648252 93.21789526334032,199.18010099304956 93.49533914902713,200.50431558914715 93.46065866341814,200.69348881478072 93.14853429188952,201.1475042629172 93.25257574906573,200.95833120986936 93.28725623467471,202.05553391505964 93.46065866341814,202.69872058177134 93.28725623467471,202.92572744196514 93.32193672051653,204.32560078895767 93.14853429188952,205.5741331508907 93.25257574906573,207.16316980382544 93.14853429188952,207.69284755951958 93.39129769196734,211.0979053703195 93.25257574906573,211.70324653954594 93.49533914902713,211.66541273810435 93.28725623467471,212.686924367561 93.42597817769274,213.48143196158344 93.21789526334032,213.93543573096395 93.39129769196734,215.52444565901533 93.49533914902713,215.67577967297984 93.77278303483035,215.63794617386884 93.91150497773197,215.86494712575222 93.77278303483035,216.31894871857367 93.56470012059435,216.58378278961754 93.91150497773197,217.87011769943638 93.73810254910495,219.6482810653979 93.39129769196734,219.9887797079282 93.25257574906573,220.7076094095537 93.39129769196734,223.01542405918008 93.53001963475253,223.01542405918008 93.56470012059435,222.90192522853613 93.59938060620334,222.97759111857158 93.66874157765415,223.84774802596075 93.84214400628116,224.37740800660686 93.80746352055576,225.13406414308702 93.42597817769274,226.836536240211 93.77278303483035,227.55535604216857 93.56470012059435,228.38767240935704 93.98086594918277,228.69033256117837 93.59938060620334,229.25781984915375 93.84214400628116,231.37643333539017 93.63406109192874,232.32224001316354 93.07917332043871,232.8897231563169 92.4896050633397,232.77622657944448 92.35088312032167,232.54923334819614 91.83067583444063,233.1167162322963 91.69195389165543,233.04105188511312 91.58791243459564,233.15454840150778 91.48387097741943,233.72203059485764 91.31046854879241,233.91119118200731 91.65727340593003,234.70566486252937 91.48387097741943,235.15964925289154 90.75558077718597,235.50013727371697 88.84815406252164,235.68929718452273 88.74411260546185,235.5758012466249 88.0505028909538,235.5758012466249 87.28753220522776,235.72712915806915 87.04476880514994,235.50013727371697 85.86563229071908,235.12181723618414 83.54203974746633,234.5921687001537 83.47267877613194,234.66783281127573 82.53630566154607,234.21384797187056 82.18950080452487,234.28951214053086 81.11440574703738,234.02468749979744 80.76760088989977,233.72203059485764 80.62887894711457,233.79769483828568 80.59419846138917,233.64636633984628 80.76760088989977,233.94902329088654 80.69823991833255,234.06251959997462 80.14335214684252,234.02468749979744 79.38038146111649,233.4950377952191 78.58273028943222,233.07888406017446 78.33996688947082,232.81405877470388 77.54231571801938,233.15454840150778 77.33423280366696,234.28951214053086 76.98742794652935,234.70566486252937 76.22445726057049,235.08398521668278 75.77361094625667,235.0461531941255 75.70424997480586,235.4623052829411 75.53084754617885,235.68929718452273 75.32276463182643,235.61363322881516 74.9759597745724,235.7649611287634 74.9759597745724,236.21894455197616 74.94127928896341,236.44593610821175 74.42107200308237,237.1269101552898 74.24766957457177,237.0890782882343 73.93554520304315,237.27823759469902 73.83150374586694,237.1269101552898 73.2072550029261,236.86208702559816 72.92981111712288,236.97558266978012 72.23620140273124,237.65655599159072 71.36918925971258,237.88354689165135 71.3345087741036,238.0727058958728 70.77962100249715,238.64018247681088 70.57153808837757,238.60235072489013 70.43281614547595,238.37536015291698 70.29409420245793,238.64018247681088 69.9819698309293,238.5645189701172 69.77388691657688,238.67801422585035 69.32304060237948,239.0941632752656 69.28836011653766,239.3589852163568 69.01091623085085,239.54814365931088 68.97623574500903,239.81296535863657 68.76815283077303,239.92646032944322 68.42134797363542,239.92646032944322 68.07454311626498,239.6616386906244 67.72773825924378,239.58597533934517 66.5832822304219,240.1156185566506 65.95903348748107,239.81296535863657 65.50818717305083,239.88862867539865 66.75668465916533,240.87225074571325 66.75668465916533,241.28839795902604 67.10348951630294,241.7423763400584 66.93008708767593,242.30984873347916 67.17285048775375,242.61250041198218 67.41561388771515,243.52045434212778 68.45602845924441,245.22286349334172 68.49070894508623,246.09298147566733 68.66411137359682,246.2821373574261 68.56006991665345,246.66044890499325 67.83177971641999,246.8496045708016 67.65837728790939,246.2821373574261 67.17285048775375,246.35779968992574 66.86072611634154,247.0387601647817 64.50245308724698,249.08163599512773 64.6064945445396,249.0059740768629 64.91861891595181,249.27079074003268 65.02266037312802,249.8382545435452 65.16138231591322,250.25439425450168 64.7798969730502,250.51921025296906 64.29437017301098,250.67053361728904 64.08628725865856,250.93534939427627 63.1845946299145,251.38931896944996 62.768428801209666,251.8811188749969 62.31758248701226,252.10810328266234 61.79737520113122,252.82688655721722 60.75696062948555,253.58349940821063 60.51419722952414,253.96180540206842 59.855268000857905,254.15095829119673 59.33506071509328,254.90756912800134 58.88421440066304,254.83190809606458 59.02293634356465,254.94539963957504 58.64145100058522,255.1345521545445 58.64145100058522,254.86973861345905 58.64145100058522,254.98323014832567 58.74549245776143,254.90756912800134 58.364007114782,255.2102131403808 58.259965657722205,255.4750265002658 57.705077886232175,255.51285696870764 57.94784128619358,255.4750265002658 57.73975837184116,255.77767016741564 57.01146817172412,256.2694657338143 56.94210720027331,256.193804909155 56.24849748588167,256.9125822792412 55.10404145717621,257.78267981135286 53.231295228237286,258.9175873482891 52.711087942589074,259.10673835274065 52.225561142433435,259.52287030921434 50.873022199375555,259.97683204655186 48.82687354180962,260.9982444408233 48.30666625616141,260.73343402147293 44.38777136977296,262.32229442268726 41.8214154264424,263.0032330410613 39.497822883189656,263.5328513220302 37.72911811154336,264.1759584765241 33.6021403108025,264.8190647995507 33.08193302503787,265.008213559835 33.01257205370348,264.59208619219135 32.80448913935106,264.4407670631481 31.07046485331375,264.7812350387976 29.301760081551038,264.7812350387976 28.677511338610202,264.8947243122675 28.365386967081577,264.7812350387976 27.810499195591547,265.0838730438263 27.394333367003128,265.5 27.082208995474502,265.348681147123 26.943487052689306,265.0460433032131 26.596682195435278,264.8947243122675 25.00137985229958,264.8190647995507 24.515853052260354,264.8947243122675 25.140101795317605,264.93255406437675 24.307770138024352,264.93255406437675 20.978443508851342,264.6677457394544 20.805041080224328,264.5542564142961 20.943763023009524,264.0624690390541 16.365938908071257,262.32229442268726 16.01913405081723,261.98182476399234 16.01913405081723,261.71701486827806 19.036336308461614,255.096721657319 19.34846067999024,254.79407757584704 19.279099708539434,253.88614422632963 19.417821651441045,253.16736248260713 19.313780194381252,253.2808544059808 19.313780194381252,253.4321769301023 19.625904565677047,252.59990247749374 20.21547282312531,252.1459340073052 20.180792337283492,252.03244182499475 20.250153308617882,251.42714974860428 20.2848337944597,251.5406420690415 20.076750880107284,251.46498052499373 20.35419476579409,251.31365740235196 20.180792337283492,251.2758266144665 19.903348451596685,251.5028112985019 18.689531451324,251.69196512267808 18.44676805124618,251.61630360168056 18.862933879951015,251.46498052499373 19.036336308461614,251.23799582375796 18.481448536971584,251.08667263196548 19.417821651441045,251.20016503010993 19.452502137050033,251.08667263196548 19.071016794187017,251.16233423360973 19.10569727991242,251.01101101888344 18.966975337127224,250.97318020806415 18.966975337127224,250.82185693568317 19.001655822852626,250.97318020806415 18.585489994147792,251.42714974860428 17.787838822696358,251.20016503010993 17.82251930842176,251.04884182685055 18.238685136893764,251.04884182685055 18.030602222774178,251.20016503010993 18.204004651284777,251.46498052499373 18.481448536971584,251.57847283681622 18.44676805124618,251.6541343635763 18.238685136893764,251.57847283681622 18.516129022813402,251.31365740235196 18.62017047998961,251.01101101888344 19.140377765637822,251.04884182685055 19.244419222697616,251.6541343635763 19.244419222697616,251.16233423360973 19.48718262289185,251.6541343635763 19.34846067999024,251.69196512267808 19.868667965754867,251.46498052499373 19.764626508578658,251.57847283681622 22.053538566106,242.49900605416042 23.024592166300863,242.8773204794852 22.712467794772238,242.80165761738317 22.643106823321432,242.4611745957227 22.712467794772238,242.04502836379106 23.059272652026266,241.7423763400584 22.85118973767385,240.83441916367155 23.44075799488928,240.3426083342929 23.30203605198767,240.1156185566506 23.44075799488928,239.88862867539865 23.54479945206549,238.2240330473869 23.33671653782949,238.33752838085638 23.92628479504492,237.99704230276984 24.20372868073173,237.65655599159072 24.16904819512274,237.35390129705775 23.683521395083517,236.97558266978012 23.752882366417907,237.0890782882343 23.752882366417907,236.25677648521378 24.342450623749755,234.70566486252937 24.619894509436563,234.40300837196992 24.862657909397967,233.64636633984628 24.82797742378898,233.4193735056033 25.348184709670022,232.473568914691 25.486906652455218,231.8304207653564 25.764350538142025,231.2629364131426 25.86839199543465,231.3386010309914 26.111155395396054,230.8846131520404 26.215196852572262,230.12796576620894 26.735404138453305,229.25781984915375 26.804765109787695,228.38767240935704 26.978167538298294,228.04717951850034 26.839445595629513,227.85801670054207 26.874126081122085,227.66885381063912 27.394333367003128,226.68520562312915 27.706457738531753,225.58805727219442 28.05326259578578,224.9449002169422 28.365386967081577,224.68007059939555 28.60815036727581,224.07474522959092 28.642830853001215,223.24242164287716 28.920274738804437,222.9397581749945 28.81623328162823,222.78842637201888 28.920274738804437,222.5992615534342 28.78155279578641,222.41009666293394 28.920274738804437,222.33443068654742 29.371121053001843,221.42643807208515 29.64856493868865,220.4806106686592 29.544523481745273,220.17794551962288 29.64856493868865,219.45911505213007 29.544523481745273,219.49694826058112 29.71792591025587,218.24845086308778 29.475162510178052,217.71878435340477 29.613884452963248,216.99995033055893 29.509842995903455,216.09194797390956 29.64856493868865,215.86494712575222 29.301760081551038,215.4487786347745 29.40580153884366,215.03260979539482 29.267079595825635,214.5029398597253 29.475162510178052,214.20027107166243 29.475162510178052,213.40576462636818 29.267079595825635,212.91392666683532 29.197718624491245,212.11941816587932 29.509842995903455,211.66541273810435 29.301760081551038,211.06007152280654 29.40580153884366,210.9087361038546 29.33644056727644,210.56823124259245 29.093677167315036,210.56823124259245 29.058996681473218,210.00072262241156 29.058996681473218,209.47104732578737 29.371121053001843,209.31971142301336 29.232399110216647,209.0548734824697 29.267079595825635,208.56303121845121 28.989635710138828,208.14685661508702 28.920274738804437,208.2981928748195 28.677511338610202,207.6550134527497 28.8509137671208,206.82266237726435 28.642830853001215,205.87680719071068 28.642830853001215,205.23362463590456 28.920274738804437,204.77961291972315 29.33644056727644,204.47693821191206 30.168772224569693,204.24993206004729 32.73512816790026,204.24993206004729 34.850637796800584,203.90942263801116 36.168496254016645,203.53107856216957 36.44594013981987,203.64458181519876 37.24359131150413,203.41757528329617 37.41699374001473,203.49324413875001 38.318686368642375,203.22840309422463 40.15675211197231,203.30407197849127 40.2261130833067,203.0392308330629 40.85036182636395,203.0392308330629 41.197166683501564,203.15273419840378 41.78673494060058,202.92572744196514 43.000551940873265,203.11489974617143 44.14500796981156,203.0392308330629 44.59585428412538,203.19056864778395 45.150742055498995,202.77438954665558 45.67094934138004,202.887892972416 46.43392002710607,202.58521711279172 46.8500858558109,202.66088609502185 47.23157119867392,202.4717136179388 48.13326382741798,202.58521711279172 48.6187906274572,202.4717136179388 48.51474917028099,202.58521711279172 48.65347111329902,202.69872058177134 49.069636942003854,202.5473826174566 50.0406905420823,202.77438954665558 50.734300256473944,202.8500585000147 50.630258799297735,202.77438954665558 50.76898074231576,202.66088609502185 51.4625904567074,202.396044606925 51.635992885218,202.24470655046753 52.32960259960964,202.62305160530377 53.265975714079104,202.43387911393074 53.64746105694212,202.16903750496567 53.95958542835433,202.4717136179388 54.75723659992218,202.4717136179388 55.416165828704834,202.32037558447337 56.31785845721606,202.24470655046753 57.9825217720354,202.2825410689402 58.259965657722205,202.396044606925 58.433368086232804,202.32037558447337 59.12697780074086,202.35821009712527 59.439102172269486,202.20687202911358 60.306114315171726,202.16903750496567 61.38120937242638,202.20687202911358 62.005458115483634,202.35821009712527 62.66438734403346,202.16903750496567 64.57181405869778,202.24470655046753 65.75095057324506,202.16903750496567 66.93008708767593,202.05553391505964 67.41561388771515,202.16903750496567 67.76241874485277,202.13120297779096 68.1785845735576,202.0176993792702 69.21899914520327,201.97986484065768 69.8085674024187,202.2825410689402 70.71026003116276,202.0933684478514 70.91834294551518,202.32037558447337 71.09174537402578,202.35821009712527 72.34024285990745,202.13120297779096 72.58300625998527,202.396044606925 72.75640868861228,202.92572744196514 72.92981111712288,203.00139637221582 73.62342083163094,202.81222402481944 73.79682326014154,202.96356190851657 74.10894763167016,202.4717136179388 74.5597939461004,202.20687202911358 75.42680608900264,202.13120297779096 75.66956948919687,202.24470655046753 76.05105483205989,202.20687202911358 76.4325401749229,202.2825410689402 76.81402551778592,202.13120297779096 78.16656446096022,202.24470655046753 78.27060591802001,201.52585015288787 78.72145223245025,201.4123464161239 80.10867166123353,200.69348881478072 80.66355943272356,200.88266196852783 80.97568380425218,200.8069927157194 81.3571691471152,200.9961658262473 81.5999325470766,200.92049659069744 82.18950080452487,201.03400043977308 82.43226420436986,200.8069927157194 82.6750276045641,200.95833120986936 83.26459586177953,200.8069927157194 83.57672023330815,200.92049659069744 83.95820557617117,200.84482734359335 84.16628849052358,200.65565417546895 84.582454319112,200.69348881478072 84.79053723323159,200.8069927157194 84.582454319112,200.84482734359335 84.7211762618972,200.84482734359335 84.4784128619358,201.18533886483056 84.4784128619358,200.88266196852783 84.6518152904464,200.88266196852783 84.51309334754478,200.88266196852783 84.582454319112,200.8069927157194 84.582454319112,201.10966965803527 85.79627131926827,198.9909271914221 85.17202257632744,198.83958809828619 84.85989820491523,198.309900909313 84.5477738333866,198.12072677645483 84.30501043319236,198.12072677645483 84.09692751907278,197.59103882141062 83.71544217597693,197.25052483804757 83.22991537593771,197.28835973664536 82.84843003307469,197.59103882141062 81.66929351864383,197.32619463230367 81.1490862328792,197.43969930210733 80.94100331841037,197.25052483804757 80.66355943272356,195.81279655871913 80.87164234707598,194.07238307778607 80.76760088989977,193.35351486163563 80.90632283268496,192.63464560586726 80.87164234707598,191.87794000288704 80.94100331841037,191.8022693792591 81.1837667186046,191.9536106150481 80.97568380425218,191.19690397527302 80.66355943272356,190.93205637921346" stroke="#4dd2ff" stroke-linecap="round" stroke-linejoin="round" stroke-width="0.5"><title>2022-02-19 10.1km</title></polyline></svg>